  0
SECTION
  2
HEADER
  9
$ACADVER
  1
AC1014
  9
$HANDSEED
  5
FFFF
  9
$MEASUREMENT
 70
     1
  0
ENDSEC
  0
SECTION
  2
TABLES
  0
TABLE
  2
VPORT
  5
8
330
0
100
AcDbSymbolTable
 70
     4
  0
VPORT
  5
2E
330
8
100
AcDbSymbolTableRecord
100
AcDbViewportTableRecord
  2
*ACTIVE
 70
     0
 10
0.0
 20
0.0
 11
1.0
 21
1.0
 12
210.0
 22
148.5
 13
0.0
 23
0.0
 14
10.0
 24
10.0
 15
10.0
 25
10.0
 16
0.0
 26
0.0
 36
1.0
 17
0.0
 27
0.0
 37
0.0
 40
341.0
 41
1.24
 42
50.0
 43
0.0
 44
0.0
 50
0.0
 51
0.0
 71
     0
 72
   100
 73
     1
 74
     3
 75
     0
 76
     0
 77
     0
 78
     0
  0
ENDTAB
  0
TABLE
  2
LTYPE
  5
5
330
0
100
AcDbSymbolTable
 70
     1
  0
LTYPE
  5
14
330
5
100
AcDbSymbolTableRecord
100
AcDbLinetypeTableRecord
  2
BYBLOCK
 70
     0
  3

 72
    65
 73
     0
 40
0.0
  0
LTYPE
  5
15
330
5
100
AcDbSymbolTableRecord
100
AcDbLinetypeTableRecord
  2
BYLAYER
 70
     0
  3

 72
    65
 73
     0
 40
0.0
  0
LTYPE
  5
16
330
5
100
AcDbSymbolTableRecord
100
AcDbLinetypeTableRecord
  2
CONTINUOUS
 70
     0
  3
Solid line
 72
    65
 73
     0
 40
0.0
  0
ENDTAB
  0
TABLE
  2
LAYER
  5
2
100
AcDbSymbolTable
 70
1
  0
LAYER
  5
50
100
AcDbSymbolTableRecord
100
AcDbLayerTableRecord
  2
0
 70
0
  6
CONTINUOUS
  0
ENDTAB
  0
TABLE
  2
STYLE
  5
3
330
0
100
AcDbSymbolTable
 70
     1
  0
STYLE
  5
11
330
3
100
AcDbSymbolTableRecord
100
AcDbTextStyleTableRecord
  2
STANDARD
 70
     0
 40
0.0
 41
1.0
 50
0.0
 71
     0
 42
2.5
  3
txt
  4

  0
ENDTAB
  0
TABLE
  2
VIEW
  5
6
330
0
100
AcDbSymbolTable
 70
     0
  0
ENDTAB
  0
TABLE
  2
UCS
  5
7
330
0
100
AcDbSymbolTable
 70
     0
  0
ENDTAB
  0
TABLE
  2
APPID
  5
9
330
0
100
AcDbSymbolTable
 70
     2
  0
APPID
  5
12
330
9
100
AcDbSymbolTableRecord
100
AcDbRegAppTableRecord
  2
ACAD
 70
     0
  0
ENDTAB
  0
TABLE
  2
DIMSTYLE
  5
A
330
0
100
AcDbSymbolTable
 70
     1
  0
DIMSTYLE
105
27
330
A
100
AcDbSymbolTableRecord
100
AcDbDimStyleTableRecord
  2
ISO-25
 70
     0
  3

  4

  5

  6

  7

 40
1.0
 41
2.5
 42
0.625
 43
3.75
 44
1.25
 45
0.0
 46
0.0
 47
0.0
 48
0.0
140
2.5
141
2.5
142
0.0
143
0.03937007874016
144
1.0
145
0.0
146
1.0
147
0.625
 71
     0
 72
     0
 73
     0
 74
     0
 75
     0
 76
     0
 77
     1
 78
     8
170
     0
171
     3
172
     1
173
     0
174
     0
175
     0
176
     0
177
     0
178
     0
270
     2
271
     2
272
     2
273
     2
274
     3
340
11
275
     0
280
     0
281
     0
282
     0
283
     0
284
     8
285
     0
286
     0
287
     3
288
     0
  0
ENDTAB
  0
TABLE
  2
BLOCK_RECORD
  5
1
330
0
100
AcDbSymbolTable
 70
     1
  0
BLOCK_RECORD
  5
1F
330
1
100
AcDbSymbolTableRecord
100
AcDbBlockTableRecord
  2
*MODEL_SPACE
  0
BLOCK_RECORD
  5
1B
330
1
100
AcDbSymbolTableRecord
100
AcDbBlockTableRecord
  2
*PAPER_SPACE
  0
ENDTAB
  0
ENDSEC
  0
SECTION
  2
BLOCKS
  0
BLOCK
  5
20
330
1F
100
AcDbEntity
  8
0
100
AcDbBlockBegin
  2
*MODEL_SPACE
 70
     0
 10
0.0
 20
0.0
 30
0.0
  3
*MODEL_SPACE
  1

  0
ENDBLK
  5
21
330
1F
100
AcDbEntity
  8
0
100
AcDbBlockEnd
  0
BLOCK
  5
1C
330
1B
100
AcDbEntity
 67
     1
  8
0
100
AcDbBlockBegin
  2
*PAPER_SPACE
  1

  0
ENDBLK
  5
1D
330
1B
100
AcDbEntity
 67
     1
  8
0
100
AcDbBlockEnd
  0
ENDSEC
  0
SECTION
  2
ENTITIES
  0
LWPOLYLINE
  5
100
100
AcDbEntity
  8
0
 62
7
100
AcDbPolyline
 90
4
 70
0
 10
55.700788
 20
36.566929
 30
0.0
 10
54.509581
 20
41.368841
 30
0.0
 10
53.720678
 20
53.885972
 30
0.0
 10
53.149606
 20
107.642645
 30
0.0
  0
LWPOLYLINE
  5
101
100
AcDbEntity
  8
0
 62
7
100
AcDbPolyline
 90
69
 70
0
 10
58.996063
 20
180.276704
 30
0.0
 10
139.190638
 20
225.550318
 30
0.0
 10
199.881260
 20
258.274329
 30
0.0
 10
214.000197
 20
264.772600
 30
0.0
 10
221.041029
 20
266.569058
 30
0.0
 10
228.438988
 20
264.353616
 30
0.0
 10
243.506531
 20
257.191915
 30
0.0
 10
304.645677
 20
223.954393
 30
0.0
 10
384.901582
 20
177.928691
 30
0.0
 10
387.219846
 20
174.458155
 30
0.0
 10
388.462149
 20
165.363515
 30
0.0
 10
389.055118
 20
107.712524
 30
0.0
 10
388.464567
 20
50.643564
 30
0.0
 10
387.297285
 20
41.175757
 30
0.0
 10
385.167246
 20
37.534229
 30
0.0
 10
381.991700
 20
35.747194
 30
0.0
 10
376.241840
 20
34.675190
 30
0.0
 10
350.513702
 20
34.015748
 30
0.0
 10
326.600896
 20
34.635390
 30
0.0
 10
317.196850
 20
36.566929
 30
0.0
 10
315.381366
 20
41.522466
 30
0.0
 10
314.598982
 20
49.854331
 30
0.0
 10
313.506259
 20
59.637502
 30
0.0
 10
310.591912
 20
68.905690
 30
0.0
 10
306.274917
 20
76.671933
 30
0.0
 10
300.974250
 20
81.949272
 30
0.0
 10
293.673258
 20
85.257156
 30
0.0
 10
285.522544
 20
86.566241
 30
0.0
 10
277.482137
 20
85.841859
 30
0.0
 10
270.512065
 20
83.049341
 30
0.0
 10
263.764905
 20
77.582730
 30
0.0
 10
258.960871
 20
70.860465
 30
0.0
 10
256.085933
 20
62.855638
 30
0.0
 10
255.126062
 20
53.541341
 30
0.0
 10
254.578304
 20
42.580763
 30
0.0
 10
253.506454
 20
39.124046
 30
0.0
 10
251.552109
 20
36.747696
 30
0.0
 10
243.944387
 20
34.430054
 30
0.0
 10
229.652051
 20
34.015748
 30
0.0
 10
213.603350
 20
34.572690
 30
0.0
 10
208.681391
 20
35.930630
 30
0.0
 10
205.388568
 20
38.596449
 30
0.0
 10
203.395541
 20
43.011324
 30
0.0
 10
202.372968
 20
49.616428
 30
0.0
 10
201.921814
 20
71.162028
 30
0.0
 10
201.110523
 20
95.043999
 30
0.0
 10
199.913994
 20
101.976147
 30
0.0
 10
197.990623
 20
107.409379
 30
0.0
 10
192.301263
 20
117.052110
 30
0.0
 10
185.109541
 20
124.685628
 30
0.0
 10
176.756727
 20
130.228555
 30
0.0
 10
167.584089
 20
133.599516
 30
0.0
 10
157.932895
 20
134.717134
 30
0.0
 10
148.144416
 20
133.500034
 30
0.0
 10
138.559920
 20
129.866839
 30
0.0
 10
129.520675
 20
123.736172
 30
0.0
 10
120.866123
 20
114.904237
 30
0.0
 10
115.775829
 20
104.875464
 30
0.0
 10
113.358753
 20
90.787462
 30
0.0
 10
112.723858
 20
69.777842
 30
0.0
 10
112.030807
 20
45.747906
 30
0.0
 10
111.002071
 20
40.251333
 30
0.0
 10
109.336331
 20
37.356582
 30
0.0
 10
105.982295
 20
35.935254
 30
0.0
 10
99.744938
 20
34.863462
 30
0.0
 10
82.472383
 20
33.825199
 30
0.0
 10
65.222917
 20
34.355214
 30
0.0
 10
59.014419
 20
35.243770
 30
0.0
 10
55.700788
 20
36.566929
 30
0.0
  0
LWPOLYLINE
  5
102
100
AcDbEntity
  8
0
 62
7
100
AcDbPolyline
 90
3
 70
0
 10
53.149606
 20
107.642645
 30
0.0
 10
53.149606
 20
176.167160
 30
0.0
 10
58.996063
 20
180.276704
 30
0.0
  0
ENDSEC
  0
SECTION
  2
OBJECTS
  0
DICTIONARY
  5
C
330
0
100
AcDbDictionary
  3
ACAD_GROUP
350
D
  3
ACAD_MLINESTYLE
350
17
  0
DICTIONARY
  5
D
330
C
100
AcDbDictionary
  0
DICTIONARY
  5
1A
330
C
100
AcDbDictionary
  0
DICTIONARY
  5
17
330
C
100
AcDbDictionary
  3
STANDARD
350
18
  0
DICTIONARY
  5
19
330
C
100
AcDbDictionary
  0
ENDSEC
  0
EOF
