999
"DXF R12 Output" (www.mydxf.blogspot.com)
 0 
SECTION
 2 
HEADER
 9 
$ACADVER
 1 
AC1009
 9 
$EXTMIN
 10 
 0 
 20 
 0 
 9 
$EXTMAX
 10 
 8.5 
 20 
 11 
 0 
ENDSEC
 0 
SECTION
 2 
ENTITIES
0
LINE
8
Image
10
14.046572
20
4.620936
11
12.327678
21
5.090351
0
LINE
8
Image
10
12.327678
20
5.090351
11
12.260927
21
5.954136
0
LINE
8
Image
10
12.260927
20
5.954136
11
12.418000
21
7.713334
0
LINE
8
Image
10
12.418000
20
7.713334
11
12.775733
21
9.557398
0
LINE
8
Image
10
12.775733
20
9.557398
11
12.984761
21
9.927769
0
LINE
8
Image
10
12.984761
20
9.927769
11
13.238231
21
9.998156
0
LINE
8
Image
10
13.238231
20
9.998156
11
17.374685
21
9.680421
0
LINE
8
Image
10
17.374685
20
9.680421
11
21.007373
21
9.474705
0
LINE
8
Image
10
21.007373
20
9.474705
11
21.007373
21
6.882028
0
LINE
8
Image
10
21.007373
20
6.882028
11
21.007373
21
4.289350
0
LINE
8
Image
10
21.007373
20
4.289350
11
18.273348
21
4.333506
0
LINE
8
Image
10
18.273348
20
4.333506
11
14.046572
21
4.620936
0
LINE
8
Image
10
14.046572
20
4.620936
11
14.046572
21
4.620936
0
LINE
8
Image
10
22.065705
20
6.828365
11
22.065705
21
9.473078
0
LINE
8
Image
10
22.065705
20
9.473078
11
26.190729
21
9.694145
0
LINE
8
Image
10
26.190729
20
9.694145
11
29.157088
21
9.797209
0
LINE
8
Image
10
29.157088
20
9.797209
11
30.496392
21
9.734568
0
LINE
8
Image
10
30.496392
20
9.734568
11
30.818855
21
7.326654
0
LINE
8
Image
10
30.818855
20
7.326654
11
30.850739
21
5.762435
0
LINE
8
Image
10
30.850739
20
5.762435
11
30.701657
21
5.278304
0
LINE
8
Image
10
30.701657
20
5.278304
11
30.360960
21
4.944468
0
LINE
8
Image
10
30.360960
20
4.944468
11
29.767450
21
4.724658
0
LINE
8
Image
10
29.767450
20
4.724658
11
28.859929
21
4.582606
0
LINE
8
Image
10
28.859929
20
4.582606
11
25.858061
21
4.386700
0
LINE
8
Image
10
25.858061
20
4.386700
11
22.065705
21
4.183651
0
LINE
8
Image
10
22.065705
20
4.183651
11
22.065705
21
6.828365
0
LINE
8
Image
10
9.101138
20
5.963414
11
8.451400
21
6.330858
0
LINE
8
Image
10
8.451400
20
6.330858
11
8.109570
21
6.763474
0
LINE
8
Image
10
8.109570
20
6.763474
11
7.976892
21
7.505789
0
LINE
8
Image
10
7.976892
20
7.505789
11
7.954611
21
8.802331
0
LINE
8
Image
10
7.954611
20
8.802331
11
7.954611
21
11.070641
0
LINE
8
Image
10
7.954611
20
11.070641
11
9.277526
21
10.836183
0
LINE
8
Image
10
9.277526
20
10.836183
11
10.664897
21
10.564710
0
LINE
8
Image
10
10.664897
20
10.564710
11
11.372185
21
10.274480
0
LINE
8
Image
10
11.372185
20
10.274480
11
11.606343
21
9.796658
0
LINE
8
Image
10
11.606343
20
9.796658
11
11.574325
21
8.962407
0
LINE
8
Image
10
11.574325
20
8.962407
11
11.324761
21
6.717307
0
LINE
8
Image
10
11.324761
20
6.717307
11
10.964178
21
5.632571
0
LINE
8
Image
10
10.964178
20
5.632571
11
10.679066
21
5.448716
0
LINE
8
Image
10
10.679066
20
5.448716
11
10.290372
21
5.463004
0
LINE
8
Image
10
10.290372
20
5.463004
11
9.101138
21
5.963414
0
LINE
8
Image
10
9.101138
20
5.963414
11
9.101138
21
5.963414
0
LINE
8
Image
10
31.780040
20
7.641283
11
31.655320
21
9.352422
0
LINE
8
Image
10
31.655320
20
9.352422
11
31.708561
21
10.169249
0
LINE
8
Image
10
31.708561
20
10.169249
11
33.363262
21
10.677674
0
LINE
8
Image
10
33.363262
20
10.677674
11
34.939632
21
10.916164
0
LINE
8
Image
10
34.939632
20
10.916164
11
35.247827
21
8.796688
0
LINE
8
Image
10
35.247827
20
8.796688
11
35.312796
21
7.016425
0
LINE
8
Image
10
35.312796
20
7.016425
11
35.102872
21
6.598059
0
LINE
8
Image
10
35.102872
20
6.598059
11
34.679465
21
6.262943
0
LINE
8
Image
10
34.679465
20
6.262943
11
32.957615
21
5.520764
0
LINE
8
Image
10
32.957615
20
5.520764
11
32.423324
21
5.432003
0
LINE
8
Image
10
32.423324
20
5.432003
11
32.119423
21
5.628959
0
LINE
8
Image
10
32.119423
20
5.628959
11
31.940224
21
6.301948
0
LINE
8
Image
10
31.940224
20
6.301948
11
31.780040
21
7.641283
0
LINE
8
Image
10
31.780040
20
7.641283
11
31.780040
21
7.641283
0
LINE
8
Image
10
14.887479
20
13.478743
11
13.083976
21
13.878221
0
LINE
8
Image
10
13.083976
20
13.878221
11
13.165643
21
18.004795
0
LINE
8
Image
10
13.165643
20
18.004795
11
13.340635
21
22.018864
0
LINE
8
Image
10
13.340635
20
22.018864
11
15.461867
21
21.797151
0
LINE
8
Image
10
15.461867
20
21.797151
11
19.295235
21
21.575439
0
LINE
8
Image
10
19.295235
20
21.575439
11
21.007373
21
21.575439
0
LINE
8
Image
10
21.007373
20
21.575439
11
21.007373
21
17.342111
0
LINE
8
Image
10
21.007373
20
17.342111
11
21.007373
21
13.108785
0
LINE
8
Image
10
21.007373
20
13.108785
11
18.802514
21
13.150277
0
LINE
8
Image
10
18.802514
20
13.150277
11
14.887479
21
13.478743
0
LINE
8
Image
10
14.887479
20
13.478743
11
14.887479
21
13.478743
0
LINE
8
Image
10
22.065705
20
17.342111
11
22.065705
21
21.575439
0
LINE
8
Image
10
22.065705
20
21.575439
11
23.423588
21
21.575439
0
LINE
8
Image
10
23.423588
20
21.575439
11
27.392331
21
21.795374
0
LINE
8
Image
10
27.392331
20
21.795374
11
30.003194
21
22.015308
0
LINE
8
Image
10
30.003194
20
22.015308
11
30.003194
21
17.826925
0
LINE
8
Image
10
30.003194
20
17.826925
11
30.003194
21
13.638543
0
LINE
8
Image
10
30.003194
20
13.638543
11
28.415696
21
13.399813
0
LINE
8
Image
10
28.415696
20
13.399813
11
24.446952
21
13.134933
0
LINE
8
Image
10
24.446952
20
13.134933
11
22.065705
21
13.108793
0
LINE
8
Image
10
22.065705
20
13.108793
11
22.065705
21
17.342111
0
LINE
8
Image
10
31.095853
20
14.652582
11
30.889954
21
18.795517
0
LINE
8
Image
10
30.889954
20
18.795517
11
30.885139
21
22.189197
0
LINE
8
Image
10
30.885139
20
22.189197
11
33.036098
21
22.612373
0
LINE
8
Image
10
33.036098
20
22.612373
11
35.316885
21
22.905721
0
LINE
8
Image
10
35.316885
20
22.905721
11
35.194397
21
18.743521
0
LINE
8
Image
10
35.194397
20
18.743521
11
34.942077
21
14.711150
0
LINE
8
Image
10
34.942077
20
14.711150
11
33.119508
21
14.307237
0
LINE
8
Image
10
33.119508
20
14.307237
11
31.531096
21
14.069855
0
LINE
8
Image
10
31.531096
20
14.069855
11
31.249458
21
14.245030
0
LINE
8
Image
10
31.249458
20
14.245030
11
31.095855
21
14.652582
0
LINE
8
Image
10
31.095855
20
14.652582
11
31.095853
21
14.652582
0
LINE
8
Image
10
9.365721
20
14.628002
11
8.131000
21
15.049062
0
LINE
8
Image
10
8.131000
20
15.049062
11
7.844053
21
18.877850
0
LINE
8
Image
10
7.844053
20
18.877850
11
7.721563
21
22.871093
0
LINE
8
Image
10
7.721563
20
22.871093
11
10.018219
21
22.616064
0
LINE
8
Image
10
10.018219
20
22.616064
11
11.181356
21
22.359306
0
LINE
8
Image
10
11.181356
20
22.359306
11
11.852901
21
22.096025
0
LINE
8
Image
10
11.852901
20
22.096025
11
12.198433
21
21.722558
0
LINE
8
Image
10
12.198433
20
21.722558
11
12.383528
21
21.135245
0
LINE
8
Image
10
12.383528
20
21.135245
11
12.475893
21
19.518118
0
LINE
8
Image
10
12.475893
20
19.518118
11
12.370619
21
17.120513
0
LINE
8
Image
10
12.370619
20
17.120513
11
12.153614
21
15.216562
0
LINE
8
Image
10
12.153614
20
15.216562
11
11.989721
21
14.649629
0
LINE
8
Image
10
11.989721
20
14.649629
11
11.747215
21
14.304811
0
LINE
8
Image
10
11.747215
20
14.304811
11
11.394827
21
14.156174
0
LINE
8
Image
10
11.394827
20
14.156174
11
10.901293
21
14.177783
0
LINE
8
Image
10
10.901293
20
14.177783
11
9.365721
21
14.627999
0
LINE
8
Image
10
9.365721
20
14.627999
11
9.365721
21
14.628002
0
LINE
8
Image
10
14.394448
20
26.066992
11
13.422010
21
26.212597
0
LINE
8
Image
10
13.422010
20
26.212597
11
13.112206
21
26.375198
0
LINE
8
Image
10
13.112206
20
26.375198
11
12.889324
21
26.655734
0
LINE
8
Image
10
12.889324
20
26.655734
11
12.612262
21
27.744812
0
LINE
8
Image
10
12.612262
20
27.744812
11
12.406697
21
29.828238
0
LINE
8
Image
10
12.406697
20
29.828238
11
12.228447
21
31.907433
0
LINE
8
Image
10
12.228447
20
31.907433
11
15.118606
21
31.682433
0
LINE
8
Image
10
15.118606
20
31.682433
11
19.508069
21
31.455319
0
LINE
8
Image
10
19.508069
20
31.455319
11
21.007373
21
31.453202
0
LINE
8
Image
10
21.007373
20
31.453202
11
21.007373
21
28.630984
0
LINE
8
Image
10
21.007373
20
28.630984
11
21.007373
21
25.808765
0
LINE
8
Image
10
21.007373
20
25.808765
11
18.449737
21
25.870398
0
LINE
8
Image
10
18.449737
20
25.870398
11
14.394448
21
26.066990
0
LINE
8
Image
10
14.394448
20
26.066990
11
14.394448
21
26.066992
0
LINE
8
Image
10
22.065705
20
28.577085
11
22.065705
21
31.453204
0
LINE
8
Image
10
22.065705
20
31.453204
11
23.776365
21
31.453204
0
LINE
8
Image
10
23.776365
20
31.453204
11
28.237189
21
31.685678
0
LINE
8
Image
10
28.237189
20
31.685678
11
30.987355
21
31.918153
0
LINE
8
Image
10
30.987355
20
31.918153
11
30.733969
21
29.304431
0
LINE
8
Image
10
30.733969
20
29.304431
11
30.478402
21
27.379454
0
LINE
8
Image
10
30.478402
20
27.379454
11
30.219771
21
26.421648
0
LINE
8
Image
10
30.219771
20
26.421648
11
28.876249
21
26.165291
0
LINE
8
Image
10
28.876249
20
26.165291
11
26.012331
21
25.926776
0
LINE
8
Image
10
26.012331
20
25.926776
11
22.065705
21
25.700966
0
LINE
8
Image
10
22.065705
20
25.700966
11
22.065705
21
28.577085
0
LINE
8
Image
10
8.670099
20
26.989310
11
6.739757
21
27.396265
0
LINE
8
Image
10
6.739757
20
27.396265
11
5.946728
21
30.218484
0
LINE
8
Image
10
5.946728
20
30.218484
11
5.143046
21
33.264022
0
LINE
8
Image
10
5.143046
20
33.264022
11
5.535597
21
33.283905
0
LINE
8
Image
10
5.535597
20
33.283905
11
6.494349
21
33.018110
0
LINE
8
Image
10
6.494349
20
33.018110
11
9.669345
21
32.308370
0
LINE
8
Image
10
9.669345
20
32.308370
11
11.198392
21
31.960511
0
LINE
8
Image
10
11.198392
20
31.960511
11
11.433768
21
31.651205
0
LINE
8
Image
10
11.433768
20
31.651205
11
11.485451
21
31.143173
0
LINE
8
Image
10
11.485451
20
31.143173
11
11.710978
21
28.366403
0
LINE
8
Image
10
11.710978
20
28.366403
11
11.815695
21
27.159071
0
LINE
8
Image
10
11.815695
20
27.159071
11
11.746715
21
26.814144
0
LINE
8
Image
10
11.746715
20
26.814144
11
11.546231
21
26.618791
0
LINE
8
Image
10
11.546231
20
26.618791
11
10.598921
21
26.608043
0
LINE
8
Image
10
10.598921
20
26.608043
11
8.670099
21
26.989310
0
LINE
8
Image
10
8.670099
20
26.989310
11
8.670099
21
26.989310
0
LINE
8
Image
10
31.429518
20
28.508713
11
31.661058
21
30.591381
0
LINE
8
Image
10
31.661058
20
30.591381
11
32.001104
21
31.667929
0
LINE
8
Image
10
32.001104
20
31.667929
11
32.300302
21
31.957606
0
LINE
8
Image
10
32.300302
20
31.957606
11
32.732809
21
32.150189
0
LINE
8
Image
10
32.732809
20
32.150189
11
34.139327
21
32.449991
0
LINE
8
Image
10
34.139327
20
32.449991
11
37.120868
21
33.076122
0
LINE
8
Image
10
37.120868
20
33.076122
11
37.888550
21
33.285748
0
LINE
8
Image
10
37.888550
20
33.285748
11
37.093087
21
30.371141
0
LINE
8
Image
10
37.093087
20
30.371141
11
36.532116
21
28.505717
0
LINE
8
Image
10
36.532116
20
28.505717
11
35.918794
21
27.493756
0
LINE
8
Image
10
35.918794
20
27.493756
11
35.479048
21
27.204001
0
LINE
8
Image
10
35.479048
20
27.204001
11
34.890073
21
27.003022
0
LINE
8
Image
10
34.890073
20
27.003022
11
33.082908
21
26.701279
0
LINE
8
Image
10
33.082908
20
26.701279
11
31.223739
21
26.446165
0
LINE
8
Image
10
31.223739
20
26.446165
11
31.429518
21
28.508713
0
LINE
8
Image
10
13.422660
20
32.717701
11
9.233123
21
33.348872
0
LINE
8
Image
10
9.233123
20
33.348872
11
6.577528
21
33.910721
0
LINE
8
Image
10
6.577528
20
33.910721
11
5.183737
21
34.479211
0
LINE
8
Image
10
5.183737
20
34.479211
11
4.874976
21
34.789685
0
LINE
8
Image
10
4.874976
20
34.789685
11
4.779615
21
35.130306
0
LINE
8
Image
10
4.779615
20
35.130306
11
4.933666
21
35.597229
0
LINE
8
Image
10
4.933666
20
35.597229
11
5.408748
21
36.017826
0
LINE
8
Image
10
5.408748
20
36.017826
11
6.224256
21
36.396723
0
LINE
8
Image
10
6.224256
20
36.396723
11
7.399582
21
36.738545
0
LINE
8
Image
10
7.399582
20
36.738545
11
10.907267
21
37.329475
0
LINE
8
Image
10
10.907267
20
37.329475
11
16.086955
21
37.827625
0
LINE
8
Image
10
16.086955
20
37.827625
11
19.435178
21
37.993534
0
LINE
8
Image
10
19.435178
20
37.993534
11
22.920956
21
38.007333
0
LINE
8
Image
10
22.920956
20
38.007333
11
29.686227
21
37.637832
0
LINE
8
Image
10
29.686227
20
37.637832
11
32.656244
21
37.284146
0
LINE
8
Image
10
32.656244
20
37.284146
11
35.144865
21
36.837579
0
LINE
8
Image
10
35.144865
20
36.837579
11
36.997352
21
36.312941
0
LINE
8
Image
10
36.997352
20
36.312941
11
38.058968
21
35.725036
0
LINE
8
Image
10
38.058968
20
35.725036
11
38.427159
21
35.330841
0
LINE
8
Image
10
38.427159
20
35.330841
11
38.528124
21
35.065834
0
LINE
8
Image
10
38.528124
20
35.065834
11
38.343787
21
34.819045
0
LINE
8
Image
10
38.343787
20
34.819045
11
37.856070
21
34.479506
0
LINE
8
Image
10
37.856070
20
34.479506
11
37.076898
21
34.071638
0
LINE
8
Image
10
37.076898
20
34.071638
11
36.059356
21
33.724518
0
LINE
8
Image
10
36.059356
20
33.724518
11
33.178857
21
33.196753
0
LINE
8
Image
10
33.178857
20
33.196753
11
28.953956
21
32.864673
0
LINE
8
Image
10
28.953956
20
32.864673
11
23.124037
21
32.696739
0
LINE
8
Image
10
23.124037
20
32.696739
11
13.422660
21
32.717700
0
LINE
8
Image
10
13.422660
20
32.717700
11
13.422660
21
32.717701
 0 
ENDSEC
 0 
EOF