999
"DXF R12 Output" (www.mydxf.blogspot.com)
 0 
SECTION
 2 
HEADER
 9 
$ACADVER
 1 
AC1009
 9 
$EXTMIN
 10 
 0 
 20 
 0 
 9 
$EXTMAX
 10 
 8.5 
 20 
 11 
 0 
ENDSEC
 0 
SECTION
 2 
ENTITIES
0
LINE
8
Image
10
15.000000
20
110.522000
11
15.000000
21
20.000000
0
LINE
8
Image
10
15.000000
20
20.000000
11
182.000000
21
20.000000
0
LINE
8
Image
10
182.000000
20
20.000000
11
349.000000
21
20.000000
0
LINE
8
Image
10
349.000000
20
20.000000
11
349.000000
21
110.500000
0
LINE
8
Image
10
349.000000
20
110.500000
11
349.000000
21
201.000000
0
LINE
8
Image
10
349.000000
20
201.000000
11
329.655800
21
201.000000
0
LINE
8
Image
10
329.655800
20
201.000000
11
310.311600
21
201.000000
0
LINE
8
Image
10
310.311600
20
201.000000
11
309.699210
21
181.750000
0
LINE
8
Image
10
309.699210
20
181.750000
11
309.335729
21
173.565562
0
LINE
8
Image
10
309.335729
20
173.565562
11
308.799151
21
165.512000
0
LINE
8
Image
10
308.799151
20
165.512000
11
308.161550
21
158.515938
0
LINE
8
Image
10
308.161550
20
158.515938
11
307.495000
21
153.504000
0
LINE
8
Image
10
307.495000
20
153.504000
11
306.568413
21
148.798253
0
LINE
8
Image
10
306.568413
20
148.798253
11
305.467207
21
144.160146
0
LINE
8
Image
10
305.467207
20
144.160146
11
304.194562
21
139.592877
0
LINE
8
Image
10
304.194562
20
139.592877
11
302.753656
21
135.099648
0
LINE
8
Image
10
302.753656
20
135.099648
11
301.147668
21
130.683658
0
LINE
8
Image
10
301.147668
20
130.683658
11
299.379777
21
126.348106
0
LINE
8
Image
10
299.379777
20
126.348106
11
297.453162
21
122.096193
0
LINE
8
Image
10
297.453162
20
122.096193
11
295.371000
21
117.931117
0
LINE
8
Image
10
295.371000
20
117.931117
11
293.136471
21
113.856080
0
LINE
8
Image
10
293.136471
20
113.856080
11
290.752754
21
109.874280
0
LINE
8
Image
10
290.752754
20
109.874280
11
288.223027
21
105.988918
0
LINE
8
Image
10
288.223027
20
105.988918
11
285.550469
21
102.203193
0
LINE
8
Image
10
285.550469
20
102.203193
11
282.738258
21
98.520305
0
LINE
8
Image
10
282.738258
20
98.520305
11
279.789574
21
94.943455
0
LINE
8
Image
10
279.789574
20
94.943455
11
276.707595
21
91.475840
0
LINE
8
Image
10
276.707595
20
91.475840
11
273.495500
21
88.120662
0
LINE
8
Image
10
273.495500
20
88.120662
11
270.156467
21
84.881121
0
LINE
8
Image
10
270.156467
20
84.881121
11
266.693676
21
81.760415
0
LINE
8
Image
10
266.693676
20
81.760415
11
263.110304
21
78.761746
0
LINE
8
Image
10
263.110304
20
78.761746
11
259.409531
21
75.888312
0
LINE
8
Image
10
259.409531
20
75.888312
11
255.594536
21
73.143313
0
LINE
8
Image
10
255.594536
20
73.143313
11
251.668496
21
70.529949
0
LINE
8
Image
10
251.668496
20
70.529949
11
247.634591
21
68.051420
0
LINE
8
Image
10
247.634591
20
68.051420
11
243.496000
21
65.710927
0
LINE
8
Image
10
243.496000
20
65.710927
11
239.255901
21
63.511667
0
LINE
8
Image
10
239.255901
20
63.511667
11
234.917473
21
61.456842
0
LINE
8
Image
10
234.917473
20
61.456842
11
230.483894
21
59.549651
0
LINE
8
Image
10
230.483894
20
59.549651
11
225.958344
21
57.793294
0
LINE
8
Image
10
225.958344
20
57.793294
11
221.344000
21
56.190970
0
LINE
8
Image
10
221.344000
20
56.190970
11
216.644043
21
54.745880
0
LINE
8
Image
10
216.644043
20
54.745880
11
211.861650
21
53.461224
0
LINE
8
Image
10
211.861650
20
53.461224
11
207.000000
21
52.340200
0
LINE
8
Image
10
207.000000
20
52.340200
11
201.884902
21
51.514336
0
LINE
8
Image
10
201.884902
20
51.514336
11
195.689887
21
50.924433
0
LINE
8
Image
10
195.689887
20
50.924433
11
188.774930
21
50.570491
0
LINE
8
Image
10
188.774930
20
50.570491
11
181.500000
21
50.452510
0
LINE
8
Image
10
181.500000
20
50.452510
11
174.225070
21
50.570491
0
LINE
8
Image
10
174.225070
20
50.570491
11
167.310113
21
50.924433
0
LINE
8
Image
10
167.310113
20
50.924433
11
161.115098
21
51.514336
0
LINE
8
Image
10
161.115098
20
51.514336
11
156.000000
21
52.340200
0
LINE
8
Image
10
156.000000
20
52.340200
11
146.881471
21
54.574839
0
LINE
8
Image
10
146.881471
20
54.574839
11
142.449824
21
55.892469
0
LINE
8
Image
10
142.449824
20
55.892469
11
138.102612
21
57.343973
0
LINE
8
Image
10
138.102612
20
57.343973
11
133.839354
21
58.929599
0
LINE
8
Image
10
133.839354
20
58.929599
11
129.659566
21
60.649597
0
LINE
8
Image
10
129.659566
20
60.649597
11
125.562767
21
62.504216
0
LINE
8
Image
10
125.562767
20
62.504216
11
121.548475
21
64.493706
0
LINE
8
Image
10
121.548475
20
64.493706
11
117.616207
21
66.618316
0
LINE
8
Image
10
117.616207
20
66.618316
11
113.765480
21
68.878296
0
LINE
8
Image
10
113.765480
20
68.878296
11
109.995814
21
71.273895
0
LINE
8
Image
10
109.995814
20
71.273895
11
106.306725
21
73.805362
0
LINE
8
Image
10
106.306725
20
73.805362
11
102.697731
21
76.472946
0
LINE
8
Image
10
102.697731
20
76.472946
11
99.168351
21
79.276898
0
LINE
8
Image
10
99.168351
20
79.276898
11
95.718101
21
82.217466
0
LINE
8
Image
10
95.718101
20
82.217466
11
92.346500
21
85.294900
0
LINE
8
Image
10
92.346500
20
85.294900
11
86.056166
21
91.593962
0
LINE
8
Image
10
86.056166
20
91.593962
11
80.382612
21
98.048961
0
LINE
8
Image
10
80.382612
20
98.048961
11
75.290516
21
104.718421
0
LINE
8
Image
10
75.290516
20
104.718421
11
72.951474
21
108.151861
0
LINE
8
Image
10
72.951474
20
108.151861
11
70.744550
21
111.660863
0
LINE
8
Image
10
70.744550
20
111.660863
11
68.665327
21
115.252740
0
LINE
8
Image
10
68.665327
20
115.252740
11
66.709391
21
118.934809
0
LINE
8
Image
10
66.709391
20
118.934809
11
63.149712
21
126.598783
0
LINE
8
Image
10
63.149712
20
126.598783
11
60.030191
21
134.711306
0
LINE
8
Image
10
60.030191
20
134.711306
11
57.315500
21
143.330900
0
LINE
8
Image
10
57.315500
20
143.330900
11
55.895551
21
148.960905
0
LINE
8
Image
10
55.895551
20
148.960905
11
55.407811
21
151.740561
0
LINE
8
Image
10
55.407811
20
151.740561
11
55.032061
21
154.870469
0
LINE
8
Image
10
55.032061
20
154.870469
11
54.508039
21
163.302498
0
LINE
8
Image
10
54.508039
20
163.302498
11
54.106490
21
176.499900
0
LINE
8
Image
10
54.106490
20
176.499900
11
53.500000
21
200.500000
0
LINE
8
Image
10
53.500000
20
200.500000
11
34.250000
21
200.772000
0
LINE
8
Image
10
34.250000
20
200.772000
11
15.000000
21
201.043000
0
LINE
8
Image
10
15.000000
20
201.043000
11
15.000000
21
110.522000
 0 
ENDSEC
 0 
EOF