999
"DXF R12 Output" (www.mydxf.blogspot.com)
 0 
SECTION
 2 
HEADER
 9 
$ACADVER
 1 
AC1009
 9 
$EXTMIN
 10 
 0 
 20 
 0 
 9 
$EXTMAX
 10 
 8.5 
 20 
 11 
 0 
ENDSEC
 0 
SECTION
 2 
ENTITIES
0
LINE
8
Image
10
66.835900
20
13.500000
11
53.306600
21
43.466800
0
LINE
8
Image
10
53.306600
20
43.466800
11
47.284288
21
29.025325
0
LINE
8
Image
10
47.284288
20
29.025325
11
43.052127
21
19.264928
0
LINE
8
Image
10
43.052127
20
19.264928
11
41.592049
21
16.168154
0
LINE
8
Image
10
41.592049
20
16.168154
11
41.146168
21
15.367915
0
LINE
8
Image
10
41.146168
20
15.367915
11
40.935500
21
15.181600
0
LINE
8
Image
10
40.935500
20
15.181600
11
35.847574
21
30.130215
0
LINE
8
Image
10
35.847574
20
30.130215
11
31.056590
21
44.535100
0
LINE
8
Image
10
31.056590
20
44.535100
11
23.759590
21
29.869200
0
LINE
8
Image
10
23.759590
20
29.869200
11
18.699028
21
19.830269
0
LINE
8
Image
10
18.699028
20
19.830269
11
16.306590
21
15.359300
0
LINE
8
Image
10
16.306590
20
15.359300
11
16.280571
21
16.877691
0
LINE
8
Image
10
16.280571
20
16.877691
11
16.489249
21
20.732309
0
LINE
8
Image
10
16.489249
20
20.732309
11
17.458930
21
33.119100
0
LINE
8
Image
10
17.458930
20
33.119100
11
18.053317
21
41.189544
0
LINE
8
Image
10
18.053317
20
41.189544
11
18.540866
21
50.314750
0
LINE
8
Image
10
18.540866
20
50.314750
11
18.871240
21
59.374856
0
LINE
8
Image
10
18.871240
20
59.374856
11
18.994100
21
67.250000
0
LINE
8
Image
10
18.994100
20
67.250000
11
19.000000
21
84.000000
0
LINE
8
Image
10
19.000000
20
84.000000
11
115.000000
21
84.000000
0
LINE
8
Image
10
115.000000
20
84.000000
11
115.008000
21
66.250000
0
LINE
8
Image
10
115.008000
20
66.250000
11
115.119992
21
55.461688
0
LINE
8
Image
10
115.119992
20
55.461688
11
115.507840
21
45.346800
0
LINE
8
Image
10
115.507840
20
45.346800
11
116.267350
21
34.121012
0
LINE
8
Image
10
116.267350
20
34.121012
11
117.494330
21
20.000000
0
LINE
8
Image
10
117.494330
20
20.000000
11
118.002140
21
14.500000
0
LINE
8
Image
10
118.002140
20
14.500000
11
102.388840
21
44.720700
0
LINE
8
Image
10
102.388840
20
44.720700
11
97.588202
21
29.587063
0
LINE
8
Image
10
97.588202
20
29.587063
11
92.638840
21
14.304700
0
LINE
8
Image
10
92.638840
20
14.304700
11
90.586184
21
18.905184
0
LINE
8
Image
10
90.586184
20
18.905184
11
86.263679
21
29.219589
0
LINE
8
Image
10
86.263679
20
29.219589
11
80.037240
21
44.283200
0
LINE
8
Image
10
80.037240
20
44.283200
11
66.835900
21
13.500000
 0 
ENDSEC
 0 
EOF