  0
SECTION
  2
HEADER
  9
$ACADVER
  1
AC1014
  9
$HANDSEED
  5
FFFF
  9
$MEASUREMENT
 70
     1
  0
ENDSEC
  0
SECTION
  2
TABLES
  0
TABLE
  2
VPORT
  5
8
330
0
100
AcDbSymbolTable
 70
     4
  0
VPORT
  5
2E
330
8
100
AcDbSymbolTableRecord
100
AcDbViewportTableRecord
  2
*ACTIVE
 70
     0
 10
0.0
 20
0.0
 11
1.0
 21
1.0
 12
210.0
 22
148.5
 13
0.0
 23
0.0
 14
10.0
 24
10.0
 15
10.0
 25
10.0
 16
0.0
 26
0.0
 36
1.0
 17
0.0
 27
0.0
 37
0.0
 40
341.0
 41
1.24
 42
50.0
 43
0.0
 44
0.0
 50
0.0
 51
0.0
 71
     0
 72
   100
 73
     1
 74
     3
 75
     0
 76
     0
 77
     0
 78
     0
  0
ENDTAB
  0
TABLE
  2
LTYPE
  5
5
330
0
100
AcDbSymbolTable
 70
     1
  0
LTYPE
  5
14
330
5
100
AcDbSymbolTableRecord
100
AcDbLinetypeTableRecord
  2
BYBLOCK
 70
     0
  3

 72
    65
 73
     0
 40
0.0
  0
LTYPE
  5
15
330
5
100
AcDbSymbolTableRecord
100
AcDbLinetypeTableRecord
  2
BYLAYER
 70
     0
  3

 72
    65
 73
     0
 40
0.0
  0
LTYPE
  5
16
330
5
100
AcDbSymbolTableRecord
100
AcDbLinetypeTableRecord
  2
CONTINUOUS
 70
     0
  3
Solid line
 72
    65
 73
     0
 40
0.0
  0
ENDTAB
  0
TABLE
  2
LAYER
  5
2
100
AcDbSymbolTable
 70
1
  0
LAYER
  5
50
100
AcDbSymbolTableRecord
100
AcDbLayerTableRecord
  2
0
 70
0
  6
CONTINUOUS
  0
ENDTAB
  0
TABLE
  2
STYLE
  5
3
330
0
100
AcDbSymbolTable
 70
     1
  0
STYLE
  5
11
330
3
100
AcDbSymbolTableRecord
100
AcDbTextStyleTableRecord
  2
STANDARD
 70
     0
 40
0.0
 41
1.0
 50
0.0
 71
     0
 42
2.5
  3
txt
  4

  0
ENDTAB
  0
TABLE
  2
VIEW
  5
6
330
0
100
AcDbSymbolTable
 70
     0
  0
ENDTAB
  0
TABLE
  2
UCS
  5
7
330
0
100
AcDbSymbolTable
 70
     0
  0
ENDTAB
  0
TABLE
  2
APPID
  5
9
330
0
100
AcDbSymbolTable
 70
     2
  0
APPID
  5
12
330
9
100
AcDbSymbolTableRecord
100
AcDbRegAppTableRecord
  2
ACAD
 70
     0
  0
ENDTAB
  0
TABLE
  2
DIMSTYLE
  5
A
330
0
100
AcDbSymbolTable
 70
     1
  0
DIMSTYLE
105
27
330
A
100
AcDbSymbolTableRecord
100
AcDbDimStyleTableRecord
  2
ISO-25
 70
     0
  3

  4

  5

  6

  7

 40
1.0
 41
2.5
 42
0.625
 43
3.75
 44
1.25
 45
0.0
 46
0.0
 47
0.0
 48
0.0
140
2.5
141
2.5
142
0.0
143
0.03937007874016
144
1.0
145
0.0
146
1.0
147
0.625
 71
     0
 72
     0
 73
     0
 74
     0
 75
     0
 76
     0
 77
     1
 78
     8
170
     0
171
     3
172
     1
173
     0
174
     0
175
     0
176
     0
177
     0
178
     0
270
     2
271
     2
272
     2
273
     2
274
     3
340
11
275
     0
280
     0
281
     0
282
     0
283
     0
284
     8
285
     0
286
     0
287
     3
288
     0
  0
ENDTAB
  0
TABLE
  2
BLOCK_RECORD
  5
1
330
0
100
AcDbSymbolTable
 70
     1
  0
BLOCK_RECORD
  5
1F
330
1
100
AcDbSymbolTableRecord
100
AcDbBlockTableRecord
  2
*MODEL_SPACE
  0
BLOCK_RECORD
  5
1B
330
1
100
AcDbSymbolTableRecord
100
AcDbBlockTableRecord
  2
*PAPER_SPACE
  0
ENDTAB
  0
ENDSEC
  0
SECTION
  2
BLOCKS
  0
BLOCK
  5
20
330
1F
100
AcDbEntity
  8
0
100
AcDbBlockBegin
  2
*MODEL_SPACE
 70
     0
 10
0.0
 20
0.0
 30
0.0
  3
*MODEL_SPACE
  1

  0
ENDBLK
  5
21
330
1F
100
AcDbEntity
  8
0
100
AcDbBlockEnd
  0
BLOCK
  5
1C
330
1B
100
AcDbEntity
 67
     1
  8
0
100
AcDbBlockBegin
  2
*PAPER_SPACE
  1

  0
ENDBLK
  5
1D
330
1B
100
AcDbEntity
 67
     1
  8
0
100
AcDbBlockEnd
  0
ENDSEC
  0
SECTION
  2
ENTITIES
  0
LWPOLYLINE
  5
100
100
AcDbEntity
  8
0
 62
7
100
AcDbPolyline
 90
26
 70
1
 10
18.935813
 20
87.315525
 30
0.0
 10
18.435780
 20
87.173175
 30
0.0
 10
17.593058
 20
86.799750
 30
0.0
 10
16.832093
 20
86.278950
 30
0.0
 10
16.158315
 20
85.648875
 30
0.0
 10
15.565095
 20
84.942000
 30
0.0
 10
15.041430
 20
84.182025
 30
0.0
 10
14.672123
 20
83.582250
 30
0.0
 10
14.440043
 20
82.917975
 30
0.0
 10
14.381618
 20
82.217025
 30
0.0
 10
14.251290
 20
81.410850
 30
0.0
 10
14.274165
 20
80.598600
 30
0.0
 10
14.733803
 20
79.947975
 30
0.0
 10
15.355598
 20
80.050725
 30
0.0
 10
15.966713
 20
80.203275
 30
0.0
 10
16.685655
 20
80.476200
 30
0.0
 10
17.288273
 20
80.956200
 30
0.0
 10
17.772398
 20
81.557250
 30
0.0
 10
18.169583
 20
82.219650
 30
0.0
 10
18.651263
 20
83.016075
 30
0.0
 10
19.093493
 20
83.834775
 30
0.0
 10
19.447245
 20
84.694950
 30
0.0
 10
19.653563
 20
85.601025
 30
0.0
 10
19.567538
 20
86.266200
 30
0.0
 10
19.415198
 20
86.918325
 30
0.0
 10
18.935835
 20
87.315525
 30
0.0
  0
LWPOLYLINE
  5
101
100
AcDbEntity
  8
0
 62
7
100
AcDbPolyline
 90
25
 70
0
 10
9.137355
 20
87.182250
 30
0.0
 10
8.611433
 20
86.860575
 30
0.0
 10
8.446088
 20
85.970175
 30
0.0
 10
8.444588
 20
85.063575
 30
0.0
 10
8.557838
 20
84.163725
 30
0.0
 10
8.738903
 20
83.274600
 30
0.0
 10
9.146393
 20
82.494525
 30
0.0
 10
9.607928
 20
81.745275
 30
0.0
 10
10.143038
 20
81.046950
 30
0.0
 10
10.770435
 20
80.430675
 30
0.0
 10
11.500455
 20
79.941675
 30
0.0
 10
12.321023
 20
79.628625
 30
0.0
 10
12.976088
 20
80.188575
 30
0.0
 10
13.309350
 20
80.985075
 30
0.0
 10
13.335600
 20
81.851175
 30
0.0
 10
13.127595
 20
82.693650
 30
0.0
 10
12.755730
 20
83.367150
 30
0.0
 10
12.328928
 20
84.007875
 30
0.0
 10
11.906768
 20
84.651525
 30
0.0
 10
11.473148
 20
85.322625
 30
0.0
 10
10.979460
 20
85.950825
 30
0.0
 10
10.466325
 20
86.563425
 30
0.0
 10
9.850688
 20
86.985975
 30
0.0
 10
9.137123
 20
87.182250
 30
0.0
 10
9.137123
 20
87.182250
 30
0.0
  0
LWPOLYLINE
  5
102
100
AcDbEntity
  8
0
 62
7
100
AcDbPolyline
 90
35
 70
0
 10
5.252138
 20
82.359300
 30
0.0
 10
5.042880
 20
82.351050
 30
0.0
 10
4.391310
 20
81.792375
 30
0.0
 10
4.506480
 20
80.840925
 30
0.0
 10
4.768605
 20
79.914000
 30
0.0
 10
4.989735
 20
78.992775
 30
0.0
 10
5.265630
 20
78.086550
 30
0.0
 10
5.616203
 20
77.206650
 30
0.0
 10
6.060233
 20
76.370175
 30
0.0
 10
6.611648
 20
75.600750
 30
0.0
 10
7.226138
 20
74.999400
 30
0.0
 10
7.828200
 20
74.385525
 30
0.0
 10
8.456220
 20
73.798500
 30
0.0
 10
9.145028
 20
73.285125
 30
0.0
 10
9.917138
 20
72.910575
 30
0.0
 10
10.757865
 20
72.743025
 30
0.0
 10
11.515058
 20
72.776025
 30
0.0
 10
12.203820
 20
73.089450
 30
0.0
 10
12.686063
 20
73.670025
 30
0.0
 10
12.863663
 20
74.510550
 30
0.0
 10
12.758408
 20
75.364725
 30
0.0
 10
12.461318
 20
76.174500
 30
0.0
 10
12.061988
 20
76.939950
 30
0.0
 10
11.621745
 20
77.683125
 30
0.0
 10
11.068193
 20
78.292950
 30
0.0
 10
10.527090
 20
78.913650
 30
0.0
 10
9.985163
 20
79.533600
 30
0.0
 10
9.423398
 20
80.135700
 30
0.0
 10
8.822708
 20
80.698650
 30
0.0
 10
8.172353
 20
81.203100
 30
0.0
 10
7.494652
 20
81.621750
 30
0.0
 10
6.789780
 20
81.992175
 30
0.0
 10
6.040552
 20
82.260000
 30
0.0
 10
5.252137
 20
82.359150
 30
0.0
 10
5.252137
 20
82.359150
 30
0.0
  0
LWPOLYLINE
  5
103
100
AcDbEntity
  8
0
 62
7
100
AcDbPolyline
 90
36
 70
1
 10
22.931062
 20
82.244250
 30
0.0
 10
22.160918
 20
82.194000
 30
0.0
 10
21.406080
 20
82.032600
 30
0.0
 10
20.679997
 20
81.770325
 30
0.0
 10
19.988220
 20
81.427125
 30
0.0
 10
19.317120
 20
80.988900
 30
0.0
 10
18.693757
 20
80.484450
 30
0.0
 10
18.104962
 20
79.939950
 30
0.0
 10
17.541232
 20
79.369500
 30
0.0
 10
16.994932
 20
78.782550
 30
0.0
 10
16.401307
 20
78.140625
 30
0.0
 10
15.821377
 20
77.486325
 30
0.0
 10
15.287572
 20
76.794375
 30
0.0
 10
14.843655
 20
76.042275
 30
0.0
 10
14.561347
 20
75.217275
 30
0.0
 10
14.535172
 20
74.347425
 30
0.0
 10
14.802060
 20
73.518900
 30
0.0
 10
15.462802
 20
73.021425
 30
0.0
 10
16.270320
 20
72.845400
 30
0.0
 10
17.090520
 20
72.970200
 30
0.0
 10
17.858407
 20
73.288950
 30
0.0
 10
18.564457
 20
73.729275
 30
0.0
 10
19.207980
 20
74.256975
 30
0.0
 10
19.923712
 20
74.846250
 30
0.0
 10
20.629920
 20
75.446475
 30
0.0
 10
21.284453
 20
76.102125
 30
0.0
 10
21.831697
 20
76.848750
 30
0.0
 10
22.211625
 20
77.692125
 30
0.0
 10
22.640040
 20
78.512625
 30
0.0
 10
23.044837
 20
79.344900
 30
0.0
 10
23.400262
 20
80.199075
 30
0.0
 10
23.677732
 20
81.081600
 30
0.0
 10
23.846940
 20
81.990825
 30
0.0
 10
23.719395
 20
82.194000
 30
0.0
 10
23.390062
 20
82.222500
 30
0.0
 10
22.931077
 20
82.244250
 30
0.0
  0
LWPOLYLINE
  5
104
100
AcDbEntity
  8
0
 62
7
100
AcDbPolyline
 90
42
 70
0
 10
25.913047
 20
76.130475
 30
0.0
 10
25.082797
 20
75.650250
 30
0.0
 10
24.228322
 20
75.214275
 30
0.0
 10
23.358412
 20
74.809950
 30
0.0
 10
22.480357
 20
74.424000
 30
0.0
 10
21.600120
 20
74.042475
 30
0.0
 10
20.724067
 20
73.651875
 30
0.0
 10
19.858612
 20
73.238250
 30
0.0
 10
19.011472
 20
72.788325
 30
0.0
 10
18.192188
 20
72.289800
 30
0.0
 10
17.523518
 20
71.727975
 30
0.0
 10
16.892970
 20
71.123775
 30
0.0
 10
16.308450
 20
70.474950
 30
0.0
 10
15.781020
 20
69.779100
 30
0.0
 10
15.325215
 20
69.034350
 30
0.0
 10
14.959680
 20
68.241675
 30
0.0
 10
14.705835
 20
67.406850
 30
0.0
 10
14.584020
 20
66.542775
 30
0.0
 10
14.607195
 20
65.670675
 30
0.0
 10
15.050640
 20
64.930950
 30
0.0
 10
15.790447
 20
64.485300
 30
0.0
 10
16.645732
 20
64.337400
 30
0.0
 10
17.512545
 20
64.404900
 30
0.0
 10
18.347940
 20
64.646250
 30
0.0
 10
19.156582
 20
64.991700
 30
0.0
 10
19.927417
 20
65.414775
 30
0.0
 10
20.655030
 20
65.908425
 30
0.0
 10
21.335617
 20
66.465225
 30
0.0
 10
21.966382
 20
67.078050
 30
0.0
 10
22.545345
 20
67.740075
 30
0.0
 10
23.070930
 20
68.445225
 30
0.0
 10
23.541682
 20
69.187950
 30
0.0
 10
23.956275
 20
69.963675
 30
0.0
 10
24.388605
 20
70.680600
 30
0.0
 10
24.798157
 20
71.410725
 30
0.0
 10
25.170952
 20
72.160425
 30
0.0
 10
25.491210
 20
72.933825
 30
0.0
 10
25.741702
 20
73.732350
 30
0.0
 10
25.905000
 20
74.553150
 30
0.0
 10
26.321070
 20
75.392775
 30
0.0
 10
25.913055
 20
76.130325
 30
0.0
 10
25.913055
 20
76.130325
 30
0.0
  0
LWPOLYLINE
  5
105
100
AcDbEntity
  8
0
 62
7
100
AcDbPolyline
 90
42
 70
0
 10
1.996680
 20
75.971475
 30
0.0
 10
1.194172
 20
75.792750
 30
0.0
 10
1.240372
 20
74.980950
 30
0.0
 10
1.403370
 20
74.183925
 30
0.0
 10
1.648575
 20
73.408050
 30
0.0
 10
1.942590
 20
72.649050
 30
0.0
 10
2.255227
 20
71.897400
 30
0.0
 10
2.661982
 20
71.134650
 30
0.0
 10
3.061920
 20
70.368375
 30
0.0
 10
3.470242
 20
69.606375
 30
0.0
 10
3.901732
 20
68.857425
 30
0.0
 10
4.370677
 20
68.131425
 30
0.0
 10
4.889835
 20
67.440450
 30
0.0
 10
5.406450
 20
66.746325
 30
0.0
 10
6.041340
 20
66.157725
 30
0.0
 10
6.751380
 20
65.661600
 30
0.0
 10
7.502085
 20
65.228925
 30
0.0
 10
8.269492
 20
64.826175
 30
0.0
 10
9.034522
 20
64.418775
 30
0.0
 10
9.937702
 20
64.400025
 30
0.0
 10
10.840642
 20
64.392525
 30
0.0
 10
11.680455
 20
64.699950
 30
0.0
 10
12.306877
 20
65.289450
 30
0.0
 10
12.487687
 20
66.131550
 30
0.0
 10
12.324735
 20
66.985725
 30
0.0
 10
12.006518
 20
67.797375
 30
0.0
 10
11.585693
 20
68.662500
 30
0.0
 10
11.213385
 20
69.549975
 30
0.0
 10
10.740810
 20
70.386525
 30
0.0
 10
10.176330
 20
71.065650
 30
0.0
 10
9.506798
 20
71.645250
 30
0.0
 10
8.860560
 20
72.250500
 30
0.0
 10
8.208060
 20
72.852675
 30
0.0
 10
7.502850
 20
73.392675
 30
0.0
 10
6.763170
 20
73.884600
 30
0.0
 10
6.002040
 20
74.342625
 30
0.0
 10
5.229038
 20
74.780475
 30
0.0
 10
4.451948
 20
75.211200
 30
0.0
 10
3.662700
 20
75.563325
 30
0.0
 10
2.849940
 20
75.855075
 30
0.0
 10
1.996673
 20
75.970875
 30
0.0
 10
1.996673
 20
75.970875
 30
0.0
  0
LWPOLYLINE
  5
106
100
AcDbEntity
  8
0
 62
7
100
AcDbPolyline
 90
3
 70
1
 10
19.186500
 20
73.894275
 30
0.0
 10
19.175550
 20
73.885275
 30
0.0
 10
19.186500
 20
73.894275
 30
0.0
  0
LWPOLYLINE
  5
107
100
AcDbEntity
  8
0
 62
7
100
AcDbPolyline
 90
3
 70
1
 10
18.831660
 20
73.056450
 30
0.0
 10
18.829410
 20
73.055700
 30
0.0
 10
18.831660
 20
73.056450
 30
0.0
  0
LWPOLYLINE
  5
108
100
AcDbEntity
  8
0
 62
7
100
AcDbPolyline
 90
46
 70
0
 10
27.077303
 20
67.564350
 30
0.0
 10
26.126933
 20
67.361025
 30
0.0
 10
25.197510
 20
67.076850
 30
0.0
 10
24.292493
 20
66.722475
 30
0.0
 10
23.410703
 20
66.313125
 30
0.0
 10
22.548045
 20
65.865225
 30
0.0
 10
21.698100
 20
65.393250
 30
0.0
 10
20.854808
 20
64.909425
 30
0.0
 10
20.112413
 20
64.438125
 30
0.0
 10
19.363110
 20
63.977850
 30
0.0
 10
18.618278
 20
63.510450
 30
0.0
 10
17.889540
 20
63.018675
 30
0.0
 10
17.190743
 20
62.485350
 30
0.0
 10
16.540223
 20
61.894350
 30
0.0
 10
15.961733
 20
61.233150
 30
0.0
 10
15.482355
 20
60.496875
 30
0.0
 10
15.125820
 20
59.694225
 30
0.0
 10
14.696123
 20
58.856550
 30
0.0
 10
14.357378
 20
57.978300
 30
0.0
 10
14.151143
 20
57.060375
 30
0.0
 10
14.161043
 20
56.122050
 30
0.0
 10
14.509185
 20
55.255050
 30
0.0
 10
15.202718
 20
54.628500
 30
0.0
 10
16.098195
 20
54.354975
 30
0.0
 10
17.034608
 20
54.333225
 30
0.0
 10
17.951393
 20
54.530175
 30
0.0
 10
18.819975
 20
54.885825
 30
0.0
 10
19.636440
 20
55.349400
 30
0.0
 10
20.407253
 20
55.886025
 30
0.0
 10
21.141338
 20
56.471925
 30
0.0
 10
21.790515
 20
57.094275
 30
0.0
 10
22.407773
 20
57.748575
 30
0.0
 10
22.994505
 20
58.430250
 30
0.0
 10
23.552753
 20
59.135475
 30
0.0
 10
24.084900
 20
59.860650
 30
0.0
 10
24.593393
 20
60.602625
 30
0.0
 10
25.080833
 20
61.358625
 30
0.0
 10
25.549943
 20
62.126100
 30
0.0
 10
25.939643
 20
62.934600
 30
0.0
 10
26.255333
 20
63.774825
 30
0.0
 10
26.507400
 20
64.636350
 30
0.0
 10
26.712893
 20
65.510325
 30
0.0
 10
26.892578
 20
66.390000
 30
0.0
 10
27.068648
 20
67.270425
 30
0.0
 10
27.077273
 20
67.564500
 30
0.0
 10
27.077273
 20
67.564500
 30
0.0
  0
LWPOLYLINE
  5
109
100
AcDbEntity
  8
0
 62
7
100
AcDbPolyline
 90
43
 70
0
 10
0.146693
 20
66.783450
 30
0.0
 10
0.293903
 20
65.877300
 30
0.0
 10
0.494198
 20
64.981500
 30
0.0
 10
0.745733
 20
64.098600
 30
0.0
 10
1.046408
 20
63.231150
 30
0.0
 10
1.393988
 20
62.381550
 30
0.0
 10
1.786253
 20
61.551525
 30
0.0
 10
2.220923
 20
60.743025
 30
0.0
 10
2.695935
 20
59.957400
 30
0.0
 10
3.209190
 20
59.196150
 30
0.0
 10
3.758633
 20
58.460700
 30
0.0
 10
4.342440
 20
57.752250
 30
0.0
 10
4.958903
 20
57.072000
 30
0.0
 10
5.606333
 20
56.421150
 30
0.0
 10
6.283170
 20
55.800975
 30
0.0
 10
6.987953
 20
55.212900
 30
0.0
 10
7.670768
 20
54.922800
 30
0.0
 10
8.353590
 20
54.632700
 30
0.0
 10
9.217583
 20
54.399150
 30
0.0
 10
10.110128
 20
54.340650
 30
0.0
 10
10.996897
 20
54.557250
 30
0.0
 10
11.758740
 20
55.054725
 30
0.0
 10
12.263190
 20
55.812000
 30
0.0
 10
12.483870
 20
56.697525
 30
0.0
 10
12.486870
 20
57.611850
 30
0.0
 10
12.332985
 20
58.513725
 30
0.0
 10
12.057255
 20
59.386350
 30
0.0
 10
11.675497
 20
60.218175
 30
0.0
 10
11.188732
 20
60.993075
 30
0.0
 10
10.582747
 20
61.677750
 30
0.0
 10
9.819562
 20
62.294925
 30
0.0
 10
9.038677
 20
62.889750
 30
0.0
 10
8.239147
 20
63.459225
 30
0.0
 10
7.420005
 20
64.000050
 30
0.0
 10
6.580492
 20
64.508700
 30
0.0
 10
5.720115
 20
64.980975
 30
0.0
 10
4.838557
 20
65.412675
 30
0.0
 10
3.936180
 20
65.798700
 30
0.0
 10
3.013792
 20
66.134025
 30
0.0
 10
2.073060
 20
66.413400
 30
0.0
 10
1.116135
 20
66.631575
 30
0.0
 10
0.146707
 20
66.783750
 30
0.0
 10
0.146707
 20
66.783750
 30
0.0
  0
LWPOLYLINE
  5
10a
100
AcDbEntity
  8
0
 62
7
100
AcDbPolyline
 90
47
 70
0
 10
26.903317
 20
57.342975
 30
0.0
 10
26.077905
 20
57.145950
 30
0.0
 10
25.316490
 20
56.765100
 30
0.0
 10
24.649432
 20
56.238000
 30
0.0
 10
24.195630
 20
56.081700
 30
0.0
 10
24.148230
 20
56.065200
 30
0.0
 10
23.299905
 20
55.773225
 30
0.0
 10
22.454070
 20
55.474050
 30
0.0
 10
21.614430
 20
55.158450
 30
0.0
 10
20.784945
 20
54.816975
 30
0.0
 10
19.970820
 20
54.440550
 30
0.0
 10
19.178520
 20
54.019950
 30
0.0
 10
18.416662
 20
53.546550
 30
0.0
 10
17.695530
 20
53.013375
 30
0.0
 10
17.026972
 20
52.415850
 30
0.0
 10
16.422765
 20
51.753450
 30
0.0
 10
15.763110
 20
51.032250
 30
0.0
 10
15.217387
 20
50.221125
 30
0.0
 10
14.781960
 20
49.345575
 30
0.0
 10
14.469330
 20
48.419250
 30
0.0
 10
14.310352
 20
47.455125
 30
0.0
 10
14.360602
 20
46.480425
 30
0.0
 10
14.692537
 20
45.565050
 30
0.0
 10
15.328695
 20
44.829225
 30
0.0
 10
16.176705
 20
44.348250
 30
0.0
 10
17.027985
 20
44.393250
 30
0.0
 10
17.828347
 20
44.700150
 30
0.0
 10
18.595927
 20
45.085125
 30
0.0
 10
19.449262
 20
45.461850
 30
0.0
 10
20.261145
 20
45.921150
 30
0.0
 10
21.024960
 20
46.456725
 30
0.0
 10
21.736785
 20
47.059800
 30
0.0
 10
22.395607
 20
47.720325
 30
0.0
 10
23.003085
 20
48.428625
 30
0.0
 10
23.562547
 20
49.175400
 30
0.0
 10
24.078457
 20
49.953000
 30
0.0
 10
24.555945
 20
50.754900
 30
0.0
 10
25.000155
 20
51.575700
 30
0.0
 10
25.416263
 20
52.410975
 30
0.0
 10
25.809458
 20
53.257275
 30
0.0
 10
26.184885
 20
54.111750
 30
0.0
 10
26.547608
 20
54.971700
 30
0.0
 10
26.902943
 20
55.834575
 30
0.0
 10
27.253605
 20
56.399850
 30
0.0
 10
27.419850
 20
57.034500
 30
0.0
 10
26.903325
 20
57.342675
 30
0.0
 10
26.903325
 20
57.342675
 30
0.0
  0
LWPOLYLINE
  5
10b
100
AcDbEntity
  8
0
 62
7
100
AcDbPolyline
 90
43
 70
1
 10
2.340953
 20
56.897325
 30
0.0
 10
1.664618
 20
56.771100
 30
0.0
 10
1.096583
 20
56.383500
 30
0.0
 10
0.691635
 20
55.824750
 30
0.0
 10
0.543315
 20
54.920175
 30
0.0
 10
0.593790
 20
54.004800
 30
0.0
 10
0.825173
 20
53.117250
 30
0.0
 10
1.193895
 20
52.276725
 30
0.0
 10
1.655445
 20
51.482925
 30
0.0
 10
2.174753
 20
50.725425
 30
0.0
 10
2.725545
 20
49.990425
 30
0.0
 10
3.286455
 20
49.263075
 30
0.0
 10
3.836303
 20
48.527400
 30
0.0
 10
4.348920
 20
47.765550
 30
0.0
 10
4.931543
 20
47.087625
 30
0.0
 10
5.569478
 20
46.461300
 30
0.0
 10
6.258248
 20
45.891375
 30
0.0
 10
6.997560
 20
45.388875
 30
0.0
 10
7.788578
 20
44.972850
 30
0.0
 10
8.630273
 20
44.673975
 30
0.0
 10
9.512213
 20
44.536650
 30
0.0
 10
10.400610
 20
44.612250
 30
0.0
 10
11.234813
 20
44.926275
 30
0.0
 10
11.958540
 20
45.447825
 30
0.0
 10
12.322680
 20
46.287825
 30
0.0
 10
12.470318
 20
47.190900
 30
0.0
 10
12.383160
 20
48.102075
 30
0.0
 10
12.097283
 20
48.972375
 30
0.0
 10
11.669243
 20
49.783125
 30
0.0
 10
11.146110
 20
50.536575
 30
0.0
 10
10.559940
 20
51.242250
 30
0.0
 10
9.931868
 20
51.911025
 30
0.0
 10
9.276743
 20
52.553325
 30
0.0
 10
8.606280
 20
53.179800
 30
0.0
 10
7.932585
 20
53.802750
 30
0.0
 10
7.423920
 20
54.182925
 30
0.0
 10
6.915255
 20
54.563100
 30
0.0
 10
6.190883
 20
55.038675
 30
0.0
 10
5.476500
 20
55.529475
 30
0.0
 10
4.749143
 20
56.000625
 30
0.0
 10
3.992888
 20
56.423325
 30
0.0
 10
3.192195
 20
56.752800
 30
0.0
 10
2.340930
 20
56.897325
 30
0.0
  0
LWPOLYLINE
  5
10c
100
AcDbEntity
  8
0
 62
7
100
AcDbPolyline
 90
43
 70
1
 10
0.000000
 20
47.607750
 30
0.0
 10
0.127598
 20
46.708875
 30
0.0
 10
0.297930
 20
45.817125
 30
0.0
 10
0.511553
 20
44.934675
 30
0.0
 10
0.769088
 20
44.064075
 30
0.0
 10
1.071188
 20
43.207950
 30
0.0
 10
1.418415
 20
42.369150
 30
0.0
 10
1.811348
 20
41.550675
 30
0.0
 10
2.250173
 20
40.756125
 30
0.0
 10
2.735123
 20
39.988575
 30
0.0
 10
3.174285
 20
39.161850
 30
0.0
 10
3.697830
 20
38.385825
 30
0.0
 10
4.297223
 20
37.666650
 30
0.0
 10
4.963133
 20
37.008600
 30
0.0
 10
5.686215
 20
36.413925
 30
0.0
 10
6.457898
 20
35.883525
 30
0.0
 10
7.270162
 20
35.417775
 30
0.0
 10
8.116110
 20
35.016525
 30
0.0
 10
8.989808
 20
34.679700
 30
0.0
 10
9.885750
 20
34.407450
 30
0.0
 10
10.636973
 20
34.667700
 30
0.0
 10
11.358690
 20
35.000325
 30
0.0
 10
12.011400
 20
35.452125
 30
0.0
 10
12.527078
 20
36.053700
 30
0.0
 10
12.644040
 20
37.017825
 30
0.0
 10
12.543105
 20
37.983525
 30
0.0
 10
12.242430
 20
38.907375
 30
0.0
 10
11.790998
 20
39.768450
 30
0.0
 10
11.239208
 20
40.569450
 30
0.0
 10
10.625843
 20
41.324700
 30
0.0
 10
9.979305
 20
42.051900
 30
0.0
 10
9.322965
 20
42.770100
 30
0.0
 10
8.680455
 20
43.500825
 30
0.0
 10
7.836420
 20
43.959450
 30
0.0
 10
6.980925
 20
44.396250
 30
0.0
 10
6.116557
 20
44.815275
 30
0.0
 10
5.245777
 20
45.220650
 30
0.0
 10
4.370535
 20
45.616725
 30
0.0
 10
3.493193
 20
46.007625
 30
0.0
 10
2.615438
 20
46.397925
 30
0.0
 10
1.739325
 20
46.791825
 30
0.0
 10
0.866715
 20
47.193675
 30
0.0
 10
0.000000
 20
47.607750
 30
0.0
  0
LWPOLYLINE
  5
10d
100
AcDbEntity
  8
0
 62
7
100
AcDbPolyline
 90
43
 70
1
 10
25.955633
 20
47.282625
 30
0.0
 10
25.065015
 20
47.054550
 30
0.0
 10
24.261495
 20
46.595475
 30
0.0
 10
23.499570
 20
46.068975
 30
0.0
 10
22.732725
 20
45.549675
 30
0.0
 10
21.917745
 20
45.111825
 30
0.0
 10
21.022065
 20
44.898000
 30
0.0
 10
20.132153
 20
44.566500
 30
0.0
 10
19.278158
 20
44.151000
 30
0.0
 10
18.466710
 20
43.657725
 30
0.0
 10
17.702633
 20
43.093725
 30
0.0
 10
16.989645
 20
42.466275
 30
0.0
 10
16.330260
 20
41.782650
 30
0.0
 10
15.726368
 20
41.049675
 30
0.0
 10
15.179145
 20
40.273350
 30
0.0
 10
14.696475
 20
39.431700
 30
0.0
 10
14.368380
 20
38.518350
 30
0.0
 10
14.203005
 20
37.562250
 30
0.0
 10
14.239905
 20
36.593550
 30
0.0
 10
14.550082
 20
35.677800
 30
0.0
 10
15.183570
 20
34.950900
 30
0.0
 10
16.054357
 20
34.531950
 30
0.0
 10
16.927755
 20
34.675500
 30
0.0
 10
17.786370
 20
34.890000
 30
0.0
 10
18.624967
 20
35.172900
 30
0.0
 10
19.438312
 20
35.521725
 30
0.0
 10
20.221462
 20
35.934150
 30
0.0
 10
20.968942
 20
36.408000
 30
0.0
 10
21.716647
 20
36.979425
 30
0.0
 10
22.409152
 20
37.616850
 30
0.0
 10
23.044162
 20
38.311650
 30
0.0
 10
23.622187
 20
39.054375
 30
0.0
 10
24.146332
 20
39.836250
 30
0.0
 10
24.621068
 20
40.649025
 30
0.0
 10
25.051958
 20
41.485875
 30
0.0
 10
25.445017
 20
42.341250
 30
0.0
 10
25.806382
 20
43.210425
 30
0.0
 10
26.142210
 20
44.089950
 30
0.0
 10
26.458515
 20
44.976525
 30
0.0
 10
26.761500
 20
45.867975
 30
0.0
 10
27.057360
 20
46.761750
 30
0.0
 10
26.562757
 20
47.144025
 30
0.0
 10
25.955640
 20
47.282625
 30
0.0
  0
LWPOLYLINE
  5
10e
100
AcDbEntity
  8
0
 62
7
100
AcDbPolyline
 90
45
 70
0
 10
26.268855
 20
37.298700
 30
0.0
 10
25.465642
 20
37.167900
 30
0.0
 10
24.709170
 20
36.862125
 30
0.0
 10
24.012367
 20
36.437550
 30
0.0
 10
23.408295
 20
35.890275
 30
0.0
 10
22.542630
 20
35.520225
 30
0.0
 10
21.671932
 20
35.162100
 30
0.0
 10
20.802892
 20
34.800150
 30
0.0
 10
19.942005
 20
34.419225
 30
0.0
 10
19.096965
 20
34.004250
 30
0.0
 10
18.277867
 20
33.540525
 30
0.0
 10
17.498123
 20
33.013650
 30
0.0
 10
16.774867
 20
32.411625
 30
0.0
 10
16.128203
 20
31.728150
 30
0.0
 10
15.577342
 20
30.965700
 30
0.0
 10
15.084870
 20
30.180600
 30
0.0
 10
14.674005
 20
29.349750
 30
0.0
 10
14.355217
 20
28.479525
 30
0.0
 10
14.157165
 20
27.574725
 30
0.0
 10
14.134290
 20
26.649825
 30
0.0
 10
14.370337
 20
25.757775
 30
0.0
 10
14.918767
 20
25.017825
 30
0.0
 10
15.699495
 20
24.525375
 30
0.0
 10
16.575810
 20
24.589875
 30
0.0
 10
17.441655
 20
24.739950
 30
0.0
 10
18.289822
 20
24.969975
 30
0.0
 10
19.114178
 20
25.274325
 30
0.0
 10
19.909725
 20
25.647750
 30
0.0
 10
20.671620
 20
26.085450
 30
0.0
 10
21.449647
 20
26.608350
 30
0.0
 10
22.166527
 20
27.212550
 30
0.0
 10
22.818187
 20
27.886575
 30
0.0
 10
23.405415
 20
28.617600
 30
0.0
 10
23.932507
 20
29.393175
 30
0.0
 10
24.406177
 20
30.202725
 30
0.0
 10
24.834225
 20
31.037175
 30
0.0
 10
25.224975
 20
31.889775
 30
0.0
 10
25.586722
 20
32.755125
 30
0.0
 10
25.927657
 20
33.628875
 30
0.0
 10
26.256007
 20
34.507425
 30
0.0
 10
26.580322
 20
35.387550
 30
0.0
 10
26.937427
 20
36.136950
 30
0.0
 10
26.973727
 20
36.948225
 30
0.0
 10
26.268840
 20
37.298475
 30
0.0
 10
26.268840
 20
37.298475
 30
0.0
  0
LWPOLYLINE
  5
10f
100
AcDbEntity
  8
0
 62
7
100
AcDbPolyline
 90
46
 70
0
 10
1.390762
 20
37.114575
 30
0.0
 10
0.608962
 20
36.736125
 30
0.0
 10
0.255015
 20
35.915625
 30
0.0
 10
0.203565
 20
35.017950
 30
0.0
 10
0.383032
 20
34.136700
 30
0.0
 10
0.819195
 20
33.353250
 30
0.0
 10
1.245757
 20
32.532600
 30
0.0
 10
1.684387
 20
31.718325
 30
0.0
 10
2.140747
 20
30.913800
 30
0.0
 10
2.620215
 20
30.123000
 30
0.0
 10
3.128340
 20
29.350275
 30
0.0
 10
3.670687
 20
28.601100
 30
0.0
 10
4.252740
 20
27.882525
 30
0.0
 10
4.880077
 20
27.203025
 30
0.0
 10
5.557230
 20
26.573250
 30
0.0
 10
6.287272
 20
26.005950
 30
0.0
 10
7.070542
 20
25.514775
 30
0.0
 10
7.903207
 20
25.113525
 30
0.0
 10
8.777407
 20
24.812850
 30
0.0
 10
9.681097
 20
24.618750
 30
0.0
 10
10.433175
 20
24.494100
 30
0.0
 10
11.189025
 20
24.573450
 30
0.0
 10
11.830065
 20
24.970125
 30
0.0
 10
12.353707
 20
25.685775
 30
0.0
 10
12.634582
 20
26.526150
 30
0.0
 10
12.656332
 20
27.412950
 30
0.0
 10
12.474720
 20
28.282575
 30
0.0
 10
12.154935
 20
29.112075
 30
0.0
 10
11.742705
 20
29.900325
 30
0.0
 10
11.266905
 20
30.652050
 30
0.0
 10
10.746180
 20
31.373475
 30
0.0
 10
10.219770
 20
32.141400
 30
0.0
 10
9.574215
 20
32.812500
 30
0.0
 10
8.837130
 20
33.382125
 30
0.0
 10
8.038965
 20
33.863250
 30
0.0
 10
7.204755
 20
34.278825
 30
0.0
 10
6.351802
 20
34.655175
 30
0.0
 10
5.493007
 20
35.018025
 30
0.0
 10
4.639537
 20
35.392875
 30
0.0
 10
4.607512
 20
35.407875
 30
0.0
 10
3.887197
 20
35.761275
 30
0.0
 10
3.190837
 20
36.159300
 30
0.0
 10
2.532390
 20
36.617400
 30
0.0
 10
1.997977
 20
36.953775
 30
0.0
 10
1.390777
 20
37.114425
 30
0.0
 10
1.390777
 20
37.114425
 30
0.0
  0
LWPOLYLINE
  5
110
100
AcDbEntity
  8
0
 62
7
100
AcDbPolyline
 90
2
 70
1
 10
19.850145
 20
34.559775
 30
0.0
 10
19.850145
 20
34.559775
 30
0.0
  0
LWPOLYLINE
  5
111
100
AcDbEntity
  8
0
 62
7
100
AcDbPolyline
 90
74
 70
0
 10
13.148722
 20
23.936700
 30
0.0
 10
12.378645
 20
23.731950
 30
0.0
 10
11.760172
 20
23.222475
 30
0.0
 10
11.338470
 20
22.539750
 30
0.0
 10
11.142090
 20
21.761775
 30
0.0
 10
11.196540
 20
20.961450
 30
0.0
 10
11.099595
 20
20.016900
 30
0.0
 10
11.018925
 20
19.070700
 30
0.0
 10
10.958625
 20
18.123075
 30
0.0
 10
10.923000
 20
17.174325
 30
0.0
 10
10.916250
 20
16.224825
 30
0.0
 10
10.943475
 20
15.275775
 30
0.0
 10
11.009475
 20
14.328600
 30
0.0
 10
11.119643
 20
13.385475
 30
0.0
 10
11.279475
 20
12.449625
 30
0.0
 10
11.494508
 20
11.525025
 30
0.0
 10
11.770035
 20
10.616625
 30
0.0
 10
12.110542
 20
9.730575
 30
0.0
 10
12.519285
 20
8.873700
 30
0.0
 10
12.997447
 20
8.053800
 30
0.0
 10
13.544197
 20
7.277775
 30
0.0
 10
14.120962
 20
6.491325
 30
0.0
 10
14.754675
 20
5.749950
 30
0.0
 10
15.440407
 20
5.056425
 30
0.0
 10
16.172648
 20
4.412250
 30
0.0
 10
16.945792
 20
3.817650
 30
0.0
 10
17.754188
 20
3.271875
 30
0.0
 10
18.592560
 20
2.773350
 30
0.0
 10
19.456223
 20
2.319825
 30
0.0
 10
20.340923
 20
1.908900
 30
0.0
 10
21.242993
 20
1.537875
 30
0.0
 10
22.159545
 20
1.203975
 30
0.0
 10
23.087798
 20
0.904425
 30
0.0
 10
24.025830
 20
0.636675
 30
0.0
 10
24.971588
 20
0.398250
 30
0.0
 10
25.923840
 20
0.186750
 30
0.0
 10
26.881260
 20
-0.000000
 30
0.0
 10
27.685530
 20
0.271950
 30
0.0
 10
28.242428
 20
0.900975
 30
0.0
 10
28.346250
 20
1.739550
 30
0.0
 10
28.104682
 20
2.555250
 30
0.0
 10
27.641760
 20
3.270600
 30
0.0
 10
27.005153
 20
3.836250
 30
0.0
 10
26.219730
 20
4.158300
 30
0.0
 10
25.286985
 20
4.167300
 30
0.0
 10
24.362355
 20
4.290525
 30
0.0
 10
23.458200
 20
4.519950
 30
0.0
 10
22.583782
 20
4.845150
 30
0.0
 10
21.745470
 20
5.254575
 30
0.0
 10
20.947035
 20
5.737350
 30
0.0
 10
20.190548
 20
6.283725
 30
0.0
 10
19.477372
 20
6.885675
 30
0.0
 10
18.808440
 20
7.536450
 30
0.0
 10
18.089243
 20
8.194650
 30
0.0
 10
17.453940
 20
8.934450
 30
0.0
 10
16.905563
 20
9.740775
 30
0.0
 10
16.441853
 20
10.598625
 30
0.0
 10
16.057133
 20
11.494950
 30
0.0
 10
15.744000
 20
12.418725
 30
0.0
 10
15.494588
 20
13.361775
 30
0.0
 10
15.301283
 20
14.317800
 30
0.0
 10
15.157073
 20
15.282600
 30
0.0
 10
14.963490
 20
16.174050
 30
0.0
 10
14.901690
 20
17.084625
 30
0.0
 10
14.929965
 20
17.997300
 30
0.0
 10
14.999940
 20
18.907800
 30
0.0
 10
15.062565
 20
19.818825
 30
0.0
 10
15.067065
 20
20.731650
 30
0.0
 10
14.960040
 20
21.637725
 30
0.0
 10
14.699153
 20
22.511475
 30
0.0
 10
14.372280
 20
23.183550
 30
0.0
 10
13.854863
 20
23.718225
 30
0.0
 10
13.148805
 20
23.936400
 30
0.0
 10
13.148805
 20
23.936400
 30
0.0
  0
ENDSEC
  0
SECTION
  2
OBJECTS
  0
DICTIONARY
  5
C
330
0
100
AcDbDictionary
  3
ACAD_GROUP
350
D
  3
ACAD_MLINESTYLE
350
17
  0
DICTIONARY
  5
D
330
C
100
AcDbDictionary
  0
DICTIONARY
  5
1A
330
C
100
AcDbDictionary
  0
DICTIONARY
  5
17
330
C
100
AcDbDictionary
  3
STANDARD
350
18
  0
DICTIONARY
  5
19
330
C
100
AcDbDictionary
  0
ENDSEC
  0
EOF
