999
"DXF R12 Output" (www.mydxf.blogspot.com)
 0 
SECTION
 2 
HEADER
 9 
$ACADVER
 1 
AC1009
 9 
$EXTMIN
 10 
 0 
 20 
 0 
 9 
$EXTMAX
 10 
 8.5 
 20 
 11 
 0 
ENDSEC
 0 
SECTION
 2 
ENTITIES
0
LINE
8
Image
10
9.431410
20
0.870810
11
9.817484
21
1.398571
0
LINE
8
Image
10
9.817484
20
1.398571
11
10.037689
21
1.956338
0
LINE
8
Image
10
10.037689
20
1.956338
11
10.160000
21
3.911250
0
LINE
8
Image
10
10.160000
20
3.911250
11
10.062857
21
5.814709
0
LINE
8
Image
10
10.062857
20
5.814709
11
9.837882
21
6.075749
0
LINE
8
Image
10
9.837882
20
6.075749
11
9.403260
21
6.148440
0
LINE
8
Image
10
9.403260
20
6.148440
11
8.673649
21
6.310590
0
LINE
8
Image
10
8.673649
20
6.310590
11
8.015372
21
6.642866
0
LINE
8
Image
10
8.015372
20
6.642866
11
7.498632
21
7.098211
0
LINE
8
Image
10
7.498632
20
7.098211
11
7.193630
21
7.629570
0
LINE
8
Image
10
7.193630
20
7.629570
11
6.882760
21
8.070646
0
LINE
8
Image
10
6.882760
20
8.070646
11
6.172980
21
8.035480
0
LINE
8
Image
10
6.172980
20
8.035480
11
5.370078
21
8.024400
0
LINE
8
Image
10
5.370078
20
8.024400
11
4.656947
21
8.299929
0
LINE
8
Image
10
4.656947
20
8.299929
11
4.146366
21
8.791380
0
LINE
8
Image
10
4.146366
20
8.791380
11
3.951110
21
9.428070
0
LINE
8
Image
10
3.951110
20
9.428070
11
3.808975
21
9.954624
0
LINE
8
Image
10
3.808975
20
9.954624
11
3.415410
21
10.234300
0
LINE
8
Image
10
3.415410
20
10.234300
11
2.887552
21
10.561387
0
LINE
8
Image
10
2.887552
20
10.561387
11
2.370720
21
11.151200
0
LINE
8
Image
10
2.370720
20
11.151200
11
2.094059
21
11.612689
0
LINE
8
Image
10
2.094059
20
11.612689
11
2.011934
21
11.971438
0
LINE
8
Image
10
2.011934
20
11.971438
11
2.463080
21
13.025900
0
LINE
8
Image
10
2.463080
20
13.025900
11
2.898463
21
14.061275
0
LINE
8
Image
10
2.898463
20
14.061275
11
2.686181
21
14.852840
0
LINE
8
Image
10
2.686181
20
14.852840
11
2.460663
21
15.672755
0
LINE
8
Image
10
2.460663
20
15.672755
11
2.585044
21
16.450012
0
LINE
8
Image
10
2.585044
20
16.450012
11
3.012603
21
17.066623
0
LINE
8
Image
10
3.012603
20
17.066623
11
3.696621
21
17.404600
0
LINE
8
Image
10
3.696621
20
17.404600
11
4.235820
21
17.571884
0
LINE
8
Image
10
4.235820
20
17.571884
11
4.395076
21
17.746653
0
LINE
8
Image
10
4.395076
20
17.746653
11
4.668255
21
18.841183
0
LINE
8
Image
10
4.668255
20
18.841183
11
5.158111
21
19.590298
0
LINE
8
Image
10
5.158111
20
19.590298
11
6.020120
21
19.755600
0
LINE
8
Image
10
6.020120
20
19.755600
11
7.022226
21
19.988689
0
LINE
8
Image
10
7.022226
20
19.988689
11
8.118420
21
20.853130
0
LINE
8
Image
10
8.118420
20
20.853130
11
8.803167
21
21.480442
0
LINE
8
Image
10
8.803167
20
21.480442
11
9.383047
21
21.807071
0
LINE
8
Image
10
9.383047
20
21.807071
11
10.151557
21
21.931112
0
LINE
8
Image
10
10.151557
20
21.931112
11
11.402190
21
21.950660
0
LINE
8
Image
10
11.402190
20
21.950660
11
13.262020
21
21.844263
0
LINE
8
Image
10
13.262020
20
21.844263
11
13.714861
21
21.661111
0
LINE
8
Image
10
13.714861
20
21.661111
11
14.044730
21
21.346742
0
LINE
8
Image
10
14.044730
20
21.346742
11
14.578926
21
20.926894
0
LINE
8
Image
10
14.578926
20
20.926894
11
15.192710
21
20.836335
0
LINE
8
Image
10
15.192710
20
20.836335
11
15.816939
21
20.765612
0
LINE
8
Image
10
15.816939
20
20.765612
11
16.376126
21
20.429829
0
LINE
8
Image
10
16.376126
20
20.429829
11
16.778753
21
19.910341
0
LINE
8
Image
10
16.778753
20
19.910341
11
16.933300
21
19.288500
0
LINE
8
Image
10
16.933300
20
19.288500
11
17.042037
21
18.821100
0
LINE
8
Image
10
17.042037
20
18.821100
11
17.303400
21
18.626700
0
LINE
8
Image
10
17.303400
20
18.626700
11
17.824639
21
18.439923
0
LINE
8
Image
10
17.824639
20
18.439923
11
18.346487
21
17.973163
0
LINE
8
Image
10
18.346487
20
17.973163
11
18.748167
21
17.366770
0
LINE
8
Image
10
18.748167
20
17.366770
11
18.908900
21
16.761100
0
LINE
8
Image
10
18.908900
20
16.761100
11
19.033129
21
16.132099
0
LINE
8
Image
10
19.033129
20
16.132099
11
19.331809
21
15.623470
0
LINE
8
Image
10
19.331809
20
15.623470
11
19.752903
21
15.026852
0
LINE
8
Image
10
19.752903
20
15.026852
11
19.952769
21
14.335402
0
LINE
8
Image
10
19.952769
20
14.335402
11
19.924196
21
13.608812
0
LINE
8
Image
10
19.924196
20
13.608812
11
19.659973
21
12.906770
0
LINE
8
Image
10
19.659973
20
12.906770
11
19.363236
21
12.159326
0
LINE
8
Image
10
19.363236
20
12.159326
11
19.474540
21
11.568910
0
LINE
8
Image
10
19.474540
20
11.568910
11
19.722118
21
10.869729
0
LINE
8
Image
10
19.722118
20
10.869729
11
19.722945
21
10.192085
0
LINE
8
Image
10
19.722945
20
10.192085
11
19.483922
21
9.573534
0
LINE
8
Image
10
19.483922
20
9.573534
11
19.011951
21
9.051630
0
LINE
8
Image
10
19.011951
20
9.051630
11
17.883000
21
8.466700
0
LINE
8
Image
10
17.883000
20
8.466700
11
17.610937
21
8.341126
0
LINE
8
Image
10
17.610937
20
8.341126
11
17.497800
21
8.039220
0
LINE
8
Image
10
17.497800
20
8.039220
11
17.218378
21
7.523001
0
LINE
8
Image
10
17.218378
20
7.523001
11
16.543271
21
7.027420
0
LINE
8
Image
10
16.543271
20
7.027420
11
15.717222
21
6.688523
0
LINE
8
Image
10
15.717222
20
6.688523
11
14.984970
21
6.642360
0
LINE
8
Image
10
14.984970
20
6.642360
11
14.269896
21
6.660123
0
LINE
8
Image
10
14.269896
20
6.660123
11
13.503300
21
6.473173
0
LINE
8
Image
10
13.503300
20
6.473173
11
13.059353
21
6.249059
0
LINE
8
Image
10
13.059353
20
6.249059
11
12.818600
21
5.943269
0
LINE
8
Image
10
12.818600
20
5.943269
11
12.700000
21
4.472290
0
LINE
8
Image
10
12.700000
20
4.472290
11
12.797949
21
3.237456
0
LINE
8
Image
10
12.797949
20
3.237456
11
13.055674
21
2.049443
0
LINE
8
Image
10
13.055674
20
2.049443
11
13.418992
21
1.095155
0
LINE
8
Image
10
13.418992
20
1.095155
11
13.833720
21
0.561500
0
LINE
8
Image
10
13.833720
20
0.561500
11
13.504646
21
0.449542
0
LINE
8
Image
10
13.504646
20
0.449542
11
12.341110
21
0.410498
0
LINE
8
Image
10
12.341110
20
0.410498
11
9.643090
21
0.214161
0
LINE
8
Image
10
9.643090
20
0.214161
11
8.702843
21
0.004945
0
LINE
8
Image
10
8.702843
20
0.004945
11
9.431410
21
0.870810
 0 
ENDSEC
 0 
EOF