999
"DXF R12 Output" (www.mydxf.blogspot.com)
 0 
SECTION
 2 
HEADER
 9 
$ACADVER
 1 
AC1009
 9 
$EXTMIN
 10 
 0 
 20 
 0 
 9 
$EXTMAX
 10 
 8.5 
 20 
 11 
 0 
ENDSEC
 0 
SECTION
 2 
ENTITIES
0
LINE
8
Image
10
107.361000
20
243.792000
11
108.901712
21
243.322295
0
LINE
8
Image
10
108.901712
20
243.322295
11
110.127004
21
242.767753
0
LINE
8
Image
10
110.127004
20
242.767753
11
111.084275
21
242.045172
0
LINE
8
Image
10
111.084275
20
242.045172
11
111.820924
21
241.071350
0
LINE
8
Image
10
111.820924
20
241.071350
11
112.384350
21
239.763084
0
LINE
8
Image
10
112.384350
20
239.763084
11
112.821954
21
238.037172
0
LINE
8
Image
10
112.821954
20
238.037172
11
113.509290
21
232.999600
0
LINE
8
Image
10
113.509290
20
232.999600
11
114.690425
21
223.858495
0
LINE
8
Image
10
114.690425
20
223.858495
11
116.593035
21
210.892437
0
LINE
8
Image
10
116.593035
20
210.892437
11
118.617603
21
198.042461
0
LINE
8
Image
10
118.617603
20
198.042461
11
120.164610
21
189.249600
0
LINE
8
Image
10
120.164610
20
189.249600
11
121.232210
21
183.999600
0
LINE
8
Image
10
121.232210
20
183.999600
11
125.911310
21
183.977600
0
LINE
8
Image
10
125.911310
20
183.977600
11
128.063466
21
183.816842
0
LINE
8
Image
10
128.063466
20
183.816842
11
130.464360
21
183.395394
0
LINE
8
Image
10
130.464360
20
183.395394
11
132.821004
21
182.777271
0
LINE
8
Image
10
132.821004
20
182.777271
11
134.840410
21
182.026490
0
LINE
8
Image
10
134.840410
20
182.026490
11
139.090410
21
180.097340
0
LINE
8
Image
10
139.090410
20
180.097340
11
139.090410
21
182.252640
0
LINE
8
Image
10
139.090410
20
182.252640
11
138.859055
21
185.624999
0
LINE
8
Image
10
138.859055
20
185.624999
11
138.237812
21
190.916062
0
LINE
8
Image
10
138.237812
20
190.916062
11
136.262583
21
204.492579
0
LINE
8
Image
10
136.262583
20
204.492579
11
134.038567
21
217.458751
0
LINE
8
Image
10
134.038567
20
217.458751
11
133.106341
21
221.986884
0
LINE
8
Image
10
133.106341
20
221.986884
11
132.439610
21
224.291140
0
LINE
8
Image
10
132.439610
20
224.291140
11
130.403971
21
228.650285
0
LINE
8
Image
10
130.403971
20
228.650285
11
129.164838
21
232.237816
0
LINE
8
Image
10
129.164838
20
232.237816
11
128.863134
21
233.669219
0
LINE
8
Image
10
128.863134
20
233.669219
11
128.783565
21
234.820109
0
LINE
8
Image
10
128.783565
20
234.820109
11
128.933801
21
235.661284
0
LINE
8
Image
10
128.933801
20
235.661284
11
129.321510
21
236.163540
0
LINE
8
Image
10
129.321510
20
236.163540
11
130.281830
21
236.480577
0
LINE
8
Image
10
130.281830
20
236.480577
11
131.923512
21
236.720805
0
LINE
8
Image
10
131.923512
20
236.720805
11
136.518729
21
236.960281
0
LINE
8
Image
10
136.518729
20
236.960281
11
141.642686
21
236.860864
0
LINE
8
Image
10
141.642686
20
236.860864
11
145.830910
21
236.401450
0
LINE
8
Image
10
145.830910
20
236.401450
11
147.536486
21
235.922215
0
LINE
8
Image
10
147.536486
20
235.922215
11
148.093423
21
235.525456
0
LINE
8
Image
10
148.093423
20
235.525456
11
148.505270
21
234.913310
0
LINE
8
Image
10
148.505270
20
234.913310
11
148.811137
21
234.002806
0
LINE
8
Image
10
148.811137
20
234.002806
11
149.050131
21
232.710975
0
LINE
8
Image
10
149.050131
20
232.710975
11
149.483940
21
228.651450
0
LINE
8
Image
10
149.483940
20
228.651450
11
150.825489
21
217.523508
0
LINE
8
Image
10
150.825489
20
217.523508
11
153.098783
21
200.673038
0
LINE
8
Image
10
153.098783
20
200.673038
11
155.314854
21
185.216873
0
LINE
8
Image
10
155.314854
20
185.216873
11
156.484740
21
178.271850
0
LINE
8
Image
10
156.484740
20
178.271850
11
158.704172
21
179.122037
0
LINE
8
Image
10
158.704172
20
179.122037
11
163.669550
21
181.536800
0
LINE
8
Image
10
163.669550
20
181.536800
11
168.109807
21
183.565967
0
LINE
8
Image
10
168.109807
20
183.565967
11
172.447697
21
185.064441
0
LINE
8
Image
10
172.447697
20
185.064441
11
176.710919
21
186.033387
0
LINE
8
Image
10
176.710919
20
186.033387
11
180.927175
21
186.473970
0
LINE
8
Image
10
180.927175
20
186.473970
11
185.124165
21
186.387355
0
LINE
8
Image
10
185.124165
20
186.387355
11
189.329591
21
185.774709
0
LINE
8
Image
10
189.329591
20
185.774709
11
193.571152
21
184.637195
0
LINE
8
Image
10
193.571152
20
184.637195
11
197.876550
21
182.975980
0
LINE
8
Image
10
197.876550
20
182.975980
11
202.638070
21
180.999570
0
LINE
8
Image
10
202.638070
20
180.999570
11
203.050761
21
181.954257
0
LINE
8
Image
10
203.050761
20
181.954257
11
203.630920
21
184.249570
0
LINE
8
Image
10
203.630920
20
184.249570
11
204.970115
21
188.419731
0
LINE
8
Image
10
204.970115
20
188.419731
11
207.207720
21
193.882030
0
LINE
8
Image
10
207.207720
20
193.882030
11
210.085100
21
200.264500
0
LINE
8
Image
10
210.085100
20
200.264500
11
207.044720
21
213.193900
0
LINE
8
Image
10
207.044720
20
213.193900
11
205.698124
21
218.555961
0
LINE
8
Image
10
205.698124
20
218.555961
11
204.279200
21
223.597810
0
LINE
8
Image
10
204.279200
20
223.597810
11
202.956771
21
227.753054
0
LINE
8
Image
10
202.956771
20
227.753054
11
201.899660
21
230.455300
0
LINE
8
Image
10
201.899660
20
230.455300
11
200.940434
21
232.591721
0
LINE
8
Image
10
200.940434
20
232.591721
11
200.384077
21
234.297051
0
LINE
8
Image
10
200.384077
20
234.297051
11
200.262783
21
235.616108
0
LINE
8
Image
10
200.262783
20
235.616108
11
200.608746
21
236.593710
0
LINE
8
Image
10
200.608746
20
236.593710
11
201.454159
21
237.274676
0
LINE
8
Image
10
201.454159
20
237.274676
11
202.831215
21
237.703824
0
LINE
8
Image
10
202.831215
20
237.703824
11
204.772107
21
237.925973
0
LINE
8
Image
10
204.772107
20
237.925973
11
207.309030
21
237.985940
0
LINE
8
Image
10
207.309030
20
237.985940
11
212.453528
21
237.818741
0
LINE
8
Image
10
212.453528
20
237.818741
11
214.332677
21
237.600047
0
LINE
8
Image
10
214.332677
20
237.600047
11
215.808497
21
237.273773
0
LINE
8
Image
10
215.808497
20
237.273773
11
216.925040
21
236.826779
0
LINE
8
Image
10
216.925040
20
236.826779
11
217.726358
21
236.245928
0
LINE
8
Image
10
217.726358
20
236.245928
11
218.256504
21
235.518081
0
LINE
8
Image
10
218.256504
20
235.518081
11
218.559530
21
234.630100
0
LINE
8
Image
10
218.559530
20
234.630100
11
223.180400
21
215.106200
0
LINE
8
Image
10
223.180400
20
215.106200
11
225.405185
21
205.521669
0
LINE
8
Image
10
225.405185
20
205.521669
11
226.575272
21
199.228325
0
LINE
8
Image
10
226.575272
20
199.228325
11
226.838042
21
196.786255
0
LINE
8
Image
10
226.838042
20
196.786255
11
226.925022
21
194.531469
0
LINE
8
Image
10
226.925022
20
194.531469
11
226.688790
21
189.736400
0
LINE
8
Image
10
226.688790
20
189.736400
11
226.385672
21
185.516937
0
LINE
8
Image
10
226.385672
20
185.516937
11
226.403309
21
183.191425
0
LINE
8
Image
10
226.403309
20
183.191425
11
226.550997
21
182.594960
0
LINE
8
Image
10
226.550997
20
182.594960
11
226.801179
21
182.299253
0
LINE
8
Image
10
226.801179
20
182.299253
11
227.161288
21
182.246728
0
LINE
8
Image
10
227.161288
20
182.246728
11
227.638760
21
182.379810
0
LINE
8
Image
10
227.638760
20
182.379810
11
230.073104
21
182.817544
0
LINE
8
Image
10
230.073104
20
182.817544
11
233.657760
21
182.999610
0
LINE
8
Image
10
233.657760
20
182.999610
11
236.233611
21
183.098243
0
LINE
8
Image
10
236.233611
20
183.098243
11
237.127738
21
183.319312
0
LINE
8
Image
10
237.127738
20
183.319312
11
237.870035
21
183.741798
0
LINE
8
Image
10
237.870035
20
183.741798
11
238.543529
21
184.430884
0
LINE
8
Image
10
238.543529
20
184.430884
11
239.231246
21
185.451758
0
LINE
8
Image
10
239.231246
20
185.451758
11
240.981460
21
188.749610
0
LINE
8
Image
10
240.981460
20
188.749610
11
243.901265
21
193.984764
0
LINE
8
Image
10
243.901265
20
193.984764
11
246.820950
21
198.496940
0
LINE
8
Image
10
246.820950
20
198.496940
11
249.740550
21
202.494270
0
LINE
8
Image
10
249.740550
20
202.494270
11
246.084760
21
217.021870
0
LINE
8
Image
10
246.084760
20
217.021870
11
244.182162
21
224.179640
0
LINE
8
Image
10
244.182162
20
224.179640
11
242.533109
21
229.376283
0
LINE
8
Image
10
242.533109
20
229.376283
11
240.953608
21
233.121393
0
LINE
8
Image
10
240.953608
20
233.121393
11
239.259670
21
235.924570
0
LINE
8
Image
10
239.259670
20
235.924570
11
238.029088
21
237.776927
0
LINE
8
Image
10
238.029088
20
237.776927
11
237.021350
21
239.586264
0
LINE
8
Image
10
237.021350
20
239.586264
11
236.340447
21
241.145151
0
LINE
8
Image
10
236.340447
20
241.145151
11
236.090370
21
242.246160
0
LINE
8
Image
10
236.090370
20
242.246160
11
236.134781
21
242.849382
0
LINE
8
Image
10
236.134781
20
242.849382
11
236.326728
21
243.307474
0
LINE
8
Image
10
236.326728
20
243.307474
11
236.754285
21
243.635397
0
LINE
8
Image
10
236.754285
20
243.635397
11
237.505525
21
243.848111
0
LINE
8
Image
10
237.505525
20
243.848111
11
240.331344
21
243.987763
0
LINE
8
Image
10
240.331344
20
243.987763
11
245.508770
21
243.846120
0
LINE
8
Image
10
245.508770
20
243.846120
11
252.337584
21
243.423816
0
LINE
8
Image
10
252.337584
20
243.423816
11
254.552736
21
243.157160
0
LINE
8
Image
10
254.552736
20
243.157160
11
255.529970
21
242.895110
0
LINE
8
Image
10
255.529970
20
242.895110
11
255.873626
21
242.037398
0
LINE
8
Image
10
255.873626
20
242.037398
11
256.363754
21
240.148890
0
LINE
8
Image
10
256.363754
20
240.148890
11
257.521980
21
234.395110
0
LINE
8
Image
10
257.521980
20
234.395110
11
259.735216
21
223.581233
0
LINE
8
Image
10
259.735216
20
223.581233
11
263.105530
21
208.669310
0
LINE
8
Image
10
263.105530
20
208.669310
11
267.299820
21
190.839010
0
LINE
8
Image
10
267.299820
20
190.839010
11
265.195120
21
185.066670
0
LINE
8
Image
10
265.195120
20
185.066670
11
263.708674
21
180.692866
0
LINE
8
Image
10
263.708674
20
180.692866
11
263.090420
21
178.282990
0
LINE
8
Image
10
263.090420
20
178.282990
11
263.403432
21
177.673393
0
LINE
8
Image
10
263.403432
20
177.673393
11
264.255694
21
176.761205
0
LINE
8
Image
10
264.255694
20
176.761205
11
267.057310
21
174.522600
0
LINE
8
Image
10
267.057310
20
174.522600
11
269.223253
21
172.798540
0
LINE
8
Image
10
269.223253
20
172.798540
11
271.081013
21
170.835298
0
LINE
8
Image
10
271.081013
20
170.835298
11
272.636567
21
168.618799
0
LINE
8
Image
10
272.636567
20
168.618799
11
273.895891
21
166.134963
0
LINE
8
Image
10
273.895891
20
166.134963
11
274.864962
21
163.369712
0
LINE
8
Image
10
274.864962
20
163.369712
11
275.549756
21
160.308970
0
LINE
8
Image
10
275.549756
20
160.308970
11
275.956250
21
156.938659
0
LINE
8
Image
10
275.956250
20
156.938659
11
276.090420
21
153.244700
0
LINE
8
Image
10
276.090420
20
153.244700
11
276.166229
21
148.566134
0
LINE
8
Image
10
276.166229
20
148.566134
11
276.539285
21
145.590598
0
LINE
8
Image
10
276.539285
20
145.590598
11
276.905545
21
144.463527
0
LINE
8
Image
10
276.905545
20
144.463527
11
277.428034
21
143.428687
0
LINE
8
Image
10
277.428034
20
143.428687
11
279.050920
21
141.191000
0
LINE
8
Image
10
279.050920
20
141.191000
11
280.556588
21
139.012115
0
LINE
8
Image
10
280.556588
20
139.012115
11
281.849315
21
136.532009
0
LINE
8
Image
10
281.849315
20
136.532009
11
282.910986
21
133.827712
0
LINE
8
Image
10
282.910986
20
133.827712
11
283.723485
21
130.976253
0
LINE
8
Image
10
283.723485
20
130.976253
11
284.268695
21
128.054662
0
LINE
8
Image
10
284.268695
20
128.054662
11
284.528500
21
125.139970
0
LINE
8
Image
10
284.528500
20
125.139970
11
284.484784
21
122.309206
0
LINE
8
Image
10
284.484784
20
122.309206
11
284.119430
21
119.639400
0
LINE
8
Image
10
284.119430
20
119.639400
11
283.534909
21
117.287100
0
LINE
8
Image
10
283.534909
20
117.287100
11
282.757340
21
114.803090
0
LINE
8
Image
10
282.757340
20
114.803090
11
281.888136
21
112.483210
0
LINE
8
Image
10
281.888136
20
112.483210
11
281.028710
21
110.623300
0
LINE
8
Image
10
281.028710
20
110.623300
11
279.997550
21
108.556997
0
LINE
8
Image
10
279.997550
20
108.556997
11
279.597636
21
107.154796
0
LINE
8
Image
10
279.597636
20
107.154796
11
279.624490
21
106.576962
0
LINE
8
Image
10
279.624490
20
106.576962
11
279.797267
21
106.014227
0
LINE
8
Image
10
279.797267
20
106.014227
11
280.564740
21
104.732820
0
LINE
8
Image
10
280.564740
20
104.732820
11
281.157131
21
103.583206
0
LINE
8
Image
10
281.157131
20
103.583206
11
281.642250
21
102.063279
0
LINE
8
Image
10
281.642250
20
102.063279
11
281.970034
21
100.370865
0
LINE
8
Image
10
281.970034
20
100.370865
11
282.090420
21
98.703790
0
LINE
8
Image
10
282.090420
20
98.703790
11
282.164947
21
96.835383
0
LINE
8
Image
10
282.164947
20
96.835383
11
282.426160
21
95.705410
0
LINE
8
Image
10
282.426160
20
95.705410
11
282.930508
21
95.192755
0
LINE
8
Image
10
282.930508
20
95.192755
11
283.734440
21
95.176300
0
LINE
8
Image
10
283.734440
20
95.176300
11
284.959010
21
95.618037
0
LINE
8
Image
10
284.959010
20
95.618037
11
286.061131
21
96.448361
0
LINE
8
Image
10
286.061131
20
96.448361
11
287.048683
21
97.685105
0
LINE
8
Image
10
287.048683
20
97.685105
11
287.929544
21
99.346107
0
LINE
8
Image
10
287.929544
20
99.346107
11
288.711594
21
101.449202
0
LINE
8
Image
10
288.711594
20
101.449202
11
289.402712
21
104.012225
0
LINE
8
Image
10
289.402712
20
104.012225
11
290.010777
21
107.053013
0
LINE
8
Image
10
290.010777
20
107.053013
11
290.543670
21
110.589400
0
LINE
8
Image
10
290.543670
20
110.589400
11
291.780334
21
118.633422
0
LINE
8
Image
10
291.780334
20
118.633422
11
292.437397
21
121.817747
0
LINE
8
Image
10
292.437397
20
121.817747
11
293.142434
21
124.518325
0
LINE
8
Image
10
293.142434
20
124.518325
11
293.912056
21
126.791187
0
LINE
8
Image
10
293.912056
20
126.791187
11
294.762877
21
128.692366
0
LINE
8
Image
10
294.762877
20
128.692366
11
295.711511
21
130.277893
0
LINE
8
Image
10
295.711511
20
130.277893
11
296.774570
21
131.603800
0
LINE
8
Image
10
296.774570
20
131.603800
11
298.065995
21
132.809811
0
LINE
8
Image
10
298.065995
20
132.809811
11
299.299169
21
133.567708
0
LINE
8
Image
10
299.299169
20
133.567708
11
300.485082
21
133.873828
0
LINE
8
Image
10
300.485082
20
133.873828
11
301.634725
21
133.724509
0
LINE
8
Image
10
301.634725
20
133.724509
11
302.759089
21
133.116088
0
LINE
8
Image
10
302.759089
20
133.116088
11
303.869166
21
132.044903
0
LINE
8
Image
10
303.869166
20
132.044903
11
304.975946
21
130.507291
0
LINE
8
Image
10
304.975946
20
130.507291
11
306.090420
21
128.499590
0
LINE
8
Image
10
306.090420
20
128.499590
11
307.445967
21
125.429520
0
LINE
8
Image
10
307.445967
20
125.429520
11
307.884929
21
123.931156
0
LINE
8
Image
10
307.884929
20
123.931156
11
308.193466
21
122.247024
0
LINE
8
Image
10
308.193466
20
122.247024
11
308.505622
21
117.690811
0
LINE
8
Image
10
308.505622
20
117.690811
11
308.555140
21
110.499590
0
LINE
8
Image
10
308.555140
20
110.499590
11
308.455114
21
103.625509
0
LINE
8
Image
10
308.455114
20
103.625509
11
308.124946
21
98.871415
0
LINE
8
Image
10
308.124946
20
98.871415
11
307.452450
21
95.306409
0
LINE
8
Image
10
307.452450
20
95.306409
11
306.325440
21
91.999590
0
LINE
8
Image
10
306.325440
20
91.999590
11
304.690630
21
88.453169
0
LINE
8
Image
10
304.690630
20
88.453169
11
302.758630
21
85.239512
0
LINE
8
Image
10
302.758630
20
85.239512
11
300.552064
21
82.378762
0
LINE
8
Image
10
300.552064
20
82.378762
11
298.093554
21
79.891065
0
LINE
8
Image
10
298.093554
20
79.891065
11
295.405723
21
77.796565
0
LINE
8
Image
10
295.405723
20
77.796565
11
292.511195
21
76.115406
0
LINE
8
Image
10
292.511195
20
76.115406
11
289.432593
21
74.867733
0
LINE
8
Image
10
289.432593
20
74.867733
11
286.192540
21
74.073690
0
LINE
8
Image
10
286.192540
20
74.073690
11
284.315455
21
73.608788
0
LINE
8
Image
10
284.315455
20
73.608788
11
283.631978
21
73.245866
0
LINE
8
Image
10
283.631978
20
73.245866
11
283.061443
21
72.730201
0
LINE
8
Image
10
283.061443
20
72.730201
11
282.561024
21
72.012473
0
LINE
8
Image
10
282.561024
20
72.012473
11
282.087896
21
71.043359
0
LINE
8
Image
10
282.087896
20
71.043359
11
281.052210
21
68.153690
0
LINE
8
Image
10
281.052210
20
68.153690
11
280.045963
21
65.598158
0
LINE
8
Image
10
280.045963
20
65.598158
11
278.746769
21
63.174163
0
LINE
8
Image
10
278.746769
20
63.174163
11
277.173317
21
60.890862
0
LINE
8
Image
10
277.173317
20
60.890862
11
275.344299
21
58.757407
0
LINE
8
Image
10
275.344299
20
58.757407
11
273.278404
21
56.782955
0
LINE
8
Image
10
273.278404
20
56.782955
11
270.994322
21
54.976658
0
LINE
8
Image
10
270.994322
20
54.976658
11
268.510745
21
53.347673
0
LINE
8
Image
10
268.510745
20
53.347673
11
265.846361
21
51.905153
0
LINE
8
Image
10
265.846361
20
51.905153
11
263.019862
21
50.658252
0
LINE
8
Image
10
263.019862
20
50.658252
11
260.049937
21
49.616127
0
LINE
8
Image
10
260.049937
20
49.616127
11
256.955278
21
48.787930
0
LINE
8
Image
10
256.955278
20
48.787930
11
253.754573
21
48.182817
0
LINE
8
Image
10
253.754573
20
48.182817
11
250.466514
21
47.809941
0
LINE
8
Image
10
250.466514
20
47.809941
11
247.109790
21
47.678459
0
LINE
8
Image
10
247.109790
20
47.678459
11
243.703092
21
47.797524
0
LINE
8
Image
10
243.703092
20
47.797524
11
240.265110
21
48.176290
0
LINE
8
Image
10
240.265110
20
48.176290
11
236.507392
21
48.653189
0
LINE
8
Image
10
236.507392
20
48.653189
11
233.896495
21
48.695976
0
LINE
8
Image
10
233.896495
20
48.695976
11
231.776856
21
48.248577
0
LINE
8
Image
10
231.776856
20
48.248577
11
229.492910
21
47.254921
0
LINE
8
Image
10
229.492910
20
47.254921
11
225.243723
21
45.443505
0
LINE
8
Image
10
225.243723
20
45.443505
11
220.813774
21
44.125848
0
LINE
8
Image
10
220.813774
20
44.125848
11
216.266227
21
43.303028
0
LINE
8
Image
10
216.266227
20
43.303028
11
211.664248
21
42.976121
0
LINE
8
Image
10
211.664248
20
42.976121
11
207.071001
21
43.146205
0
LINE
8
Image
10
207.071001
20
43.146205
11
202.549652
21
43.814358
0
LINE
8
Image
10
202.549652
20
43.814358
11
198.163367
21
44.981657
0
LINE
8
Image
10
198.163367
20
44.981657
11
193.975310
21
46.649179
0
LINE
8
Image
10
193.975310
20
46.649179
11
187.360300
21
49.768149
0
LINE
8
Image
10
187.360300
20
49.768149
11
180.475310
21
46.368239
0
LINE
8
Image
10
180.475310
20
46.368239
11
178.042496
21
45.259339
0
LINE
8
Image
10
178.042496
20
45.259339
11
175.513711
21
44.283010
0
LINE
8
Image
10
175.513711
20
44.283010
11
170.233216
21
42.730430
0
LINE
8
Image
10
170.233216
20
42.730430
11
164.763806
21
41.715225
0
LINE
8
Image
10
164.763806
20
41.715225
11
159.235460
21
41.242120
0
LINE
8
Image
10
159.235460
20
41.242120
11
153.778158
21
41.315841
0
LINE
8
Image
10
153.778158
20
41.315841
11
148.521879
21
41.941112
0
LINE
8
Image
10
148.521879
20
41.941112
11
146.009742
21
42.462056
0
LINE
8
Image
10
146.009742
20
42.462056
11
143.596603
21
43.122660
0
LINE
8
Image
10
143.596603
20
43.122660
11
141.298710
21
43.923514
0
LINE
8
Image
10
141.298710
20
43.923514
11
139.132310
21
44.865209
0
LINE
8
Image
10
139.132310
20
44.865209
11
135.976423
21
46.291452
0
LINE
8
Image
10
135.976423
20
46.291452
11
134.552240
21
46.742679
0
LINE
8
Image
10
134.552240
20
46.742679
11
133.231470
21
44.325889
0
LINE
8
Image
10
133.231470
20
44.325889
11
132.335321
21
43.181187
0
LINE
8
Image
10
132.335321
20
43.181187
11
130.861846
21
41.972996
0
LINE
8
Image
10
130.861846
20
41.972996
11
128.926103
21
40.755237
0
LINE
8
Image
10
128.926103
20
40.755237
11
126.643149
21
39.581829
0
LINE
8
Image
10
126.643149
20
39.581829
11
124.128041
21
38.506692
0
LINE
8
Image
10
124.128041
20
38.506692
11
121.495837
21
37.583744
0
LINE
8
Image
10
121.495837
20
37.583744
11
118.861594
21
36.866907
0
LINE
8
Image
10
118.861594
20
36.866907
11
116.340370
21
36.410099
0
LINE
8
Image
10
116.340370
20
36.410099
11
113.719183
21
35.996400
0
LINE
8
Image
10
113.719183
20
35.996400
11
112.114593
21
35.499447
0
LINE
8
Image
10
112.114593
20
35.499447
11
111.625956
21
35.186556
0
LINE
8
Image
10
111.625956
20
35.186556
11
111.310391
21
34.813019
0
LINE
8
Image
10
111.310391
20
34.813019
11
111.090370
21
33.830899
0
LINE
8
Image
10
111.090370
20
33.830899
11
110.919041
21
32.456764
0
LINE
8
Image
10
110.919041
20
32.456764
11
110.430312
21
30.880160
0
LINE
8
Image
10
110.430312
20
30.880160
11
109.662069
21
29.162629
0
LINE
8
Image
10
109.662069
20
29.162629
11
108.652201
21
27.365712
0
LINE
8
Image
10
108.652201
20
27.365712
11
107.438594
21
25.550949
0
LINE
8
Image
10
107.438594
20
25.550949
11
106.059135
21
23.779882
0
LINE
8
Image
10
106.059135
20
23.779882
11
104.551711
21
22.114052
0
LINE
8
Image
10
104.551711
20
22.114052
11
102.954210
21
20.614999
0
LINE
8
Image
10
102.954210
20
20.614999
11
101.223784
21
19.247598
0
LINE
8
Image
10
101.223784
20
19.247598
11
99.375081
21
17.998064
0
LINE
8
Image
10
99.375081
20
17.998064
11
97.426982
21
16.869885
0
LINE
8
Image
10
97.426982
20
16.869885
11
95.398368
21
15.866547
0
LINE
8
Image
10
95.398368
20
15.866547
11
91.175120
21
14.248342
0
LINE
8
Image
10
91.175120
20
14.248342
11
86.856384
21
13.171344
0
LINE
8
Image
10
86.856384
20
13.171344
11
82.593207
21
12.663448
0
LINE
8
Image
10
82.593207
20
12.663448
11
80.529656
21
12.631630
0
LINE
8
Image
10
80.529656
20
12.631630
11
78.536638
21
12.752548
0
LINE
8
Image
10
78.536638
20
12.752548
11
76.633033
21
13.029690
0
LINE
8
Image
10
76.633033
20
13.029690
11
74.837723
21
13.466540
0
LINE
8
Image
10
74.837723
20
13.466540
11
73.169588
21
14.066588
0
LINE
8
Image
10
73.169588
20
14.066588
11
71.647510
21
14.833319
0
LINE
8
Image
10
71.647510
20
14.833319
11
69.584738
21
15.934346
0
LINE
8
Image
10
69.584738
20
15.934346
11
67.919623
21
16.458949
0
LINE
8
Image
10
67.919623
20
16.458949
11
66.268356
21
16.469007
0
LINE
8
Image
10
66.268356
20
16.469007
11
64.247130
21
16.026399
0
LINE
8
Image
10
64.247130
20
16.026399
11
60.337082
21
15.242298
0
LINE
8
Image
10
60.337082
20
15.242298
11
56.411110
21
15.026806
0
LINE
8
Image
10
56.411110
20
15.026806
11
52.548707
21
15.355749
0
LINE
8
Image
10
52.548707
20
15.355749
11
48.829368
21
16.204950
0
LINE
8
Image
10
48.829368
20
16.204950
11
45.332586
21
17.550234
0
LINE
8
Image
10
45.332586
20
17.550234
11
42.137857
21
19.367428
0
LINE
8
Image
10
42.137857
20
19.367428
11
40.678603
21
20.445435
0
LINE
8
Image
10
40.678603
20
20.445435
11
39.324673
21
21.632354
0
LINE
8
Image
10
39.324673
20
21.632354
11
38.086003
21
22.925163
0
LINE
8
Image
10
38.086003
20
22.925163
11
36.972530
21
24.320839
0
LINE
8
Image
10
36.972530
20
24.320839
11
35.700723
21
26.304802
0
LINE
8
Image
10
35.700723
20
26.304802
11
34.526919
21
28.567209
0
LINE
8
Image
10
34.526919
20
28.567209
11
33.486720
21
30.994656
0
LINE
8
Image
10
33.486720
20
30.994656
11
32.615725
21
33.473743
0
LINE
8
Image
10
32.615725
20
33.473743
11
31.949537
21
35.891066
0
LINE
8
Image
10
31.949537
20
35.891066
11
31.523756
21
38.133225
0
LINE
8
Image
10
31.523756
20
38.133225
11
31.373983
21
40.086816
0
LINE
8
Image
10
31.373983
20
40.086816
11
31.535820
21
41.638439
0
LINE
8
Image
10
31.535820
20
41.638439
11
31.663113
21
42.381931
0
LINE
8
Image
10
31.663113
20
42.381931
11
31.646597
21
43.111147
0
LINE
8
Image
10
31.646597
20
43.111147
11
31.464113
21
43.866953
0
LINE
8
Image
10
31.464113
20
43.866953
11
31.093505
21
44.690210
0
LINE
8
Image
10
31.093505
20
44.690210
11
29.699288
21
46.702535
0
LINE
8
Image
10
29.699288
20
46.702535
11
27.286690
21
49.475029
0
LINE
8
Image
10
27.286690
20
49.475029
11
23.784921
21
53.525888
0
LINE
8
Image
10
23.784921
20
53.525888
11
20.628373
21
57.622718
0
LINE
8
Image
10
20.628373
20
57.622718
11
17.823118
21
61.736274
0
LINE
8
Image
10
17.823118
20
61.736274
11
15.375228
21
65.837313
0
LINE
8
Image
10
15.375228
20
65.837313
11
13.290773
21
69.896590
0
LINE
8
Image
10
13.290773
20
69.896590
11
11.575826
21
73.884861
0
LINE
8
Image
10
11.575826
20
73.884861
11
10.236458
21
77.772880
0
LINE
8
Image
10
10.236458
20
77.772880
11
9.278740
21
81.531404
0
LINE
8
Image
10
9.278740
20
81.531404
11
8.708744
21
85.131188
0
LINE
8
Image
10
8.708744
20
85.131188
11
8.532542
21
88.542988
0
LINE
8
Image
10
8.532542
20
88.542988
11
8.756204
21
91.737559
0
LINE
8
Image
10
8.756204
20
91.737559
11
9.385803
21
94.685657
0
LINE
8
Image
10
9.385803
20
94.685657
11
10.427409
21
97.358038
0
LINE
8
Image
10
10.427409
20
97.358038
11
11.887095
21
99.725456
0
LINE
8
Image
10
11.887095
20
99.725456
11
13.770931
21
101.758668
0
LINE
8
Image
10
13.770931
20
101.758668
11
16.084990
21
103.428429
0
LINE
8
Image
10
16.084990
20
103.428429
11
17.376539
21
104.090888
0
LINE
8
Image
10
17.376539
20
104.090888
11
18.744390
21
104.616217
0
LINE
8
Image
10
18.744390
20
104.616217
11
21.693613
21
105.258506
0
LINE
8
Image
10
21.693613
20
105.258506
11
24.901881
21
105.361339
0
LINE
8
Image
10
24.901881
20
105.361339
11
28.338421
21
104.930760
0
LINE
8
Image
10
28.338421
20
104.930760
11
31.972457
21
103.972814
0
LINE
8
Image
10
31.972457
20
103.972814
11
35.773214
21
102.493544
0
LINE
8
Image
10
35.773214
20
102.493544
11
39.709917
21
100.498994
0
LINE
8
Image
10
39.709917
20
100.498994
11
43.751790
21
97.995209
0
LINE
8
Image
10
43.751790
20
97.995209
11
46.186329
21
96.478339
0
LINE
8
Image
10
46.186329
20
96.478339
11
48.145348
21
95.669773
0
LINE
8
Image
10
48.145348
20
95.669773
11
50.121740
21
95.439388
0
LINE
8
Image
10
50.121740
20
95.439388
11
52.608400
21
95.657059
0
LINE
8
Image
10
52.608400
20
95.657059
11
55.134613
21
96.074134
0
LINE
8
Image
10
55.134613
20
96.074134
11
55.928495
21
96.326077
0
LINE
8
Image
10
55.928495
20
96.326077
11
56.472383
21
96.664107
0
LINE
8
Image
10
56.472383
20
96.664107
11
56.813390
21
97.131084
0
LINE
8
Image
10
56.813390
20
97.131084
11
56.998634
21
97.769871
0
LINE
8
Image
10
56.998634
20
97.769871
11
57.090290
21
99.734319
0
LINE
8
Image
10
57.090290
20
99.734319
11
57.202678
21
101.394720
0
LINE
8
Image
10
57.202678
20
101.394720
11
57.523264
21
103.101091
0
LINE
8
Image
10
57.523264
20
103.101091
11
58.027182
21
104.799586
0
LINE
8
Image
10
58.027182
20
104.799586
11
58.689566
21
106.436359
0
LINE
8
Image
10
58.689566
20
106.436359
11
59.485550
21
107.957565
0
LINE
8
Image
10
59.485550
20
107.957565
11
60.390268
21
109.309357
0
LINE
8
Image
10
60.390268
20
109.309357
11
61.378853
21
110.437890
0
LINE
8
Image
10
61.378853
20
110.437890
11
62.426440
21
111.289319
0
LINE
8
Image
10
62.426440
20
111.289319
11
65.089195
21
112.654924
0
LINE
8
Image
10
65.089195
20
112.654924
11
68.452540
21
113.962479
0
LINE
8
Image
10
68.452540
20
113.962479
11
70.582590
21
114.743233
0
LINE
8
Image
10
70.582590
20
114.743233
11
71.241457
21
115.113909
0
LINE
8
Image
10
71.241457
20
115.113909
11
71.672816
21
115.531535
0
LINE
8
Image
10
71.672816
20
115.531535
11
71.909114
21
116.041176
0
LINE
8
Image
10
71.909114
20
116.041176
11
71.982797
21
116.687894
0
LINE
8
Image
10
71.982797
20
116.687894
11
71.772110
21
118.572819
0
LINE
8
Image
10
71.772110
20
118.572819
11
71.554188
21
120.972033
0
LINE
8
Image
10
71.554188
20
120.972033
11
71.601570
21
123.698746
0
LINE
8
Image
10
71.601570
20
123.698746
11
71.894042
21
126.652110
0
LINE
8
Image
10
71.894042
20
126.652110
11
72.411393
21
129.731282
0
LINE
8
Image
10
72.411393
20
129.731282
11
73.133407
21
132.835414
0
LINE
8
Image
10
73.133407
20
132.835414
11
74.039874
21
135.863661
0
LINE
8
Image
10
74.039874
20
135.863661
11
75.110579
21
138.715178
0
LINE
8
Image
10
75.110579
20
138.715178
11
76.325310
21
141.289119
0
LINE
8
Image
10
76.325310
20
141.289119
11
77.675825
21
143.526091
0
LINE
8
Image
10
77.675825
20
143.526091
11
79.329091
21
145.786446
0
LINE
8
Image
10
79.329091
20
145.786446
11
81.204598
21
147.992724
0
LINE
8
Image
10
81.204598
20
147.992724
11
83.221838
21
150.067468
0
LINE
8
Image
10
83.221838
20
150.067468
11
85.300298
21
151.933218
0
LINE
8
Image
10
85.300298
20
151.933218
11
87.359470
21
153.512515
0
LINE
8
Image
10
87.359470
20
153.512515
11
89.318844
21
154.727902
0
LINE
8
Image
10
89.318844
20
154.727902
11
91.097910
21
155.501919
0
LINE
8
Image
10
91.097910
20
155.501919
11
91.679463
21
155.736017
0
LINE
8
Image
10
91.679463
20
155.736017
11
92.138085
21
156.061492
0
LINE
8
Image
10
92.138085
20
156.061492
11
92.487839
21
156.529837
0
LINE
8
Image
10
92.487839
20
156.529837
11
92.742793
21
157.192545
0
LINE
8
Image
10
92.742793
20
157.192545
11
93.024554
21
159.307030
0
LINE
8
Image
10
93.024554
20
159.307030
11
93.095890
21
162.816899
0
LINE
8
Image
10
93.095890
20
162.816899
11
93.185158
21
165.725475
0
LINE
8
Image
10
93.185158
20
165.725475
11
93.424170
21
168.704870
0
LINE
8
Image
10
93.424170
20
168.704870
11
93.776493
21
171.405305
0
LINE
8
Image
10
93.776493
20
171.405305
11
94.205690
21
173.476999
0
LINE
8
Image
10
94.205690
20
173.476999
11
94.788964
21
174.973677
0
LINE
8
Image
10
94.788964
20
174.973677
11
95.725677
21
176.678047
0
LINE
8
Image
10
95.725677
20
176.678047
11
96.925625
21
178.479919
0
LINE
8
Image
10
96.925625
20
178.479919
11
98.298601
21
180.269100
0
LINE
8
Image
10
98.298601
20
180.269100
11
99.754401
21
181.935400
0
LINE
8
Image
10
99.754401
20
181.935400
11
101.202817
21
183.368628
0
LINE
8
Image
10
101.202817
20
183.368628
11
102.553646
21
184.458591
0
LINE
8
Image
10
102.553646
20
184.458591
11
103.716680
21
185.095099
0
LINE
8
Image
10
103.716680
20
185.095099
11
103.946746
21
185.520081
0
LINE
8
Image
10
103.946746
20
185.520081
11
104.037667
21
186.602963
0
LINE
8
Image
10
104.037667
20
186.602963
11
103.789443
21
190.876494
0
LINE
8
Image
10
103.789443
20
190.876494
11
102.946750
21
198.183827
0
LINE
8
Image
10
102.946750
20
198.183827
11
101.484330
21
208.793099
0
LINE
8
Image
10
101.484330
20
208.793099
11
99.659129
21
220.971118
0
LINE
8
Image
10
99.659129
20
220.971118
11
98.296488
21
228.500299
0
LINE
8
Image
10
98.296488
20
228.500299
11
97.692153
21
230.965400
0
LINE
8
Image
10
97.692153
20
230.965400
11
97.087689
21
232.800880
0
LINE
8
Image
10
97.087689
20
232.800880
11
96.444508
21
234.184270
0
LINE
8
Image
10
96.444508
20
234.184270
11
95.724020
21
235.293099
0
LINE
8
Image
10
95.724020
20
235.293099
11
93.599873
21
238.491975
0
LINE
8
Image
10
93.599873
20
238.491975
11
92.965092
21
239.804946
0
LINE
8
Image
10
92.965092
20
239.804946
11
92.612254
21
240.941389
0
LINE
8
Image
10
92.612254
20
240.941389
11
92.539167
21
241.912140
0
LINE
8
Image
10
92.539167
20
241.912140
11
92.743640
21
242.728036
0
LINE
8
Image
10
92.743640
20
242.728036
11
93.223485
21
243.399913
0
LINE
8
Image
10
93.223485
20
243.399913
11
93.976510
21
243.938609
0
LINE
8
Image
10
93.976510
20
243.938609
11
95.028058
21
244.355940
0
LINE
8
Image
10
95.028058
20
244.355940
11
96.355187
21
244.647722
0
LINE
8
Image
10
96.355187
20
244.647722
11
99.640168
21
244.856787
0
LINE
8
Image
10
99.640168
20
244.856787
11
103.439419
21
244.570097
0
LINE
8
Image
10
103.439419
20
244.570097
11
107.360910
21
243.791949
0
LINE
8
Image
10
107.360910
20
243.791949
11
107.361000
21
243.792000
 0 
ENDSEC
 0 
EOF