999
Inkscape export via OpenSCAD DXF Export
  0
SECTION
  2
HEADER
  9
$ACADVER
  1
AC1014
  9
$HANDSEED
  5
FFFF
  9
$MEASUREMENT
 70
     1
  0
ENDSEC
  0
SECTION
  2
TABLES
  0
TABLE
  2
VPORT
  5
8
330
0
100
AcDbSymbolTable
 70
     4
  0
VPORT
  5
2E
330
8
100
AcDbSymbolTableRecord
100
AcDbViewportTableRecord
  2
*ACTIVE
 70
     0
 10
0.0
 20
0.0
 11
1.0
 21
1.0
 12
210.0
 22
148.5
 13
0.0
 23
0.0
 14
10.0
 24
10.0
 15
10.0
 25
10.0
 16
0.0
 26
0.0
 36
1.0
 17
0.0
 27
0.0
 37
0.0
 40
341.0
 41
1.24
 42
50.0
 43
0.0
 44
0.0
 50
0.0
 51
0.0
 71
     0
 72
   100
 73
     1
 74
     3
 75
     0
 76
     0
 77
     0
 78
     0
  0
ENDTAB
  0
TABLE
  2
LTYPE
  5
5
330
0
100
AcDbSymbolTable
 70
     1
  0
LTYPE
  5
14
330
5
100
AcDbSymbolTableRecord
100
AcDbLinetypeTableRecord
  2
BYBLOCK
 70
     0
  3

 72
    65
 73
     0
 40
0.0
  0
LTYPE
  5
15
330
5
100
AcDbSymbolTableRecord
100
AcDbLinetypeTableRecord
  2
BYLAYER
 70
     0
  3

 72
    65
 73
     0
 40
0.0
  0
LTYPE
  5
16
330
5
100
AcDbSymbolTableRecord
100
AcDbLinetypeTableRecord
  2
CONTINUOUS
 70
     0
  3
Solid line
 72
    65
 73
     0
 40
0.0
  0
ENDTAB
  0
TABLE
0
TABLE
2
LAYER
5
2
330
0
100
AcDbSymbolTable
70
1
0
LAYER
5
10
330
2
100
AcDbSymbolTableRecord
100
AcDbLayerTableRecord
2
Layer_1
70
0
62
7
6
CONTINUOUS
0
ENDTAB
0
ENDSEC
  0
ENDTAB
  0
TABLE
  2
STYLE
  5
3
330
0
100
AcDbSymbolTable
 70
     1
  0
STYLE
  5
11
330
3
100
AcDbSymbolTableRecord
100
AcDbTextStyleTableRecord
  2
STANDARD
 70
     0
 40
0.0
 41
1.0
 50
0.0
 71
     0
 42
2.5
  3
txt
  4

  0
ENDTAB
  0
TABLE
  2
VIEW
  5
6
330
0
100
AcDbSymbolTable
 70
     0
  0
ENDTAB
  0
TABLE
  2
UCS
  5
7
330
0
100
AcDbSymbolTable
 70
     0
  0
ENDTAB
  0
TABLE
  2
APPID
  5
9
330
0
100
AcDbSymbolTable
 70
     2
  0
APPID
  5
12
330
9
100
AcDbSymbolTableRecord
100
AcDbRegAppTableRecord
  2
ACAD
 70
     0
  0
ENDTAB
  0
TABLE
  2
DIMSTYLE
  5
A
330
0
100
AcDbSymbolTable
 70
     1
  0
DIMSTYLE
105
27
330
A
100
AcDbSymbolTableRecord
100
AcDbDimStyleTableRecord
  2
ISO-25
 70
     0
  3

  4

  5

  6

  7

 40
1.0
 41
2.5
 42
0.625
 43
3.75
 44
1.25
 45
0.0
 46
0.0
 47
0.0
 48
0.0
140
2.5
141
2.5
142
0.0
143
0.03937007874016
144
1.0
145
0.0
146
1.0
147
0.625
 71
     0
 72
     0
 73
     0
 74
     0
 75
     0
 76
     0
 77
     1
 78
     8
170
     0
171
     3
172
     1
173
     0
174
     0
175
     0
176
     0
177
     0
178
     0
270
     2
271
     2
272
     2
273
     2
274
     3
340
11
275
     0
280
     0
281
     0
282
     0
283
     0
284
     8
285
     0
286
     0
287
     3
288
     0
  0
ENDTAB
  0
TABLE
  2
BLOCK_RECORD
  5
1
330
0
100
AcDbSymbolTable
 70
     1
  0
BLOCK_RECORD
  5
1F
330
1
100
AcDbSymbolTableRecord
100
AcDbBlockTableRecord
  2
*MODEL_SPACE
  0
BLOCK_RECORD
  5
1B
330
1
100
AcDbSymbolTableRecord
100
AcDbBlockTableRecord
  2
*PAPER_SPACE
  0
ENDTAB
  0
ENDSEC
  0
SECTION
  2
BLOCKS
  0
BLOCK
  5
20
330
1F
100
AcDbEntity
  8
0
100
AcDbBlockBegin
  2
*MODEL_SPACE
 70
     0
 10
0.0
 20
0.0
 30
0.0
  3
*MODEL_SPACE
  1

  0
ENDBLK
  5
21
330
1F
100
AcDbEntity
  8
0
100
AcDbBlockEnd
  0
BLOCK
  5
1C
330
1B
100
AcDbEntity
 67
     1
  8
0
100
AcDbBlockBegin
  2
*PAPER_SPACE
  1

  0
ENDBLK
  5
1D
330
1B
100
AcDbEntity
 67
     1
  8
0
100
AcDbBlockEnd
  0
ENDSEC
  0
SECTION
  2
ENTITIES
0
DIMENSION
5
83
100
AcDbEntity
62
256
370
-1
6
ByLayer
1
total_width
3
Standard
70
0
71
5
72
1
41
1.0
100
AcDbAlignedDimension
13
0.651330
23
0.000000
33
0.0
14
30.410810
24
0.000000
34
0.0
50
0.000000
100
AcDbRotatedDimension
0
DIMENSION
5
83
100
AcDbEntity
62
256
370
-1
6
ByLayer
1
total_minx
3
Standard
70
0
71
5
72
1
41
1.0
100
AcDbAlignedDimension
13
0.651330
23
0.000000
33
0.0
14
0.000000
24
0.000000
34
0.0
50
0.000000
100
AcDbRotatedDimension
0
DIMENSION
5
83
100
AcDbEntity
62
256
370
-1
6
ByLayer
1
total_maxx
3
Standard
70
0
71
5
72
1
41
1.0
100
AcDbAlignedDimension
13
0.000000
23
0.000000
33
0.0
14
30.410810
24
0.000000
34
0.0
50
0.000000
100
AcDbRotatedDimension
0
DIMENSION
5
83
100
AcDbEntity
62
256
370
-1
6
ByLayer
1
total_height
3
Standard
70
0
71
5
72
1
41
1.0
100
AcDbAlignedDimension
13
0.000000
23
0.564444
33
0.0
14
0.000000
24
30.986024
34
0.0
50
90.000000
100
AcDbRotatedDimension
0
DIMENSION
5
83
100
AcDbEntity
62
256
370
-1
6
ByLayer
1
total_miny
3
Standard
70
0
71
5
72
1
41
1.0
100
AcDbAlignedDimension
13
0.564444
23
0.000000
33
0.0
14
0.000000
24
0.000000
34
0.0
50
0.000000
100
AcDbRotatedDimension
0
DIMENSION
5
83
100
AcDbEntity
62
256
370
-1
6
ByLayer
1
total_maxy
3
Standard
70
0
71
5
72
1
41
1.0
100
AcDbAlignedDimension
13
0.000000
23
0.000000
33
0.0
14
30.986024
24
0.000000
34
0.0
50
0.000000
100
AcDbRotatedDimension
0
DIMENSION
8
Layer_1
5
83
100
AcDbEntity
62
256
370
-1
6
ByLayer
1
Layer_1_width
3
Standard
70
0
71
5
72
1
41
1.0
100
AcDbAlignedDimension
13
0.651330
23
0.000000
33
0.0
14
30.410810
24
0.000000
34
0.0
50
0.000000
100
AcDbRotatedDimension
0
DIMENSION
8
Layer_1
5
83
100
AcDbEntity
62
256
370
-1
6
ByLayer
1
Layer_1_minx
3
Standard
70
0
71
5
72
1
41
1.0
100
AcDbAlignedDimension
13
0.651330
23
0.000000
33
0.0
14
0.000000
24
0.000000
34
0.0
50
0.000000
100
AcDbRotatedDimension
0
DIMENSION
8
Layer_1
5
83
100
AcDbEntity
62
256
370
-1
6
ByLayer
1
Layer_1_maxx
3
Standard
70
0
71
5
72
1
41
1.0
100
AcDbAlignedDimension
13
0.000000
23
0.000000
33
0.0
14
30.410810
24
0.000000
34
0.0
50
0.000000
100
AcDbRotatedDimension
0
DIMENSION
8
Layer_1
5
83
100
AcDbEntity
62
256
370
-1
6
ByLayer
1
Layer_1_height
3
Standard
70
0
71
5
72
1
41
1.0
100
AcDbAlignedDimension
13
0.000000
23
0.564444
33
0.0
14
0.000000
24
30.986024
34
0.0
50
90.000000
100
AcDbRotatedDimension
0
DIMENSION
8
Layer_1
5
83
100
AcDbEntity
62
256
370
-1
6
ByLayer
1
Layer_1_miny
3
Standard
70
0
71
5
72
1
41
1.0
100
AcDbAlignedDimension
13
0.564444
23
0.000000
33
0.0
14
0.000000
24
0.000000
34
0.0
50
0.000000
100
AcDbRotatedDimension
0
DIMENSION
8
Layer_1
5
83
100
AcDbEntity
62
256
370
-1
6
ByLayer
1
Layer_1_maxy
3
Standard
70
0
71
5
72
1
41
1.0
100
AcDbAlignedDimension
13
0.000000
23
0.000000
33
0.0
14
30.986024
24
0.000000
34
0.0
50
0.000000
100
AcDbRotatedDimension
62
0
0
LWPOLYLINE
100
AcDbPolyline
8
Layer_1
90
72
70
0
10
4.034313
20
0.866307
30
0.0
10
3.252749
20
1.235934
30
0.0
10
2.698062
20
1.808603
30
0.0
10
2.367368
20
2.588725
30
0.0
10
2.257778
20
3.580711
30
0.0
10
2.364851
20
4.731282
30
0.0
10
2.732524
20
6.113736
30
0.0
10
4.528407
20
10.412987
30
0.0
10
5.455771
20
12.562232
30
0.0
10
5.771134
20
13.570001
30
0.0
10
4.589228
20
13.960309
30
0.0
10
2.346874
20
14.673787
30
0.0
10
1.327841
20
15.310414
30
0.0
10
0.826182
20
16.325971
30
0.0
10
0.651330
20
17.496704
30
0.0
10
1.160419
20
18.819289
30
0.0
10
1.982158
20
20.046245
30
0.0
10
3.235490
20
21.217566
30
0.0
10
5.000038
20
22.395226
30
0.0
10
7.355421
20
23.641197
30
0.0
10
10.054176
20
24.952387
30
0.0
10
10.387475
20
26.355495
30
0.0
10
11.030783
20
28.083055
30
0.0
10
12.031270
20
29.452707
30
0.0
10
13.342206
20
30.417260
30
0.0
10
14.916864
20
30.929526
30
0.0
10
15.826508
20
30.986024
30
0.0
10
16.689161
20
30.861733
30
0.0
10
17.497355
20
30.562428
30
0.0
10
18.243624
20
30.093884
30
0.0
10
18.920498
20
29.461876
30
0.0
10
19.520512
20
28.672178
30
0.0
10
20.460087
20
26.642812
30
0.0
10
20.836473
20
25.553076
30
0.0
10
21.196040
20
24.922654
30
0.0
10
21.742099
20
24.519513
30
0.0
10
22.677964
20
24.111617
30
0.0
10
25.271329
20
22.785104
30
0.0
10
27.631134
20
21.103502
30
0.0
10
29.427808
20
19.339976
30
0.0
10
30.011980
20
18.512857
30
0.0
10
30.331780
20
17.767695
30
0.0
10
30.410810
20
17.150648
30
0.0
10
30.328956
20
16.572102
30
0.0
10
30.086765
20
16.032601
30
0.0
10
29.684784
20
15.532691
30
0.0
10
28.403643
20
14.653825
30
0.0
10
26.489909
20
13.939865
30
0.0
10
24.898708
20
13.490006
30
0.0
10
26.409846
20
10.161606
30
0.0
10
28.383123
20
5.170988
30
0.0
10
28.702441
20
3.604008
30
0.0
10
28.402794
20
2.449785
30
0.0
10
27.799712
20
1.498022
30
0.0
10
26.789791
20
0.922956
30
0.0
10
25.107539
20
0.639969
30
0.0
10
22.487467
20
0.564444
30
0.0
10
19.953446
20
0.652369
30
0.0
10
18.333122
20
1.037985
30
0.0
10
17.741264
20
1.399542
30
0.0
10
17.228632
20
1.904060
30
0.0
10
16.242111
20
3.433358
30
0.0
10
15.360088
20
5.032272
30
0.0
10
14.577089
20
3.536763
30
0.0
10
13.653902
20
1.949266
30
0.0
10
13.207107
20
1.447070
30
0.0
10
12.688024
20
1.099185
30
0.0
10
11.186523
20
0.746164
30
0.0
10
8.656468
20
0.649848
30
0.0
10
5.765209
20
0.690454
30
0.0
10
4.034313
20
0.866307
30
0.0
10
4.034313
20
0.866307
30
0.0
62
0
0
LWPOLYLINE
100
AcDbPolyline
8
Layer_1
90
58
70
0
10
12.723545
20
6.914444
30
0.0
10
14.128397
20
9.426725
30
0.0
10
14.615886
20
10.011046
30
0.0
10
15.056314
20
10.286596
30
0.0
10
15.745151
20
10.374131
30
0.0
10
16.376269
20
9.945328
30
0.0
10
17.134165
20
8.789740
30
0.0
10
18.203333
20
6.696921
30
0.0
10
19.614444
20
3.810000
30
0.0
10
22.639150
20
3.729989
30
0.0
10
25.663856
20
3.649979
30
0.0
10
25.266997
20
4.774796
30
0.0
10
22.841612
20
10.282668
30
0.0
10
21.460603
20
13.406864
30
0.0
10
21.158281
20
14.396395
30
0.0
10
21.135140
20
15.103258
30
0.0
10
21.406478
20
15.601735
30
0.0
10
21.987589
20
15.966109
30
0.0
10
24.140318
20
16.589678
30
0.0
10
26.748632
20
17.341225
30
0.0
10
26.736873
20
17.615114
30
0.0
10
26.382196
20
18.047600
30
0.0
10
24.892734
20
19.218291
30
0.0
10
22.777529
20
20.513162
30
0.0
10
20.533862
20
21.592076
30
0.0
10
19.289466
20
22.187425
30
0.0
10
18.479470
20
22.879497
30
0.0
10
17.969096
20
23.836638
30
0.0
10
17.623565
20
25.227192
30
0.0
10
17.254646
20
26.254373
30
0.0
10
16.652993
20
27.183240
30
0.0
10
15.870843
20
27.862377
30
0.0
10
15.516137
20
27.860728
30
0.0
10
15.018159
20
27.682789
30
0.0
10
14.387870
20
27.274252
30
0.0
10
13.860265
20
26.614683
30
0.0
10
13.436995
20
25.706803
30
0.0
10
13.119711
20
24.553333
30
0.0
10
12.825984
20
23.517247
30
0.0
10
12.295797
20
22.767901
30
0.0
10
11.274748
20
22.067546
30
0.0
10
9.508439
20
21.178434
30
0.0
10
5.713715
20
19.052568
30
0.0
10
4.438421
20
18.127084
30
0.0
10
3.951111
20
17.537766
30
0.0
10
4.704813
20
17.190635
30
0.0
10
6.516903
20
16.659896
30
0.0
10
8.454830
20
16.054498
30
0.0
10
9.254459
20
15.550796
30
0.0
10
9.404569
20
14.672336
30
0.0
10
9.207728
20
13.481141
30
0.0
10
8.605730
20
11.765407
30
0.0
10
7.540371
20
9.313333
30
0.0
10
5.486368
20
4.434761
30
0.0
10
5.295892
20
3.648411
30
0.0
10
8.221835
20
3.729205
30
0.0
10
11.147778
20
3.810000
30
0.0
10
12.723545
20
6.914444
30
0.0
  0
ENDSEC
  0
SECTION
  2
OBJECTS
  0
DICTIONARY
  5
C
330
0
100
AcDbDictionary
  3
ACAD_GROUP
350
D
  3
ACAD_MLINESTYLE
350
17
  0
DICTIONARY
  5
D
330
C
100
AcDbDictionary
  0
DICTIONARY
  5
1A
330
C
100
AcDbDictionary
  0
DICTIONARY
  5
17
330
C
100
AcDbDictionary
  3
STANDARD
350
18
  0
DICTIONARY
  5
19
330
C
100
AcDbDictionary
  0
ENDSEC
  0
EOF
