  0
SECTION
  2
HEADER
  9
$ACADVER
  1
AC1014
  9
$HANDSEED
  5
FFFF
  9
$MEASUREMENT
 70
     1
  0
ENDSEC
  0
SECTION
  2
TABLES
  0
TABLE
  2
VPORT
  5
8
330
0
100
AcDbSymbolTable
 70
     4
  0
VPORT
  5
2E
330
8
100
AcDbSymbolTableRecord
100
AcDbViewportTableRecord
  2
*ACTIVE
 70
     0
 10
0.0
 20
0.0
 11
1.0
 21
1.0
 12
210.0
 22
148.5
 13
0.0
 23
0.0
 14
10.0
 24
10.0
 15
10.0
 25
10.0
 16
0.0
 26
0.0
 36
1.0
 17
0.0
 27
0.0
 37
0.0
 40
341.0
 41
1.24
 42
50.0
 43
0.0
 44
0.0
 50
0.0
 51
0.0
 71
     0
 72
   100
 73
     1
 74
     3
 75
     0
 76
     0
 77
     0
 78
     0
  0
ENDTAB
  0
TABLE
  2
LTYPE
  5
5
330
0
100
AcDbSymbolTable
 70
     1
  0
LTYPE
  5
14
330
5
100
AcDbSymbolTableRecord
100
AcDbLinetypeTableRecord
  2
BYBLOCK
 70
     0
  3

 72
    65
 73
     0
 40
0.0
  0
LTYPE
  5
15
330
5
100
AcDbSymbolTableRecord
100
AcDbLinetypeTableRecord
  2
BYLAYER
 70
     0
  3

 72
    65
 73
     0
 40
0.0
  0
LTYPE
  5
16
330
5
100
AcDbSymbolTableRecord
100
AcDbLinetypeTableRecord
  2
CONTINUOUS
 70
     0
  3
Solid line
 72
    65
 73
     0
 40
0.0
  0
ENDTAB
  0
TABLE
  2
LAYER
  5
2
100
AcDbSymbolTable
 70
1
  0
LAYER
  5
50
100
AcDbSymbolTableRecord
100
AcDbLayerTableRecord
  2
0
 70
0
  6
CONTINUOUS
  0
ENDTAB
  0
TABLE
  2
STYLE
  5
3
330
0
100
AcDbSymbolTable
 70
     1
  0
STYLE
  5
11
330
3
100
AcDbSymbolTableRecord
100
AcDbTextStyleTableRecord
  2
STANDARD
 70
     0
 40
0.0
 41
1.0
 50
0.0
 71
     0
 42
2.5
  3
txt
  4

  0
ENDTAB
  0
TABLE
  2
VIEW
  5
6
330
0
100
AcDbSymbolTable
 70
     0
  0
ENDTAB
  0
TABLE
  2
UCS
  5
7
330
0
100
AcDbSymbolTable
 70
     0
  0
ENDTAB
  0
TABLE
  2
APPID
  5
9
330
0
100
AcDbSymbolTable
 70
     2
  0
APPID
  5
12
330
9
100
AcDbSymbolTableRecord
100
AcDbRegAppTableRecord
  2
ACAD
 70
     0
  0
ENDTAB
  0
TABLE
  2
DIMSTYLE
  5
A
330
0
100
AcDbSymbolTable
 70
     1
  0
DIMSTYLE
105
27
330
A
100
AcDbSymbolTableRecord
100
AcDbDimStyleTableRecord
  2
ISO-25
 70
     0
  3

  4

  5

  6

  7

 40
1.0
 41
2.5
 42
0.625
 43
3.75
 44
1.25
 45
0.0
 46
0.0
 47
0.0
 48
0.0
140
2.5
141
2.5
142
0.0
143
0.03937007874016
144
1.0
145
0.0
146
1.0
147
0.625
 71
     0
 72
     0
 73
     0
 74
     0
 75
     0
 76
     0
 77
     1
 78
     8
170
     0
171
     3
172
     1
173
     0
174
     0
175
     0
176
     0
177
     0
178
     0
270
     2
271
     2
272
     2
273
     2
274
     3
340
11
275
     0
280
     0
281
     0
282
     0
283
     0
284
     8
285
     0
286
     0
287
     3
288
     0
  0
ENDTAB
  0
TABLE
  2
BLOCK_RECORD
  5
1
330
0
100
AcDbSymbolTable
 70
     1
  0
BLOCK_RECORD
  5
1F
330
1
100
AcDbSymbolTableRecord
100
AcDbBlockTableRecord
  2
*MODEL_SPACE
  0
BLOCK_RECORD
  5
1B
330
1
100
AcDbSymbolTableRecord
100
AcDbBlockTableRecord
  2
*PAPER_SPACE
  0
ENDTAB
  0
ENDSEC
  0
SECTION
  2
BLOCKS
  0
BLOCK
  5
20
330
1F
100
AcDbEntity
  8
0
100
AcDbBlockBegin
  2
*MODEL_SPACE
 70
     0
 10
0.0
 20
0.0
 30
0.0
  3
*MODEL_SPACE
  1

  0
ENDBLK
  5
21
330
1F
100
AcDbEntity
  8
0
100
AcDbBlockEnd
  0
BLOCK
  5
1C
330
1B
100
AcDbEntity
 67
     1
  8
0
100
AcDbBlockBegin
  2
*PAPER_SPACE
  1

  0
ENDBLK
  5
1D
330
1B
100
AcDbEntity
 67
     1
  8
0
100
AcDbBlockEnd
  0
ENDSEC
  0
SECTION
  2
ENTITIES
  0
LWPOLYLINE
  5
100
100
AcDbEntity
  8
0
 62
7
100
AcDbPolyline
 90
5
 70
0
 10
60.742409
 20
41.608553
 30
0.0
 10
58.382944
 20
44.925913
 30
0.0
 10
57.401575
 20
48.210330
 30
0.0
 10
69.139069
 20
88.983666
 30
0.0
 10
82.139986
 20
134.301487
 30
0.0
  0
LWPOLYLINE
  5
101
100
AcDbEntity
  8
0
 62
7
100
AcDbPolyline
 90
11
 70
0
 10
73.059973
 20
143.515639
 30
0.0
 10
58.216434
 20
146.382776
 30
0.0
 10
54.303191
 20
148.423520
 30
0.0
 10
50.951701
 20
151.511854
 30
0.0
 10
47.798431
 20
156.785169
 30
0.0
 10
46.866431
 20
162.849655
 30
0.0
 10
48.131456
 20
168.828446
 30
0.0
 10
51.569258
 20
173.844677
 30
0.0
 10
54.789571
 20
176.138615
 30
0.0
 10
59.294450
 20
177.747603
 30
0.0
 10
75.869748
 20
179.824065
 30
0.0
  0
LWPOLYLINE
  5
102
100
AcDbEntity
  8
0
 62
7
100
AcDbPolyline
 90
3
 70
0
 10
82.139986
 20
134.301487
 30
0.0
 10
83.403411
 20
142.106933
 30
0.0
 10
73.059973
 20
143.515639
 30
0.0
  0
LWPOLYLINE
  5
103
100
AcDbEntity
  8
0
 62
7
100
AcDbPolyline
 90
15
 70
0
 10
94.249905
 20
195.352895
 30
0.0
 10
94.755217
 20
212.823737
 30
0.0
 10
99.883190
 20
239.989085
 30
0.0
 10
105.049737
 20
261.686387
 30
0.0
 10
109.424607
 20
275.540158
 30
0.0
 10
113.661151
 20
283.181225
 30
0.0
 10
118.412725
 20
286.240416
 30
0.0
 10
122.416628
 20
286.839274
 30
0.0
 10
125.840705
 20
286.280883
 30
0.0
 10
128.834732
 20
284.303426
 30
0.0
 10
131.548489
 20
280.645085
 30
0.0
 10
136.734303
 20
267.238481
 30
0.0
 10
142.596374
 20
243.966529
 30
0.0
 10
147.538290
 20
218.090968
 30
0.0
 10
148.393321
 20
198.523443
 30
0.0
  0
LWPOLYLINE
  5
104
100
AcDbEntity
  8
0
 62
7
100
AcDbPolyline
 90
3
 70
0
 10
75.869748
 20
179.824065
 30
0.0
 10
95.372634
 20
181.296338
 30
0.0
 10
94.249905
 20
195.352895
 30
0.0
  0
LWPOLYLINE
  5
105
100
AcDbEntity
  8
0
 62
7
100
AcDbPolyline
 90
23
 70
0
 10
166.737092
 20
179.917373
 30
0.0
 10
181.417221
 20
178.299882
 30
0.0
 10
190.205400
 20
175.466085
 30
0.0
 10
192.818496
 20
173.340628
 30
0.0
 10
194.472790
 20
170.608161
 30
0.0
 10
195.590552
 20
162.918287
 30
0.0
 10
194.627459
 20
155.288647
 30
0.0
 10
191.182257
 20
150.088841
 30
0.0
 10
184.421060
 20
146.609785
 30
0.0
 10
173.509982
 20
144.142399
 30
0.0
 10
163.579286
 20
142.021649
 30
0.0
 10
159.448819
 20
140.194757
 30
0.0
 10
179.555550
 20
72.442596
 30
0.0
 10
183.044782
 20
60.806028
 30
0.0
 10
184.681969
 20
51.673618
 30
0.0
 10
184.469421
 20
45.019773
 30
0.0
 10
182.409448
 20
40.818898
 30
0.0
 10
178.114324
 20
39.635874
 30
0.0
 10
167.313721
 20
38.846061
 30
0.0
 10
121.970756
 20
38.267717
 30
0.0
 10
73.762764
 20
38.860563
 30
0.0
 10
64.519834
 20
39.874279
 30
0.0
 10
60.742409
 20
41.608553
 30
0.0
  0
LWPOLYLINE
  5
106
100
AcDbEntity
  8
0
 62
7
100
AcDbPolyline
 90
3
 70
0
 10
148.393321
 20
198.523443
 30
0.0
 10
147.755905
 20
181.259481
 30
0.0
 10
166.737092
 20
179.917373
 30
0.0
  0
ENDSEC
  0
SECTION
  2
OBJECTS
  0
DICTIONARY
  5
C
330
0
100
AcDbDictionary
  3
ACAD_GROUP
350
D
  3
ACAD_MLINESTYLE
350
17
  0
DICTIONARY
  5
D
330
C
100
AcDbDictionary
  0
DICTIONARY
  5
1A
330
C
100
AcDbDictionary
  0
DICTIONARY
  5
17
330
C
100
AcDbDictionary
  3
STANDARD
350
18
  0
DICTIONARY
  5
19
330
C
100
AcDbDictionary
  0
ENDSEC
  0
EOF
