999
Inkscape export via OpenSCAD DXF Export
  0
SECTION
  2
HEADER
  9
$ACADVER
  1
AC1014
  9
$HANDSEED
  5
FFFF
  9
$MEASUREMENT
 70
     1
  0
ENDSEC
  0
SECTION
  2
TABLES
  0
TABLE
  2
VPORT
  5
8
330
0
100
AcDbSymbolTable
 70
     4
  0
VPORT
  5
2E
330
8
100
AcDbSymbolTableRecord
100
AcDbViewportTableRecord
  2
*ACTIVE
 70
     0
 10
0.0
 20
0.0
 11
1.0
 21
1.0
 12
210.0
 22
148.5
 13
0.0
 23
0.0
 14
10.0
 24
10.0
 15
10.0
 25
10.0
 16
0.0
 26
0.0
 36
1.0
 17
0.0
 27
0.0
 37
0.0
 40
341.0
 41
1.24
 42
50.0
 43
0.0
 44
0.0
 50
0.0
 51
0.0
 71
     0
 72
   100
 73
     1
 74
     3
 75
     0
 76
     0
 77
     0
 78
     0
  0
ENDTAB
  0
TABLE
  2
LTYPE
  5
5
330
0
100
AcDbSymbolTable
 70
     1
  0
LTYPE
  5
14
330
5
100
AcDbSymbolTableRecord
100
AcDbLinetypeTableRecord
  2
BYBLOCK
 70
     0
  3

 72
    65
 73
     0
 40
0.0
  0
LTYPE
  5
15
330
5
100
AcDbSymbolTableRecord
100
AcDbLinetypeTableRecord
  2
BYLAYER
 70
     0
  3

 72
    65
 73
     0
 40
0.0
  0
LTYPE
  5
16
330
5
100
AcDbSymbolTableRecord
100
AcDbLinetypeTableRecord
  2
CONTINUOUS
 70
     0
  3
Solid line
 72
    65
 73
     0
 40
0.0
  0
ENDTAB
  0
TABLE
0
TABLE
2
LAYER
5
2
330
0
100
AcDbSymbolTable
70
2
0
LAYER
5
10
330
2
100
AcDbSymbolTableRecord
100
AcDbLayerTableRecord
2
Layer_1
70
0
62
7
6
CONTINUOUS
0
LAYER
5
10
330
2
100
AcDbSymbolTableRecord
100
AcDbLayerTableRecord
2
0
70
0
62
7
6
CONTINUOUS
0
ENDTAB
0
ENDSEC
  0
ENDTAB
  0
TABLE
  2
STYLE
  5
3
330
0
100
AcDbSymbolTable
 70
     1
  0
STYLE
  5
11
330
3
100
AcDbSymbolTableRecord
100
AcDbTextStyleTableRecord
  2
STANDARD
 70
     0
 40
0.0
 41
1.0
 50
0.0
 71
     0
 42
2.5
  3
txt
  4

  0
ENDTAB
  0
TABLE
  2
VIEW
  5
6
330
0
100
AcDbSymbolTable
 70
     0
  0
ENDTAB
  0
TABLE
  2
UCS
  5
7
330
0
100
AcDbSymbolTable
 70
     0
  0
ENDTAB
  0
TABLE
  2
APPID
  5
9
330
0
100
AcDbSymbolTable
 70
     2
  0
APPID
  5
12
330
9
100
AcDbSymbolTableRecord
100
AcDbRegAppTableRecord
  2
ACAD
 70
     0
  0
ENDTAB
  0
TABLE
  2
DIMSTYLE
  5
A
330
0
100
AcDbSymbolTable
 70
     1
  0
DIMSTYLE
105
27
330
A
100
AcDbSymbolTableRecord
100
AcDbDimStyleTableRecord
  2
ISO-25
 70
     0
  3

  4

  5

  6

  7

 40
1.0
 41
2.5
 42
0.625
 43
3.75
 44
1.25
 45
0.0
 46
0.0
 47
0.0
 48
0.0
140
2.5
141
2.5
142
0.0
143
0.03937007874016
144
1.0
145
0.0
146
1.0
147
0.625
 71
     0
 72
     0
 73
     0
 74
     0
 75
     0
 76
     0
 77
     1
 78
     8
170
     0
171
     3
172
     1
173
     0
174
     0
175
     0
176
     0
177
     0
178
     0
270
     2
271
     2
272
     2
273
     2
274
     3
340
11
275
     0
280
     0
281
     0
282
     0
283
     0
284
     8
285
     0
286
     0
287
     3
288
     0
  0
ENDTAB
  0
TABLE
  2
BLOCK_RECORD
  5
1
330
0
100
AcDbSymbolTable
 70
     1
  0
BLOCK_RECORD
  5
1F
330
1
100
AcDbSymbolTableRecord
100
AcDbBlockTableRecord
  2
*MODEL_SPACE
  0
BLOCK_RECORD
  5
1B
330
1
100
AcDbSymbolTableRecord
100
AcDbBlockTableRecord
  2
*PAPER_SPACE
  0
ENDTAB
  0
ENDSEC
  0
SECTION
  2
BLOCKS
  0
BLOCK
  5
20
330
1F
100
AcDbEntity
  8
0
100
AcDbBlockBegin
  2
*MODEL_SPACE
 70
     0
 10
0.0
 20
0.0
 30
0.0
  3
*MODEL_SPACE
  1

  0
ENDBLK
  5
21
330
1F
100
AcDbEntity
  8
0
100
AcDbBlockEnd
  0
BLOCK
  5
1C
330
1B
100
AcDbEntity
 67
     1
  8
0
100
AcDbBlockBegin
  2
*PAPER_SPACE
  1

  0
ENDBLK
  5
1D
330
1B
100
AcDbEntity
 67
     1
  8
0
100
AcDbBlockEnd
  0
ENDSEC
  0
SECTION
  2
ENTITIES
0
DIMENSION
5
83
100
AcDbEntity
62
256
370
-1
6
ByLayer
1
total_width
3
Standard
70
0
71
5
72
1
41
1.0
100
AcDbAlignedDimension
13
-0.846667
23
0.000000
33
0.0
14
167.511208
24
0.000000
34
0.0
50
0.000000
100
AcDbRotatedDimension
0
DIMENSION
5
83
100
AcDbEntity
62
256
370
-1
6
ByLayer
1
total_minx
3
Standard
70
0
71
5
72
1
41
1.0
100
AcDbAlignedDimension
13
-0.846667
23
0.000000
33
0.0
14
0.000000
24
0.000000
34
0.0
50
0.000000
100
AcDbRotatedDimension
0
DIMENSION
5
83
100
AcDbEntity
62
256
370
-1
6
ByLayer
1
total_maxx
3
Standard
70
0
71
5
72
1
41
1.0
100
AcDbAlignedDimension
13
0.000000
23
0.000000
33
0.0
14
167.511208
24
0.000000
34
0.0
50
0.000000
100
AcDbRotatedDimension
0
DIMENSION
5
83
100
AcDbEntity
62
256
370
-1
6
ByLayer
1
total_height
3
Standard
70
0
71
5
72
1
41
1.0
100
AcDbAlignedDimension
13
0.000000
23
24.545970
33
0.0
14
0.000000
24
318.211111
34
0.0
50
90.000000
100
AcDbRotatedDimension
0
DIMENSION
5
83
100
AcDbEntity
62
256
370
-1
6
ByLayer
1
total_miny
3
Standard
70
0
71
5
72
1
41
1.0
100
AcDbAlignedDimension
13
24.545970
23
0.000000
33
0.0
14
0.000000
24
0.000000
34
0.0
50
0.000000
100
AcDbRotatedDimension
0
DIMENSION
5
83
100
AcDbEntity
62
256
370
-1
6
ByLayer
1
total_maxy
3
Standard
70
0
71
5
72
1
41
1.0
100
AcDbAlignedDimension
13
0.000000
23
0.000000
33
0.0
14
318.211111
24
0.000000
34
0.0
50
0.000000
100
AcDbRotatedDimension
0
DIMENSION
8
Layer_1
5
83
100
AcDbEntity
62
256
370
-1
6
ByLayer
1
Layer_1_width
3
Standard
70
0
71
5
72
1
41
1.0
100
AcDbAlignedDimension
13
-0.846667
23
0.000000
33
0.0
14
2.257778
24
0.000000
34
0.0
50
0.000000
100
AcDbRotatedDimension
0
DIMENSION
8
Layer_1
5
83
100
AcDbEntity
62
256
370
-1
6
ByLayer
1
Layer_1_minx
3
Standard
70
0
71
5
72
1
41
1.0
100
AcDbAlignedDimension
13
-0.846667
23
0.000000
33
0.0
14
0.000000
24
0.000000
34
0.0
50
0.000000
100
AcDbRotatedDimension
0
DIMENSION
8
Layer_1
5
83
100
AcDbEntity
62
256
370
-1
6
ByLayer
1
Layer_1_maxx
3
Standard
70
0
71
5
72
1
41
1.0
100
AcDbAlignedDimension
13
0.000000
23
0.000000
33
0.0
14
2.257778
24
0.000000
34
0.0
50
0.000000
100
AcDbRotatedDimension
0
DIMENSION
8
Layer_1
5
83
100
AcDbEntity
62
256
370
-1
6
ByLayer
1
Layer_1_height
3
Standard
70
0
71
5
72
1
41
1.0
100
AcDbAlignedDimension
13
0.000000
23
314.542222
33
0.0
14
0.000000
24
318.211111
34
0.0
50
90.000000
100
AcDbRotatedDimension
0
DIMENSION
8
Layer_1
5
83
100
AcDbEntity
62
256
370
-1
6
ByLayer
1
Layer_1_miny
3
Standard
70
0
71
5
72
1
41
1.0
100
AcDbAlignedDimension
13
314.542222
23
0.000000
33
0.0
14
0.000000
24
0.000000
34
0.0
50
0.000000
100
AcDbRotatedDimension
0
DIMENSION
8
Layer_1
5
83
100
AcDbEntity
62
256
370
-1
6
ByLayer
1
Layer_1_maxy
3
Standard
70
0
71
5
72
1
41
1.0
100
AcDbAlignedDimension
13
0.000000
23
0.000000
33
0.0
14
318.211111
24
0.000000
34
0.0
50
0.000000
100
AcDbRotatedDimension
0
DIMENSION
8
0
5
83
100
AcDbEntity
62
256
370
-1
6
ByLayer
1
0_width
3
Standard
70
0
71
5
72
1
41
1.0
100
AcDbAlignedDimension
13
22.400000
23
0.000000
33
0.0
14
167.511208
24
0.000000
34
0.0
50
0.000000
100
AcDbRotatedDimension
0
DIMENSION
8
0
5
83
100
AcDbEntity
62
256
370
-1
6
ByLayer
1
0_minx
3
Standard
70
0
71
5
72
1
41
1.0
100
AcDbAlignedDimension
13
22.400000
23
0.000000
33
0.0
14
0.000000
24
0.000000
34
0.0
50
0.000000
100
AcDbRotatedDimension
0
DIMENSION
8
0
5
83
100
AcDbEntity
62
256
370
-1
6
ByLayer
1
0_maxx
3
Standard
70
0
71
5
72
1
41
1.0
100
AcDbAlignedDimension
13
0.000000
23
0.000000
33
0.0
14
167.511208
24
0.000000
34
0.0
50
0.000000
100
AcDbRotatedDimension
0
DIMENSION
8
0
5
83
100
AcDbEntity
62
256
370
-1
6
ByLayer
1
0_height
3
Standard
70
0
71
5
72
1
41
1.0
100
AcDbAlignedDimension
13
0.000000
23
24.545970
33
0.0
14
0.000000
24
100.256246
34
0.0
50
90.000000
100
AcDbRotatedDimension
0
DIMENSION
8
0
5
83
100
AcDbEntity
62
256
370
-1
6
ByLayer
1
0_miny
3
Standard
70
0
71
5
72
1
41
1.0
100
AcDbAlignedDimension
13
24.545970
23
0.000000
33
0.0
14
0.000000
24
0.000000
34
0.0
50
0.000000
100
AcDbRotatedDimension
0
DIMENSION
8
0
5
83
100
AcDbEntity
62
256
370
-1
6
ByLayer
1
0_maxy
3
Standard
70
0
71
5
72
1
41
1.0
100
AcDbAlignedDimension
13
0.000000
23
0.000000
33
0.0
14
100.256246
24
0.000000
34
0.0
50
0.000000
100
AcDbRotatedDimension
62
0
0
LWPOLYLINE
100
AcDbPolyline
8
Layer_1
90
2
70
0
10
0.846667
20
317.646667
30
0.0
10
-0.846667
20
315.953333
30
0.0
62
0
0
LWPOLYLINE
100
AcDbPolyline
8
Layer_1
90
2
70
0
10
0.000000
20
318.211111
30
0.0
10
0.000000
20
315.388889
30
0.0
62
0
0
LWPOLYLINE
100
AcDbPolyline
8
Layer_1
90
2
70
0
10
2.257778
20
315.671111
30
0.0
10
1.128889
20
314.542222
30
0.0
62
0
0
LWPOLYLINE
100
AcDbPolyline
8
Layer_1
90
2
70
0
10
1.693333
20
316.235556
30
0.0
10
0.564444
20
315.106667
30
0.0
62
0
0
LWPOLYLINE
100
AcDbPolyline
8
Layer_1
90
2
70
0
10
1.128889
20
316.800000
30
0.0
10
0.000000
20
315.671111
30
0.0
62
0
0
LWPOLYLINE
100
AcDbPolyline
8
0
90
2
70
0
10
83.927752
20
26.698992
30
0.0
10
70.076880
20
35.556712
30
0.0
62
0
0
LWPOLYLINE
100
AcDbPolyline
8
0
90
2
70
0
10
70.076880
20
35.556712
30
0.0
10
55.218019
20
43.657968
30
0.0
62
0
0
LWPOLYLINE
100
AcDbPolyline
8
0
90
5
70
0
10
55.218019
20
43.657968
30
0.0
10
48.184781
20
44.686786
30
0.0
10
40.880672
20
43.956175
30
0.0
10
33.407398
20
41.488148
30
0.0
10
25.866667
20
37.304720
30
0.0
62
0
0
LWPOLYLINE
100
AcDbPolyline
8
0
90
6
70
0
10
28.182084
20
49.986897
30
0.0
10
39.164726
20
55.213129
30
0.0
10
44.210630
20
56.243570
30
0.0
10
49.253720
20
56.183588
30
0.0
10
60.213847
20
52.686433
30
0.0
10
73.809889
20
44.509824
30
0.0
62
0
0
LWPOLYLINE
100
AcDbPolyline
8
0
90
7
70
0
10
73.809889
20
44.509824
30
0.0
10
85.802160
20
37.526874
30
0.0
10
90.902644
20
35.804731
30
0.0
10
95.729333
20
35.265772
30
0.0
10
100.524705
20
35.912717
30
0.0
10
105.531239
20
37.748288
30
0.0
10
117.147712
20
44.996192
30
0.0
62
0
0
LWPOLYLINE
100
AcDbPolyline
8
0
90
6
70
0
10
117.147712
20
44.996192
30
0.0
10
129.782788
20
52.752166
30
0.0
10
140.986837
20
56.141541
30
0.0
10
146.309894
20
56.228381
30
0.0
10
151.584395
20
55.259126
30
0.0
10
162.400000
20
50.199732
30
0.0
62
0
0
LWPOLYLINE
100
AcDbPolyline
8
0
90
2
70
0
10
162.400000
20
50.199732
30
0.0
10
167.511208
20
46.903315
30
0.0
62
0
0
LWPOLYLINE
100
AcDbPolyline
8
0
90
2
70
0
10
167.511208
20
46.903315
30
0.0
10
167.466649
20
41.721432
30
0.0
62
0
0
LWPOLYLINE
100
AcDbPolyline
8
0
90
5
70
0
10
25.866667
20
37.304720
30
0.0
10
22.400000
20
34.990504
30
0.0
10
22.400000
20
40.736544
30
0.0
10
22.400000
20
46.482587
30
0.0
10
28.182084
20
49.986897
30
0.0
62
0
0
LWPOLYLINE
100
AcDbPolyline
8
0
90
5
70
0
10
159.992953
20
40.297048
30
0.0
10
153.526430
20
43.001503
30
0.0
10
147.109092
20
44.477629
30
0.0
10
140.834189
20
44.712851
30
0.0
10
134.794968
20
43.694599
30
0.0
62
0
0
LWPOLYLINE
100
AcDbPolyline
8
0
90
2
70
0
10
134.794968
20
43.694599
30
0.0
10
119.624544
20
35.395744
30
0.0
62
0
0
LWPOLYLINE
100
AcDbPolyline
8
0
90
2
70
0
10
119.624544
20
35.395744
30
0.0
10
105.066648
20
26.521584
30
0.0
62
0
0
LWPOLYLINE
100
AcDbPolyline
8
0
90
5
70
0
10
105.066648
20
26.521584
30
0.0
10
99.989660
20
25.014246
30
0.0
10
94.225992
20
24.545970
30
0.0
10
88.597924
20
25.109853
30
0.0
10
83.927737
20
26.698992
30
0.0
62
0
0
LWPOLYLINE
100
AcDbPolyline
8
0
90
3
70
0
10
167.466649
20
41.721432
30
0.0
10
167.466649
20
36.462544
30
0.0
10
159.992953
20
40.297048
30
0.0
62
0
0
LWPOLYLINE
100
AcDbPolyline
8
0
90
2
70
0
10
88.289776
20
47.367896
30
0.0
10
76.981958
20
53.119273
30
0.0
62
0
0
LWPOLYLINE
100
AcDbPolyline
8
0
90
3
70
0
10
76.981958
20
53.119273
30
0.0
10
62.512535
20
62.689544
30
0.0
10
54.155174
20
66.192066
30
0.0
62
0
0
LWPOLYLINE
100
AcDbPolyline
8
0
90
5
70
0
10
54.155174
20
66.192066
30
0.0
10
48.390546
20
67.012311
30
0.0
10
42.685150
20
66.612749
30
0.0
10
36.750791
20
64.942121
30
0.0
10
30.299275
20
61.949171
30
0.0
62
0
0
LWPOLYLINE
100
AcDbPolyline
8
0
90
2
70
0
10
22.400000
20
62.990760
30
0.0
10
22.410576
20
68.218189
30
0.0
62
0
0
LWPOLYLINE
100
AcDbPolyline
8
0
90
2
70
0
10
22.410576
20
68.218189
30
0.0
10
28.163662
20
71.980133
30
0.0
62
0
0
LWPOLYLINE
100
AcDbPolyline
8
0
90
2
70
0
10
28.163662
20
71.980133
30
0.0
10
40.430328
20
77.475098
30
0.0
62
0
0
LWPOLYLINE
100
AcDbPolyline
8
0
90
3
70
0
10
40.430328
20
77.475098
30
0.0
10
46.957298
20
78.748184
30
0.0
10
53.600002
20
77.437818
30
0.0
62
0
0
LWPOLYLINE
100
AcDbPolyline
8
0
90
3
70
0
10
53.600002
20
77.437818
30
0.0
10
61.365684
20
74.195558
30
0.0
10
71.466669
20
67.984840
30
0.0
62
0
0
LWPOLYLINE
100
AcDbPolyline
8
0
90
4
70
0
10
71.466669
20
67.984840
30
0.0
10
85.446955
20
59.586941
30
0.0
10
90.352798
20
58.075914
30
0.0
10
95.466663
20
57.670244
30
0.0
62
0
0
LWPOLYLINE
100
AcDbPolyline
8
0
90
4
70
0
10
95.466663
20
57.670244
30
0.0
10
100.321328
20
58.163422
30
0.0
10
105.320693
20
59.802220
30
0.0
10
117.351600
20
67.213545
30
0.0
62
0
0
LWPOLYLINE
100
AcDbPolyline
8
0
90
6
70
0
10
117.351600
20
67.213545
30
0.0
10
129.911323
20
74.861850
30
0.0
10
141.380616
20
78.116795
30
0.0
10
146.895316
20
78.115064
30
0.0
10
152.364167
20
77.036961
30
0.0
10
163.466665
20
71.680930
30
0.0
62
0
0
LWPOLYLINE
100
AcDbPolyline
8
0
90
2
70
0
10
163.466665
20
71.680930
30
0.0
10
167.457792
20
68.993556
30
0.0
62
0
0
LWPOLYLINE
100
AcDbPolyline
8
0
90
2
70
0
10
167.457792
20
68.993556
30
0.0
10
167.466672
20
63.858254
30
0.0
62
0
0
LWPOLYLINE
100
AcDbPolyline
8
0
90
2
70
0
10
167.466672
20
63.858254
30
0.0
10
167.496192
20
57.802308
30
0.0
62
0
0
LWPOLYLINE
100
AcDbPolyline
8
0
90
2
70
0
10
167.496192
20
57.802308
30
0.0
10
163.075512
20
60.888625
30
0.0
62
0
0
LWPOLYLINE
100
AcDbPolyline
8
0
90
3
70
0
10
163.075512
20
60.888625
30
0.0
10
153.417194
20
65.326831
30
0.0
10
142.693288
20
67.189580
30
0.0
62
0
0
LWPOLYLINE
100
AcDbPolyline
8
0
90
4
70
0
10
142.693288
20
67.189580
30
0.0
10
137.534275
20
66.626430
30
0.0
10
131.939388
20
64.697336
30
0.0
10
115.983728
20
55.187312
30
0.0
62
0
0
LWPOLYLINE
100
AcDbPolyline
8
0
90
3
70
0
10
115.983728
20
55.187312
30
0.0
10
106.837099
20
49.549671
30
0.0
10
100.197888
20
47.018237
30
0.0
62
0
0
LWPOLYLINE
100
AcDbPolyline
8
0
90
3
70
0
10
100.197888
20
47.018237
30
0.0
10
94.159319
20
46.391020
30
0.0
10
88.289753
20
47.367896
30
0.0
62
0
0
LWPOLYLINE
100
AcDbPolyline
8
0
90
3
70
0
10
30.299275
20
61.949171
30
0.0
10
22.400000
20
57.688356
30
0.0
10
22.400000
20
62.990760
30
0.0
62
0
0
LWPOLYLINE
100
AcDbPolyline
8
0
90
2
70
0
10
87.567696
20
69.446709
30
0.0
10
72.331903
20
78.442725
30
0.0
62
0
0
LWPOLYLINE
100
AcDbPolyline
8
0
90
4
70
0
10
72.331903
20
78.442725
30
0.0
10
57.750301
20
86.861698
30
0.0
10
51.914788
20
88.921801
30
0.0
10
46.933333
20
89.600000
30
0.0
62
0
0
LWPOLYLINE
100
AcDbPolyline
8
0
90
3
70
0
10
46.933333
20
89.600000
30
0.0
10
38.046791
20
87.718918
30
0.0
10
28.496290
20
83.237348
30
0.0
62
0
0
LWPOLYLINE
100
AcDbPolyline
8
0
90
2
70
0
10
28.496290
20
83.237348
30
0.0
10
22.430866
20
79.468087
30
0.0
62
0
0
LWPOLYLINE
100
AcDbPolyline
8
0
90
2
70
0
10
22.427696
20
89.891026
30
0.0
10
26.530611
20
93.305536
30
0.0
62
0
0
LWPOLYLINE
100
AcDbPolyline
8
0
90
5
70
0
10
26.530611
20
93.305536
30
0.0
10
33.994035
20
97.361524
30
0.0
10
41.886980
20
99.663050
30
0.0
10
49.707525
20
100.132606
30
0.0
10
56.953748
20
98.692685
30
0.0
62
0
0
LWPOLYLINE
100
AcDbPolyline
8
0
90
2
70
0
10
56.953748
20
98.692685
30
0.0
10
72.953748
20
89.142076
30
0.0
62
0
0
LWPOLYLINE
100
AcDbPolyline
8
0
90
7
70
0
10
72.953748
20
89.142076
30
0.0
10
85.507595
20
81.737289
30
0.0
10
90.741207
20
79.938598
30
0.0
10
95.697470
20
79.419521
30
0.0
10
100.690032
20
80.187919
30
0.0
10
106.032537
20
82.251652
30
0.0
10
119.021959
20
90.296561
30
0.0
62
0
0
LWPOLYLINE
100
AcDbPolyline
8
0
90
4
70
0
10
119.021959
20
90.296561
30
0.0
10
132.015652
20
97.830035
30
0.0
10
137.555251
20
99.654226
30
0.0
10
142.629383
20
100.256246
30
0.0
62
0
0
LWPOLYLINE
100
AcDbPolyline
8
0
90
3
70
0
10
142.629383
20
100.256246
30
0.0
10
152.847157
20
98.631438
30
0.0
10
162.931424
20
94.028020
30
0.0
62
0
0
LWPOLYLINE
100
AcDbPolyline
8
0
90
2
70
0
10
162.931424
20
94.028020
30
0.0
10
167.505720
20
90.963000
30
0.0
62
0
0
LWPOLYLINE
100
AcDbPolyline
8
0
90
2
70
0
10
167.505720
20
90.963000
30
0.0
10
167.464759
20
85.677819
30
0.0
62
0
0
LWPOLYLINE
100
AcDbPolyline
8
0
90
3
70
0
10
22.430866
20
79.468087
30
0.0
10
22.400000
20
85.254754
30
0.0
10
22.427696
20
89.891026
30
0.0
62
0
0
LWPOLYLINE
100
AcDbPolyline
8
0
90
5
70
0
10
161.554416
20
83.715624
30
0.0
10
150.844975
20
88.488008
30
0.0
10
140.510211
20
89.217663
30
0.0
10
129.595798
20
85.783106
30
0.0
10
117.147408
20
78.062859
30
0.0
62
0
0
LWPOLYLINE
100
AcDbPolyline
8
0
90
2
70
0
10
117.147408
20
78.062859
30
0.0
10
105.947399
20
70.903327
30
0.0
62
0
0
LWPOLYLINE
100
AcDbPolyline
8
0
90
3
70
0
10
105.947399
20
70.903327
30
0.0
10
96.835660
20
68.731558
30
0.0
10
87.567392
20
69.446709
30
0.0
62
0
0
LWPOLYLINE
100
AcDbPolyline
8
0
90
3
70
0
10
167.464759
20
85.677819
30
0.0
10
167.466359
20
80.155637
30
0.0
10
161.554416
20
83.715624
30
0.0
62
0
0
LWPOLYLINE
100
AcDbPolyline
8
0
90
2
70
0
10
87.567392
20
69.446709
30
0.0
10
87.567696
20
69.446709
30
0.0
  0
ENDSEC
  0
SECTION
  2
OBJECTS
  0
DICTIONARY
  5
C
330
0
100
AcDbDictionary
  3
ACAD_GROUP
350
D
  3
ACAD_MLINESTYLE
350
17
  0
DICTIONARY
  5
D
330
C
100
AcDbDictionary
  0
DICTIONARY
  5
1A
330
C
100
AcDbDictionary
  0
DICTIONARY
  5
17
330
C
100
AcDbDictionary
  3
STANDARD
350
18
  0
DICTIONARY
  5
19
330
C
100
AcDbDictionary
  0
ENDSEC
  0
EOF
