999
"DXF R12 Output" (www.mydxf.blogspot.com)
 0 
SECTION
 2 
HEADER
 9 
$ACADVER
 1 
AC1009
 9 
$EXTMIN
 10 
 0 
 20 
 0 
 9 
$EXTMAX
 10 
 8.5 
 20 
 11 
 0 
ENDSEC
 0 
SECTION
 2 
ENTITIES
0
LINE
8
Image
10
318.078000
20
200.750000
11
315.772891
21
193.579687
0
LINE
8
Image
10
315.772891
20
193.579687
11
310.989940
21
179.500000
0
LINE
8
Image
10
310.989940
20
179.500000
11
307.819760
21
169.991088
0
LINE
8
Image
10
307.819760
20
169.991088
11
305.052580
21
161.014700
0
LINE
8
Image
10
305.052580
20
161.014700
11
302.669531
21
152.488855
0
LINE
8
Image
10
302.669531
20
152.488855
11
300.651745
21
144.331575
0
LINE
8
Image
10
300.651745
20
144.331575
11
298.980352
21
136.460879
0
LINE
8
Image
10
298.980352
20
136.460879
11
297.636483
21
128.794788
0
LINE
8
Image
10
297.636483
20
128.794788
11
296.601268
21
121.251321
0
LINE
8
Image
10
296.601268
20
121.251321
11
295.855840
21
113.748500
0
LINE
8
Image
10
295.855840
20
113.748500
11
295.148660
21
104.996940
0
LINE
8
Image
10
295.148660
20
104.996940
11
298.898660
21
103.430090
0
LINE
8
Image
10
298.898660
20
103.430090
11
300.324163
21
102.740563
0
LINE
8
Image
10
300.324163
20
102.740563
11
301.327849
21
102.061269
0
LINE
8
Image
10
301.327849
20
102.061269
11
301.834042
21
101.456560
0
LINE
8
Image
10
301.834042
20
101.456560
11
301.876932
21
101.202286
0
LINE
8
Image
10
301.876932
20
101.202286
11
301.767070
21
100.990790
0
LINE
8
Image
10
301.767070
20
100.990790
11
293.360065
21
96.353487
0
LINE
8
Image
10
293.360065
20
96.353487
11
274.385470
21
86.429390
0
LINE
8
Image
10
274.385470
20
86.429390
11
247.111901
21
72.230368
0
LINE
8
Image
10
247.111901
20
72.230368
11
223.204934
21
59.557574
0
LINE
8
Image
10
223.204934
20
59.557574
11
203.289367
21
48.745865
0
LINE
8
Image
10
203.289367
20
48.745865
11
187.990000
21
40.130100
0
LINE
8
Image
10
187.990000
20
40.130100
11
182.506926
21
36.943318
0
LINE
8
Image
10
182.506926
20
36.943318
11
178.384656
21
34.421198
0
LINE
8
Image
10
178.384656
20
34.421198
11
175.369996
21
32.261233
0
LINE
8
Image
10
175.369996
20
32.261233
11
173.209750
21
30.160912
0
LINE
8
Image
10
173.209750
20
30.160912
11
172.370909
21
29.038585
0
LINE
8
Image
10
172.370909
20
29.038585
11
171.650723
21
27.817728
0
LINE
8
Image
10
171.650723
20
27.817728
11
170.439719
21
24.929170
0
LINE
8
Image
10
170.439719
20
24.929170
11
169.323543
21
21.192731
0
LINE
8
Image
10
169.323543
20
21.192731
11
168.049000
21
16.305900
0
LINE
8
Image
10
168.049000
20
16.305900
11
166.370125
21
10.439875
0
LINE
8
Image
10
166.370125
20
10.439875
11
165.733047
21
8.655394
0
LINE
8
Image
10
165.733047
20
8.655394
11
165.349000
21
8.000000
0
LINE
8
Image
10
165.349000
20
8.000000
11
164.965965
21
8.690430
0
LINE
8
Image
10
164.965965
20
8.690430
11
164.331616
21
10.570312
0
LINE
8
Image
10
164.331616
20
10.570312
11
162.661680
21
16.750000
0
LINE
8
Image
10
162.661680
20
16.750000
11
160.854201
21
23.717936
0
LINE
8
Image
10
160.854201
20
23.717936
11
159.506120
21
28.183400
0
LINE
8
Image
10
159.506120
20
28.183400
11
158.954438
21
29.080371
0
LINE
8
Image
10
158.954438
20
29.080371
11
157.878202
21
30.199295
0
LINE
8
Image
10
157.878202
20
30.199295
11
156.240479
21
31.561263
0
LINE
8
Image
10
156.240479
20
31.561263
11
154.004336
21
33.187364
0
LINE
8
Image
10
154.004336
20
33.187364
11
147.589064
21
37.316329
0
LINE
8
Image
10
147.589064
20
37.316329
11
138.336926
21
42.754910
0
LINE
8
Image
10
138.336926
20
42.754910
11
125.952462
21
49.671827
0
LINE
8
Image
10
125.952462
20
49.671827
11
110.140213
21
58.235801
0
LINE
8
Image
10
110.140213
20
58.235801
11
67.050520
21
80.979800
0
LINE
8
Image
10
67.050520
20
80.979800
11
45.118215
21
92.573120
0
LINE
8
Image
10
45.118215
20
92.573120
11
38.136732
21
96.430387
0
LINE
8
Image
10
38.136732
20
96.430387
11
33.464707
21
99.216788
0
LINE
8
Image
10
33.464707
20
99.216788
11
30.841904
21
101.098871
0
LINE
8
Image
10
30.841904
20
101.098871
11
30.217635
21
101.752841
0
LINE
8
Image
10
30.217635
20
101.752841
11
30.008081
21
102.243186
0
LINE
8
Image
10
30.008081
20
102.243186
11
30.180713
21
102.590726
0
LINE
8
Image
10
30.180713
20
102.590726
11
30.702999
21
102.816279
0
LINE
8
Image
10
30.702999
20
102.816279
11
32.666420
21
102.984700
0
LINE
8
Image
10
32.666420
20
102.984700
11
33.404333
21
103.110940
0
LINE
8
Image
10
33.404333
20
103.110940
11
34.096632
21
103.443846
0
LINE
8
Image
10
34.096632
20
103.443846
11
34.665643
21
103.932702
0
LINE
8
Image
10
34.665643
20
103.932702
11
35.033690
21
104.526790
0
LINE
8
Image
10
35.033690
20
104.526790
11
35.219392
21
106.170453
0
LINE
8
Image
10
35.219392
20
106.170453
11
35.137450
21
109.202853
0
LINE
8
Image
10
35.137450
20
109.202853
11
34.294849
21
118.358099
0
LINE
8
Image
10
34.294849
20
118.358099
11
32.754326
21
129.840990
0
LINE
8
Image
10
32.754326
20
129.840990
11
30.764320
21
141.499990
0
LINE
8
Image
10
30.764320
20
141.499990
11
27.417938
21
157.081320
0
LINE
8
Image
10
27.417938
20
157.081320
11
23.087172
21
175.139252
0
LINE
8
Image
10
23.087172
20
175.139252
11
18.855680
21
191.338179
0
LINE
8
Image
10
18.855680
20
191.338179
11
17.115805
21
197.385637
0
LINE
8
Image
10
17.115805
20
197.385637
11
15.807120
21
201.342490
0
LINE
8
Image
10
15.807120
20
201.342490
11
15.775782
21
201.613796
0
LINE
8
Image
10
15.775782
20
201.613796
11
15.953581
21
201.853956
0
LINE
8
Image
10
15.953581
20
201.853956
11
17.243524
21
202.248368
0
LINE
8
Image
10
17.243524
20
202.248368
11
20.290833
21
202.540784
0
LINE
8
Image
10
20.290833
20
202.540784
11
25.709389
21
202.746264
0
LINE
8
Image
10
25.709389
20
202.746264
11
46.115769
21
202.956653
0
LINE
8
Image
10
46.115769
20
202.956653
11
83.373720
21
203.000010
0
LINE
8
Image
10
83.373720
20
203.000010
11
119.547297
21
202.949664
0
LINE
8
Image
10
119.547297
20
202.949664
11
140.530532
21
202.734459
0
LINE
8
Image
10
140.530532
20
202.734459
11
146.678705
21
202.534957
0
LINE
8
Image
10
146.678705
20
202.534957
11
150.652812
21
202.258147
0
LINE
8
Image
10
150.652812
20
202.258147
11
152.994026
21
201.891998
0
LINE
8
Image
10
152.994026
20
201.891998
11
154.243520
21
201.424480
0
LINE
8
Image
10
154.243520
20
201.424480
11
155.537475
21
200.507721
0
LINE
8
Image
10
155.537475
20
200.507721
11
156.920744
21
199.237544
0
LINE
8
Image
10
156.920744
20
199.237544
11
158.388259
21
197.623152
0
LINE
8
Image
10
158.388259
20
197.623152
11
159.934955
21
195.673747
0
LINE
8
Image
10
159.934955
20
195.673747
11
163.245622
21
190.806717
0
LINE
8
Image
10
163.245622
20
190.806717
11
166.812215
21
184.710079
0
LINE
8
Image
10
166.812215
20
184.710079
11
170.594202
21
177.457460
0
LINE
8
Image
10
170.594202
20
177.457460
11
174.551052
21
169.122486
0
LINE
8
Image
10
174.551052
20
169.122486
11
178.642235
21
159.778784
0
LINE
8
Image
10
178.642235
20
159.778784
11
182.827220
21
149.499980
0
LINE
8
Image
10
182.827220
20
149.499980
11
190.431164
21
130.343855
0
LINE
8
Image
10
190.431164
20
130.343855
11
191.456064
21
128.162189
0
LINE
8
Image
10
191.456064
20
128.162189
11
191.658601
21
128.004766
0
LINE
8
Image
10
191.658601
20
128.004766
11
191.800950
21
128.120780
0
LINE
8
Image
10
191.800950
20
128.120780
11
193.264362
21
132.472110
0
LINE
8
Image
10
193.264362
20
132.472110
11
196.303810
21
142.401280
0
LINE
8
Image
10
196.303810
20
142.401280
11
199.321000
21
152.045517
0
LINE
8
Image
10
199.321000
20
152.045517
11
202.450126
21
161.233094
0
LINE
8
Image
10
202.450126
20
161.233094
11
205.634302
21
169.829749
0
LINE
8
Image
10
205.634302
20
169.829749
11
208.816646
21
177.701218
0
LINE
8
Image
10
208.816646
20
177.701218
11
211.940273
21
184.713238
0
LINE
8
Image
10
211.940273
20
184.713238
11
214.948299
21
190.731547
0
LINE
8
Image
10
214.948299
20
190.731547
11
217.783839
21
195.621882
0
LINE
8
Image
10
217.783839
20
195.621882
11
220.390010
21
199.249980
0
LINE
8
Image
10
220.390010
20
199.249980
11
223.530630
21
202.999980
0
LINE
8
Image
10
223.530630
20
202.999980
11
271.074430
21
202.999980
0
LINE
8
Image
10
271.074430
20
202.999980
11
318.618230
21
202.999980
0
LINE
8
Image
10
318.618230
20
202.999980
11
318.078000
21
200.750000
 0 
ENDSEC
 0 
EOF