999
"DXF R12 Output" (www.mydxf.blogspot.com)
 0 
SECTION
 2 
HEADER
 9 
$ACADVER
 1 
AC1009
 9 
$EXTMIN
 10 
 0 
 20 
 0 
 9 
$EXTMAX
 10 
 8.5 
 20 
 11 
 0 
ENDSEC
 0 
SECTION
 2 
ENTITIES
0
LINE
8
Image
10
2.008755
20
3.505785
11
2.476489
21
6.800205
0
LINE
8
Image
10
2.476489
20
6.800205
11
2.820819
21
9.234731
0
LINE
8
Image
10
2.820819
20
9.234731
11
1.410409
21
10.627621
0
LINE
8
Image
10
1.410409
20
10.627621
11
0.000000
21
12.020510
0
LINE
8
Image
10
0.000000
20
12.020510
11
0.000000
21
15.402982
0
LINE
8
Image
10
0.000000
20
15.402982
11
0.000000
21
18.785453
0
LINE
8
Image
10
0.000000
20
18.785453
11
1.984373
21
18.785453
0
LINE
8
Image
10
1.984373
20
18.785453
11
3.968745
21
18.785453
0
LINE
8
Image
10
3.968745
20
18.785453
11
3.968745
21
17.065663
0
LINE
8
Image
10
3.968745
20
17.065663
11
3.968745
21
15.345874
0
LINE
8
Image
10
3.968745
20
15.345874
11
6.217701
21
15.345874
0
LINE
8
Image
10
6.217701
20
15.345874
11
8.466656
21
15.345874
0
LINE
8
Image
10
8.466656
20
15.345874
11
8.466656
21
17.065663
0
LINE
8
Image
10
8.466656
20
17.065663
11
8.466656
21
18.785453
0
LINE
8
Image
10
8.466656
20
18.785453
11
10.583320
21
18.785453
0
LINE
8
Image
10
10.583320
20
18.785453
11
12.699984
21
18.785453
0
LINE
8
Image
10
12.699984
20
18.785453
11
12.699984
21
17.065663
0
LINE
8
Image
10
12.699984
20
17.065663
11
12.699984
21
15.345874
0
LINE
8
Image
10
12.699984
20
15.345874
11
14.948940
21
15.345874
0
LINE
8
Image
10
14.948940
20
15.345874
11
17.197895
21
15.345874
0
LINE
8
Image
10
17.197895
20
15.345874
11
17.197895
21
17.065663
0
LINE
8
Image
10
17.197895
20
17.065663
11
17.197895
21
18.785453
0
LINE
8
Image
10
17.197895
20
18.785453
11
19.182268
21
18.785453
0
LINE
8
Image
10
19.182268
20
18.785453
11
21.166640
21
18.785453
0
LINE
8
Image
10
21.166640
20
18.785453
11
21.166640
21
15.402982
0
LINE
8
Image
10
21.166640
20
15.402982
11
21.166640
21
12.020510
0
LINE
8
Image
10
21.166640
20
12.020510
11
19.756231
21
10.627621
0
LINE
8
Image
10
19.756231
20
10.627621
11
18.345821
21
9.234731
0
LINE
8
Image
10
18.345821
20
9.234731
11
18.690151
21
6.800205
0
LINE
8
Image
10
18.690151
20
6.800205
11
19.157885
21
3.505785
0
LINE
8
Image
10
19.157885
20
3.505785
11
19.281290
21
2.645890
0
LINE
8
Image
10
19.281290
20
2.645890
11
10.583320
21
2.645890
0
LINE
8
Image
10
10.583320
20
2.645890
11
1.885350
21
2.645890
0
LINE
8
Image
10
1.885350
20
2.645890
11
2.008755
21
3.505785
 0 
ENDSEC
 0 
EOF